<?xml version="1.0" standalone="no"?>
<!DOCTYPE svg PUBLIC "-//W3C//DTD SVG 20010904//EN"
 "http://www.w3.org/TR/2001/REC-SVG-20010904/DTD/svg10.dtd">
<svg version="1.0" xmlns="http://www.w3.org/2000/svg"
 width="1618.000000pt" height="1214.000000pt" viewBox="0 0 1618.000000 1214.000000"
 preserveAspectRatio="xMidYMid meet">

<g transform="translate(0.000000,1214.000000) scale(0.100000,-0.100000)"
fill="#000000" stroke="none">
<path d="M14407 11972 c-10 -11 -13 -22 -7 -28 22 -22 31 -146 20 -287 -6 -77
-12 -142 -13 -143 -1 -1 -21 3 -45 9 -35 9 -45 9 -58 -5 -15 -15 -48 -13 -95
7 -33 13 -32 -17 1 -43 18 -14 43 -49 55 -77 13 -28 35 -59 50 -69 29 -19 68
-97 79 -159 4 -22 12 -37 19 -34 18 6 64 103 93 197 15 47 31 89 35 94 5 6 9
17 9 25 0 9 14 25 30 36 64 43 28 57 -72 29 -32 -9 -60 -15 -63 -13 -2 3 1 67
6 144 7 97 7 163 0 215 -6 41 -10 84 -9 94 4 26 -15 30 -35 8z m119 -481 c-8
-12 -46 -21 -46 -11 0 5 10 11 23 13 12 2 23 5 25 6 2 0 1 -3 -2 -8z m-196
-41 c0 -5 -2 -10 -4 -10 -3 0 -8 5 -11 10 -3 6 -1 10 4 10 6 0 11 -4 11 -10z
m155 -29 c-3 -6 -18 -10 -33 -10 -21 1 -22 2 -7 6 11 3 24 9 29 14 12 11 20 4
11 -10z m-95 -71 c0 -5 -2 -10 -4 -10 -3 0 -8 5 -11 10 -3 6 -1 10 4 10 6 0
11 -4 11 -10z m48 -40 c-14 -22 -24 -19 -15 5 4 8 11 15 17 15 6 0 6 -7 -2
-20z"/>
<path d="M9394 11788 c3 -40 9 -216 13 -390 6 -315 6 -318 -14 -318 -11 0 -26
6 -32 14 -11 13 -61 11 -61 -3 0 -4 16 -45 35 -91 19 -47 40 -106 47 -132 8
-35 17 -48 30 -48 11 0 18 7 18 19 0 11 22 43 48 73 27 29 59 69 72 88 14 19
33 42 44 51 31 25 11 43 -38 34 -22 -4 -57 -8 -77 -9 l-36 -1 -6 340 c-8 383
-12 445 -35 445 -12 0 -14 -12 -8 -72z m9 -745 c10 -17 18 -103 10 -103 -5 0
-13 25 -19 55 -9 48 -4 71 9 48z m137 -3 c0 -5 -2 -10 -4 -10 -3 0 -8 5 -11
10 -3 6 -1 10 4 10 6 0 11 -4 11 -10z m-39 -53 c-10 -9 -11 -8 -5 6 3 10 9 15
12 12 3 -3 0 -11 -7 -18z"/>
<path d="M8030 11746 c0 -17 35 -30 51 -20 9 5 6 11 -6 21 -24 17 -45 17 -45
-1z"/>
<path d="M7080 11732 l-21 -17 40 -41 c22 -23 43 -39 46 -36 11 11 4 33 -15
49 -11 10 -20 21 -20 25 0 13 65 9 78 -4 16 -16 25 -4 17 21 -5 17 -15 21 -55
21 -31 0 -55 -6 -70 -18z"/>
<path d="M7901 11693 c-5 -21 -15 -64 -21 -95 -6 -32 -15 -58 -20 -58 -10 0
-33 37 -36 59 -2 8 -12 23 -23 34 -17 18 -24 19 -46 9 -33 -15 -33 -36 1 -29
23 4 28 -1 52 -49 20 -41 32 -54 48 -54 35 0 40 11 70 158 3 14 12 22 24 22
25 0 26 16 1 30 -32 16 -40 12 -50 -27z"/>
<path d="M8431 11713 c-48 -40 -41 -133 13 -180 40 -34 144 -44 154 -15 2 8
-7 12 -30 12 -61 0 -107 19 -123 50 -21 40 -20 44 19 58 49 18 70 45 56 71
-13 26 -59 28 -89 4z m53 -27 c-5 -13 -44 -29 -52 -22 -1 2 4 11 13 20 20 20
46 21 39 2z"/>
<path d="M13366 11708 c-7 -13 -17 -44 -21 -70 -6 -48 -6 -48 -45 -48 -33 0
-44 -6 -78 -45 -71 -81 -80 -180 -20 -230 l30 -26 -17 -46 c-36 -94 -39 -143
-9 -143 9 0 14 11 14 33 0 17 10 60 22 95 21 57 25 62 53 62 41 0 90 32 111
71 21 41 13 106 -19 163 -21 39 -22 45 -11 101 7 33 15 70 19 83 5 13 3 22 -4
22 -6 0 -17 -10 -25 -22z m-51 -159 c4 -5 -10 -59 -31 -120 -36 -105 -38 -109
-58 -96 -32 21 -40 73 -21 123 28 73 90 126 110 93z m65 -89 c15 -62 1 -104
-41 -125 -27 -14 -59 -20 -59 -11 0 4 39 115 61 174 13 33 25 20 39 -38z"/>
<path d="M8172 11707 c-37 -44 -19 -131 31 -152 34 -14 103 -3 126 20 21 20 6
30 -24 17 -46 -21 -93 -15 -111 14 -22 32 -9 79 21 79 11 0 20 7 20 15 0 20
-48 25 -63 7z"/>
<path d="M8057 11694 c-5 -5 -1 -51 9 -101 2 -13 11 -23 20 -23 12 0 14 10 9
53 -4 28 -8 58 -10 65 -5 13 -18 16 -28 6z"/>
<path d="M11526 11666 c-4 -19 -13 -56 -21 -83 l-14 -49 -71 4 c-58 4 -70 2
-70 -11 0 -8 -15 -30 -34 -49 -40 -40 -51 -73 -41 -125 6 -36 63 -104 94 -114
11 -4 8 -20 -13 -78 -20 -55 -24 -77 -16 -92 16 -29 30 -23 30 13 0 42 41 148
58 148 25 0 90 40 120 74 67 76 61 172 -13 213 -13 8 -12 17 5 78 24 83 25
105 6 105 -8 0 -17 -15 -20 -34z m-65 -223 c-10 -32 -28 -86 -41 -120 l-22
-62 -30 15 c-34 18 -68 69 -68 103 0 55 50 103 120 114 62 10 60 13 41 -50z
m81 30 c26 -24 24 -91 -5 -134 -12 -19 -41 -44 -64 -57 l-42 -23 35 103 c44
132 42 128 50 128 4 0 16 -7 26 -17z"/>
<path d="M7318 11673 c-24 -30 -38 -72 -38 -117 0 -52 23 -76 76 -81 48 -3
124 22 124 42 0 10 -6 13 -16 9 -93 -36 -154 -27 -154 22 0 24 7 32 40 47 41
18 58 49 46 80 -8 21 -60 19 -78 -2z m52 -23 c0 -9 -32 -30 -46 -30 -4 0 1 9
11 20 19 21 35 26 35 10z"/>
<path d="M7566 11665 c-19 -19 -21 -55 -3 -55 8 0 8 -3 -2 -9 -20 -13 -2 -75
23 -79 16 -3 18 0 11 19 -26 85 -13 122 41 111 20 -4 25 -1 22 9 -7 21 -72 23
-92 4z"/>
<path d="M13917 11646 c6 -42 -13 -79 -66 -130 l-40 -39 -21 24 c-29 34 -22
69 20 97 40 26 49 42 25 42 -31 0 -77 -32 -90 -63 -15 -35 -12 -49 22 -94 13
-18 19 -33 14 -33 -19 0 -81 -92 -81 -121 0 -42 32 -69 80 -69 76 0 107 78 64
164 -14 30 -14 30 40 83 57 56 75 97 62 148 -10 40 -35 32 -29 -9z m-90 -280
c6 -54 -7 -76 -46 -76 -60 0 -66 43 -14 100 42 47 53 43 60 -24z"/>
<path d="M7154 11637 c-7 -18 25 -66 44 -67 6 0 12 -5 12 -11 0 -5 -4 -8 -9
-5 -5 3 -11 -8 -14 -24 -5 -20 -14 -31 -31 -36 -29 -7 -69 12 -62 31 6 18 -25
29 -36 13 -12 -20 -10 -24 23 -52 82 -69 175 15 125 113 -8 15 -22 33 -30 40
-13 11 -17 11 -22 -2z"/>
<path d="M13576 11633 c-3 -3 -6 -28 -6 -54 0 -26 -7 -81 -16 -121 -29 -131
-31 -146 -23 -160 7 -11 11 -10 19 2 5 8 10 23 10 32 0 9 9 54 20 100 28 116
26 230 -4 201z"/>
<path d="M13043 11618 c-13 -6 -23 -15 -23 -20 0 -5 -5 -6 -10 -3 -6 4 -27
-10 -47 -30 -28 -28 -33 -39 -24 -48 9 -9 16 -7 29 9 20 25 76 64 91 64 33 0
-13 -133 -60 -177 -102 -94 -130 -123 -124 -132 12 -21 35 -11 80 34 l45 46 0
-35 c0 -70 30 -102 93 -98 30 3 77 28 77 43 0 12 -37 11 -45 -1 -3 -5 -22 -10
-40 -10 -42 0 -53 18 -56 86 -2 40 3 58 26 92 15 23 34 66 41 94 12 45 12 55
-1 75 -17 26 -20 26 -52 11z"/>
<path d="M12407 11580 c-47 -55 -107 -202 -107 -263 0 -47 26 -85 63 -92 67
-13 131 41 109 90 -13 29 -48 40 -101 31 l-39 -6 10 40 c18 71 82 184 111 198
15 7 25 17 22 23 -12 18 -44 8 -68 -21z m30 -277 c7 -19 -29 -53 -57 -53 -19
0 -36 16 -42 39 -6 28 89 41 99 14z"/>
<path d="M11696 11578 c-8 -24 -54 -192 -67 -244 -13 -57 -8 -84 16 -84 12 0
15 6 10 19 -3 11 3 55 15 99 11 44 20 90 20 101 0 12 5 21 10 21 6 0 10 9 10
21 0 11 4 28 9 37 6 11 4 21 -5 30 -12 11 -15 11 -18 0z"/>
<path d="M12087 11548 c-45 -32 -63 -55 -52 -67 3 -3 12 -1 19 4 99 73 116 77
116 22 0 -39 -77 -162 -121 -193 -36 -26 -80 -84 -73 -95 10 -17 24 -9 74 41
28 28 52 50 55 50 3 0 5 -22 5 -49 0 -28 5 -53 11 -56 34 -22 165 33 140 58
-7 7 -17 5 -33 -5 -13 -9 -38 -19 -56 -22 l-32 -8 0 56 c0 31 -4 56 -10 56 -6
0 8 29 30 64 42 66 49 105 28 151 -15 34 -44 32 -101 -7z"/>
<path d="M8807 11372 c-3 -4 -1 -31 2 -59 l7 -53 -35 -6 c-47 -9 -73 -23 -65
-35 5 -9 37 -6 87 7 12 4 17 0 17 -15 0 -11 5 -23 11 -26 6 -4 8 -14 5 -22 -4
-9 8 -29 29 -50 33 -33 39 -35 76 -29 57 9 84 25 70 39 -9 9 -19 8 -39 -4 -49
-28 -101 5 -116 74 -5 22 -3 27 13 27 29 0 72 22 68 34 -3 6 -10 10 -18 8 -61
-15 -66 -14 -72 10 -4 12 -7 39 -7 59 0 23 -6 39 -15 42 -8 4 -16 3 -18 -1z"/>
<path d="M7970 11353 c0 -5 11 -30 25 -57 27 -54 32 -78 13 -71 -20 8 -101
-19 -106 -34 -4 -11 4 -13 39 -7 24 4 49 12 56 17 6 6 16 8 22 5 13 -9 31 -98
24 -124 -4 -16 -1 -22 11 -22 22 0 29 38 16 94 -6 27 -9 50 -8 52 2 1 23 5 48
8 25 2 46 5 48 5 2 1 0 6 -3 11 -3 6 -28 10 -55 10 -48 0 -48 0 -66 46 -10 25
-24 52 -31 60 -16 15 -33 19 -33 7z"/>
<path d="M11762 11288 c-16 -16 -15 -38 2 -38 17 0 30 30 18 42 -4 4 -13 3
-20 -4z"/>
<path d="M12565 11270 c-4 -6 -3 -14 0 -20 9 -15 35 -12 35 4 0 17 -27 29 -35
16z"/>
<path d="M8211 11237 c-27 -13 -46 -65 -38 -104 2 -12 0 -20 -4 -17 -10 6 -12
-17 -3 -40 11 -28 36 -19 32 12 -1 15 1 49 5 75 8 46 10 48 33 43 22 -6 25 -4
22 15 -4 28 -16 32 -47 16z"/>
<path d="M7375 11206 c-13 -13 -29 -42 -36 -64 -17 -57 10 -112 63 -129 40
-13 71 -8 65 11 -2 6 -21 14 -41 17 -45 7 -56 21 -56 72 0 31 7 45 31 68 17
16 28 33 24 39 -10 16 -24 12 -50 -14z"/>
<path d="M8581 11204 c-37 -46 -27 -105 22 -130 34 -18 102 -12 133 11 30 21
10 28 -46 15 -43 -10 -54 -10 -75 4 -14 9 -25 26 -25 37 0 29 18 59 35 59 8 0
15 7 15 15 0 24 -37 17 -59 -11z"/>
<path d="M7796 11198 c-7 -13 -18 -31 -23 -42 -9 -16 -11 -14 -17 18 -5 25
-12 36 -25 36 -28 0 -30 -8 -10 -48 11 -20 19 -49 19 -64 0 -46 26 -33 54 27
14 30 29 55 33 55 4 -1 20 -28 35 -61 17 -38 33 -59 40 -56 16 6 16 8 -21 90
-34 73 -59 86 -85 45z"/>
<path d="M8356 11178 c-19 -27 -21 -72 -3 -85 16 -14 46 -8 65 11 14 14 19 12
43 -17 22 -26 30 -30 40 -20 10 11 9 17 -9 33 -12 12 -22 32 -22 45 0 38 -20
41 -47 6 -25 -32 -53 -41 -53 -18 0 8 9 22 20 32 11 10 17 22 14 26 -9 16 -33
9 -48 -13z"/>
<path d="M7506 11140 c-27 -26 -28 -31 -17 -57 21 -52 94 -79 133 -50 34 27
23 89 -21 112 -25 12 -30 12 -34 1 -3 -9 5 -22 19 -31 17 -11 24 -24 22 -38
-4 -32 -48 -34 -76 -4 -19 20 -21 28 -12 51 5 15 14 24 20 21 5 -3 10 1 10 9
0 22 -11 19 -44 -14z"/>
<path d="M13537 10952 c-8 -12 5 -62 16 -62 7 0 7 -49 1 -152 -12 -210 -11
-331 1 -335 10 -3 36 320 35 444 l0 51 63 5 c34 3 101 7 148 8 51 3 92 9 102
17 11 9 17 10 22 2 4 -6 28 -11 53 -11 26 0 85 -1 131 -2 57 -1 86 2 88 10 5
15 -102 21 -297 16 -85 -2 -163 -4 -173 -4 -10 0 -15 -5 -11 -11 5 -7 2 -8 -6
-3 -8 5 -40 7 -72 6 -47 -2 -58 1 -58 13 0 16 -35 23 -43 8z"/>
<path d="M14156 10832 c-10 -17 -24 -228 -21 -322 3 -88 5 -95 25 -98 20 -3
21 0 16 40 -8 57 -10 136 -8 232 2 69 4 77 17 66 13 -11 34 -11 113 0 53 6
104 11 112 9 8 -2 15 3 15 11 0 22 -43 27 -115 13 -36 -7 -80 -12 -98 -13 -32
0 -33 2 -30 32 3 30 -14 50 -26 30z"/>
<path d="M9290 10743 c-71 -11 -112 -28 -136 -56 -23 -28 -33 -31 -83 -33 -89
-2 -153 -44 -222 -145 -49 -73 -60 -101 -61 -161 0 -34 6 -55 21 -75 l22 -27
-44 -11 c-78 -20 -132 -59 -161 -117 -28 -56 -34 -123 -13 -151 21 -29 168
-47 383 -47 l191 0 -3 -55 c-2 -43 0 -55 12 -55 21 0 17 -18 -7 -30 -17 -9
-23 -8 -33 6 -12 16 -14 16 -27 -2 -11 -14 -26 -19 -61 -18 -53 2 -73 -8 -65
-29 4 -10 14 -13 32 -9 32 6 47 -12 38 -46 -3 -15 1 -28 15 -40 11 -9 33 -49
50 -88 16 -39 43 -90 58 -114 28 -40 49 -77 64 -110 4 -8 13 -15 21 -15 20 0
48 -43 42 -65 -3 -12 3 -19 22 -24 35 -9 39 -4 28 31 -8 22 -5 35 11 63 11 19
26 40 34 45 7 6 29 46 48 89 18 44 47 100 63 125 16 25 31 53 33 60 2 8 12 24
23 35 11 12 26 37 33 56 28 73 32 68 -56 63 -50 -2 -83 0 -87 7 -4 7 -12 7
-26 -1 -26 -13 -28 -12 -30 36 -5 92 -22 84 184 86 100 1 202 2 225 2 38 -1
43 2 39 19 -5 18 0 19 92 17 103 -3 130 4 111 25 -7 10 -6 26 5 56 20 56 20
134 -1 154 -8 9 -26 19 -40 22 -23 6 -101 -2 -130 -13 -8 -3 -14 1 -14 11 0
25 -65 159 -85 176 -9 8 -33 14 -54 13 l-36 -2 0 59 c0 54 -4 63 -59 144 -69
100 -82 113 -133 132 -35 12 -173 17 -233 7z m235 -42 c53 -24 154 -168 162
-231 6 -39 3 -44 -36 -81 -24 -21 -41 -44 -39 -51 6 -16 48 -23 48 -8 0 15 62
40 99 40 28 0 33 -6 66 -75 19 -41 35 -81 35 -89 0 -8 -17 -28 -37 -45 -29
-24 -35 -33 -25 -43 9 -9 20 -5 50 19 48 38 149 62 187 45 20 -9 25 -19 25
-51 0 -39 -18 -92 -44 -124 -11 -15 -28 -18 -95 -16 -67 1 -85 -2 -102 -17
-19 -17 -42 -19 -208 -22 l-188 -3 -2 99 c-2 82 1 101 13 105 9 4 13 13 10 22
-4 9 -12 14 -20 11 -7 -3 -14 0 -16 5 -3 9 -93 -5 -205 -33 -39 -10 -57 -31
-34 -40 4 -1 11 -41 14 -87 l5 -83 -226 4 c-251 5 -304 15 -316 64 -7 28 16
89 45 121 34 36 113 65 144 53 14 -6 33 -10 41 -10 24 0 16 50 -17 102 -26 41
-31 55 -26 89 8 58 84 168 143 207 55 37 68 39 167 27 49 -6 57 -5 57 9 0 9
-4 16 -10 16 -20 0 -9 40 14 56 55 36 255 45 321 15z m-202 -558 c-13 -2 -23
-8 -23 -12 0 -4 -16 -5 -35 -3 -33 4 -47 -9 -25 -23 16 -10 12 -25 -6 -25 -11
0 -15 -6 -11 -19 2 -10 1 -25 -4 -32 -5 -9 -9 7 -9 43 0 52 2 58 23 63 36 8
71 12 92 12 16 0 16 -1 -2 -4z m-83 -178 c0 -8 -4 -15 -10 -15 -5 0 -7 7 -4
15 4 8 8 15 10 15 2 0 4 -7 4 -15z m19 -89 c8 -15 10 -30 4 -39 -12 -22 -29
-8 -36 31 -8 39 13 45 32 8z m121 -32 c0 -19 -4 -33 -8 -30 -8 5 -4 66 4 66 2
0 4 -16 4 -36z m-137 -84 c3 -11 1 -20 -4 -20 -5 0 -9 9 -9 20 0 11 2 20 4 20
2 0 6 -9 9 -20z m247 -19 c0 -18 -18 -21 -30 -6 -10 13 -9 15 9 15 11 0 21 -4
21 -9z m-334 -36 c-7 -18 -26 -20 -26 -2 0 18 24 41 28 27 2 -6 1 -17 -2 -25z
m404 -19 c0 -3 -4 -8 -10 -11 -5 -3 -10 -1 -10 4 0 6 5 11 10 11 6 0 10 -2 10
-4z m-350 -34 c0 -8 -1 -13 -3 -11 -1 2 -9 12 -16 22 -12 15 -12 17 3 11 9 -3
16 -13 16 -22z m128 -37 c-1 -14 -6 -25 -11 -25 -5 0 -6 7 -3 16 3 9 6 20 6
25 0 5 2 9 5 9 3 0 4 -11 3 -25z m145 -25 c-21 -24 -28 -19 -13 9 6 12 15 19
20 16 5 -3 2 -14 -7 -25z m-195 -155 c-3 -3 -9 2 -12 12 -6 14 -5 15 5 6 7 -7
10 -15 7 -18z m72 -25 c0 -5 -8 -10 -17 -10 -15 0 -16 2 -3 10 19 12 20 12 20
0z"/>
<path d="M14450 10708 c-1 -83 -18 -169 -37 -183 -16 -12 -16 -14 -2 -20 12
-5 16 -20 15 -68 -1 -83 11 -137 30 -137 13 0 14 8 9 42 -8 46 -9 118 -2 125
3 2 41 5 85 6 l80 2 6 -155 c8 -185 13 -257 20 -268 2 -4 1 -13 -3 -20 -10
-16 -320 -52 -453 -52 l-108 0 0 59 c0 54 -12 83 -27 67 -4 -3 -5 -33 -4 -65
2 -51 -1 -61 -19 -71 -24 -13 -16 -34 10 -27 12 3 20 -2 23 -14 7 -25 27 -24
27 1 0 19 7 20 108 20 59 0 199 11 312 25 113 14 220 25 238 25 22 0 32 5 32
15 0 12 -13 15 -55 15 -42 0 -53 3 -49 14 3 7 -2 56 -10 109 -9 56 -16 159
-16 242 0 122 -2 145 -15 145 -8 0 -15 -6 -15 -14 0 -21 -24 -26 -103 -25
l-72 2 58 10 c39 7 57 15 57 25 0 12 -10 14 -51 9 l-50 -6 7 104 c6 93 5 105
-10 105 -12 0 -16 -10 -16 -42z"/>
<path d="M13323 10386 c-138 -159 -196 -397 -129 -539 31 -63 143 -125 259
-142 26 -4 47 -3 47 1 0 11 -48 34 -72 34 -33 0 -123 40 -162 72 -53 43 -66
81 -66 185 1 136 59 280 153 375 34 35 41 58 17 58 -4 0 -26 -20 -47 -44z"/>
<path d="M13795 10400 c-33 -5 -106 -12 -162 -16 -82 -5 -103 -10 -103 -22 0
-13 16 -14 113 -8 194 13 182 13 179 -9 -12 -65 -8 -220 5 -247 15 -30 40 -34
35 -5 -2 11 10 17 50 22 29 3 108 15 175 26 68 10 168 22 223 25 76 5 100 10
100 21 0 19 -148 12 -325 -16 -262 -40 -251 -44 -240 98 3 53 9 99 12 104 3 5
32 6 63 3 55 -6 85 4 59 19 -17 11 -120 14 -184 5z"/>
<path d="M13531 9775 c-28 -95 -39 -118 -64 -138 -22 -17 -29 -29 -24 -41 8
-21 44 -13 67 15 15 18 115 69 136 69 21 0 104 41 104 51 0 22 -22 49 -50 64
-16 8 -49 33 -72 55 -24 22 -47 40 -53 40 -5 0 -25 -52 -44 -115z m63 56 c3
-5 -1 -14 -8 -20 -12 -10 -13 -8 -9 8 6 23 9 25 17 12z"/>
<path d="M14580 9778 c0 -7 31 -26 68 -43 37 -16 82 -43 101 -59 30 -27 33
-34 28 -74 -6 -52 -37 -88 -82 -98 l-31 -6 3 96 c3 77 1 96 -11 96 -10 0 -15
-21 -18 -90 -2 -49 -7 -92 -10 -95 -3 -3 -17 0 -32 6 -31 15 -46 5 -24 -17 19
-19 84 -29 131 -20 45 8 92 57 105 108 18 71 -16 116 -127 172 -74 38 -101 44
-101 24z"/>
<path d="M14135 9718 c-2 -7 -9 -32 -15 -55 -10 -42 -12 -43 -51 -43 -50 0
-49 -23 2 -30 31 -4 34 -9 37 -40 5 -57 22 -88 57 -104 41 -20 66 -20 91 -1
22 17 22 17 -35 19 -56 3 -81 31 -81 91 l0 43 46 7 c62 9 74 14 74 32 0 11 -7
14 -22 10 -93 -21 -91 -22 -85 9 4 16 9 39 13 52 5 16 2 22 -10 22 -9 0 -19
-6 -21 -12z"/>
<path d="M15074 9631 c-17 -10 -39 -35 -48 -56 -34 -71 4 -119 91 -113 64 4
61 22 -5 28 -77 8 -90 44 -36 100 21 21 27 23 44 12 17 -10 21 -10 26 3 7 17
-12 45 -30 45 -6 0 -25 -9 -42 -19z"/>
<path d="M15313 9634 c-41 -21 -43 -53 -7 -101 31 -40 26 -49 -15 -35 -17 6
-33 7 -35 3 -9 -14 9 -29 48 -40 70 -19 82 16 30 86 -30 39 -30 51 -2 62 17 6
26 4 35 -8 11 -15 12 -14 18 2 8 18 -10 47 -29 47 -6 0 -26 -8 -43 -16z"/>
<path d="M14329 9597 c-39 -32 -51 -62 -43 -105 9 -51 20 -62 65 -62 28 0 47
8 70 28 19 17 29 34 25 40 -11 18 -33 14 -39 -7 -6 -24 -64 -39 -80 -21 -9 10
-9 14 1 17 30 11 72 56 72 78 0 58 -26 70 -71 32z m31 -48 c-6 -10 -17 -19
-25 -19 -19 0 -19 9 1 31 21 23 38 14 24 -12z"/>
<path d="M14923 9593 c-4 -10 -15 -30 -26 -44 -38 -52 -2 -108 51 -79 33 19
39 54 18 104 -16 39 -33 46 -43 19z m27 -67 c0 -22 -26 -43 -38 -31 -8 8 16
55 28 55 5 0 10 -11 10 -24z"/>
<path d="M13716 9548 c-20 -34 -38 -96 -31 -108 15 -24 39 -5 40 32 2 52 20
70 61 62 38 -7 47 9 15 26 -33 17 -69 12 -85 -12z"/>
<path d="M13509 9520 c-23 -22 -46 -40 -51 -40 -12 0 -10 -14 6 -45 18 -35 33
-45 68 -45 36 0 58 9 58 25 0 10 -13 13 -42 12 -55 -3 -64 23 -15 41 50 18 71
45 57 71 -16 30 -34 26 -81 -19z"/>
<path d="M12909 9534 c-38 -24 -72 -79 -64 -103 8 -26 52 -48 83 -43 13 2 31
17 41 32 l17 29 17 -88 c9 -48 17 -105 17 -125 0 -37 0 -38 -32 -30 -18 5 -49
8 -68 9 -33 0 -35 -2 -34 -31 2 -37 36 -87 71 -103 31 -14 57 -1 75 39 7 17
21 30 30 30 10 0 18 7 18 15 0 8 -7 15 -15 15 -11 0 -15 13 -15 54 0 46 -29
213 -46 268 -14 46 -51 59 -95 32z m53 -40 c-8 -43 -27 -69 -52 -69 -39 0 -38
36 1 69 35 29 56 29 51 0z m10 -316 c30 -9 38 -16 36 -31 -2 -11 -11 -25 -21
-31 -15 -9 -23 -5 -48 22 -47 52 -39 62 33 40z"/>
<path d="M13138 9523 c-44 -50 -48 -84 -13 -118 18 -19 35 -25 68 -25 25 0 49
6 56 13 16 20 5 25 -42 20 -34 -4 -46 -1 -61 16 -16 18 -17 21 -3 16 10 -4 25
3 41 19 20 20 24 30 17 48 -10 29 -42 34 -63 11z m28 -40 c-10 -10 -19 5 -10
18 6 11 8 11 12 0 2 -7 1 -15 -2 -18z"/>
<path d="M13300 9514 c-33 -28 -63 -78 -53 -88 15 -15 34 -3 53 34 16 31 26
40 46 40 25 0 25 -1 18 -60 -5 -50 -4 -60 9 -60 11 0 17 16 22 62 7 57 5 63
-15 80 -30 24 -43 23 -80 -8z"/>
<path d="M13885 9505 c-47 -46 -18 -97 41 -75 24 10 30 8 49 -16 15 -18 24
-24 29 -16 4 7 4 17 0 23 -4 7 -7 25 -8 40 -1 16 -4 29 -8 29 -5 0 -17 9 -28
20 -26 26 -46 25 -75 -5z m65 -24 c0 -10 -24 -21 -46 -21 -8 0 -11 6 -8 15 6
16 54 21 54 6z"/>
<path d="M15078 9384 c-4 -3 7 -33 23 -68 16 -34 32 -83 35 -109 6 -45 6 -47
-17 -47 -71 -1 -139 -106 -97 -148 30 -30 117 7 138 59 35 85 -37 359 -82 313z
m54 -284 c-3 -30 -45 -70 -73 -70 -29 0 -24 37 11 72 36 35 66 34 62 -2z"/>
<path d="M8614 9373 c-6 -2 -9 -26 -6 -63 l4 -60 -28 -2 c-16 0 -41 0 -57 1
-17 1 -29 -4 -33 -13 -7 -19 4 -38 18 -30 5 4 29 8 53 10 l43 3 11 -61 c17
-98 62 -144 116 -120 36 17 32 36 -5 28 -39 -7 -67 19 -75 71 -3 21 -8 48 -11
59 -4 23 11 34 46 34 23 0 42 23 34 44 -7 19 -35 22 -31 4 1 -8 -10 -14 -25
-16 -28 -3 -28 -2 -28 52 0 54 -5 67 -26 59z"/>
<path d="M12095 9344 c-8 -20 -15 -44 -15 -53 0 -28 -16 -42 -60 -55 -55 -16
-68 -41 -19 -34 19 3 42 8 52 13 15 6 17 1 17 -44 0 -64 24 -126 60 -151 32
-23 70 -26 88 -8 21 21 13 29 -21 23 -29 -6 -37 -2 -60 24 -29 35 -40 77 -35
136 3 39 4 40 48 48 25 5 55 11 68 13 13 3 21 10 19 17 -5 13 -10 13 -82 3
l-48 -8 7 29 c17 66 18 83 7 83 -6 0 -18 -16 -26 -36z"/>
<path d="M9839 9330 c-37 -36 -32 -48 52 -136 67 -71 84 -105 68 -136 -9 -17
-18 -20 -60 -16 -66 7 -103 39 -96 85 7 42 -8 51 -29 17 -17 -24 -17 -28 0
-57 24 -44 61 -69 112 -75 61 -7 90 3 103 36 19 45 4 78 -70 158 -38 40 -69
81 -69 89 0 9 11 20 25 27 19 9 29 8 50 -6 14 -9 25 -21 25 -27 0 -6 5 -7 10
-4 20 12 10 45 -20 60 -43 22 -68 19 -101 -15z"/>
<path d="M11511 9232 c-1 -130 11 -219 34 -241 22 -22 28 -7 15 34 -17 51 -19
75 -20 208 -1 92 -4 117 -15 117 -10 0 -14 -25 -14 -118z"/>
<path d="M11297 9305 c-134 -50 -175 -170 -88 -257 27 -27 49 -38 81 -43 74
-11 210 18 188 40 -3 4 -44 1 -90 -6 -75 -10 -89 -10 -121 6 -56 26 -85 84
-66 133 9 23 65 95 71 91 2 -1 19 3 39 10 20 6 43 10 50 9 8 -2 14 4 14 12 0
20 -32 22 -78 5z"/>
<path d="M11633 9293 c-18 -6 -16 -33 1 -33 8 0 17 4 20 8 7 12 -7 30 -21 25z"/>
<path d="M13491 9235 c-21 -19 -33 -39 -37 -66 -6 -37 -9 -39 -41 -39 -27 0
-34 -4 -31 -17 2 -14 11 -17 39 -15 34 3 37 1 52 -40 10 -24 17 -49 17 -56 0
-15 -52 -42 -80 -42 -30 0 -20 -24 11 -28 14 -2 40 8 59 21 29 19 35 29 34 58
-1 18 -5 44 -9 57 -7 20 -4 22 29 22 20 0 36 4 36 10 0 14 -36 30 -62 27 -20
-2 -23 2 -21 33 1 22 9 41 23 52 30 24 38 23 42 -9 2 -14 9 -28 16 -31 10 -3
12 7 10 39 -3 39 -6 44 -29 47 -17 2 -37 -6 -58 -23z"/>
<path d="M10416 9234 c-12 -11 -16 -37 -16 -97 -1 -75 -2 -80 -16 -62 -8 11
-17 36 -20 56 -8 45 -18 64 -33 55 -21 -13 20 -140 49 -156 35 -19 50 12 50
100 0 43 5 82 10 85 6 3 28 7 50 7 27 0 40 5 40 14 0 20 -94 19 -114 -2z"/>
<path d="M10773 9220 c-53 -32 -77 -96 -53 -141 14 -25 27 -24 41 2 8 17 8 27
-2 46 -13 23 -11 27 20 55 29 26 39 29 77 25 46 -4 53 0 32 21 -18 18 -79 14
-115 -8z"/>
<path d="M7987 9218 c-31 -24 -48 -83 -38 -129 10 -43 20 -55 56 -65 28 -7 75
12 75 31 0 18 -1 18 -34 5 -32 -12 -55 -4 -65 23 -7 18 0 25 41 46 53 27 60
49 28 81 -23 23 -39 25 -63 8z m28 -56 c-33 -17 -39 -12 -19 17 13 18 19 20
31 10 12 -11 11 -15 -12 -27z"/>
<path d="M8170 9205 c-24 -25 -33 -90 -17 -128 12 -30 27 -9 27 39 0 64 13 84
55 84 24 0 35 5 35 15 0 26 -72 19 -100 -10z"/>
<path d="M7383 9201 c4 -17 2 -18 -12 -9 -30 18 -74 -10 -91 -60 -14 -40 -13
-43 6 -63 20 -19 24 -19 55 -6 19 8 43 24 53 36 l19 21 17 -38 c9 -20 23 -61
30 -90 8 -28 16 -52 19 -52 3 0 6 -16 7 -35 1 -40 2 -39 -42 -23 -25 9 -39 9
-59 0 -21 -10 -25 -18 -25 -57 0 -77 44 -135 91 -120 12 4 31 28 43 55 17 37
26 46 37 39 20 -13 29 -11 29 6 0 8 -9 20 -20 27 -11 7 -20 22 -20 34 0 36
-39 175 -65 232 -14 30 -27 65 -29 78 -6 33 -15 44 -33 44 -10 0 -14 -6 -10
-19z m0 -64 c-28 -34 -46 -46 -66 -47 -14 0 -17 5 -11 23 10 33 23 45 52 49
39 5 46 -1 25 -25z m75 -292 c28 -8 29 -39 2 -82 -22 -37 -41 -35 -59 3 -12
28 -15 77 -4 87 4 4 14 5 22 3 9 -2 26 -7 39 -11z"/>
<path d="M7587 9198 c-30 -30 -44 -99 -28 -141 18 -46 86 -57 135 -22 22 17
13 35 -14 28 -11 -3 -18 -8 -16 -12 3 -4 -11 -5 -30 -3 -35 4 -71 42 -40 42
18 0 56 47 56 70 0 10 -8 28 -19 41 l-18 23 -26 -26z m33 -37 c0 -5 -6 -14
-14 -20 -10 -9 -15 -8 -19 3 -3 8 -1 17 6 20 19 7 27 7 27 -3z"/>
<path d="M7778 9213 c-9 -2 -22 -18 -29 -36 -7 -18 -18 -35 -24 -39 -6 -4 -9
-23 -7 -43 3 -27 9 -35 21 -33 8 2 17 12 19 23 10 56 24 95 35 95 20 0 49 -59
49 -99 -1 -41 11 -67 26 -57 16 10 4 105 -19 142 -23 38 -45 52 -71 47z"/>
<path d="M8372 9202 c-35 -31 -47 -77 -28 -107 20 -31 54 -32 89 -5 l26 20 3
-26 c3 -27 31 -54 44 -41 4 3 2 12 -4 20 -6 7 -12 44 -14 82 -3 77 -14 86 -34
28 -23 -66 -84 -99 -84 -45 0 29 26 62 49 62 17 0 8 24 -10 28 -8 1 -25 -6
-37 -16z"/>
<path d="M10061 9207 c-6 -8 -17 -30 -26 -50 -35 -83 31 -161 109 -131 28 11
17 24 -18 24 -18 0 -47 7 -62 15 -16 8 -23 15 -16 15 6 0 12 8 12 18 0 11 12
23 34 30 42 15 51 37 31 68 -17 26 -47 31 -64 11z m39 -31 c0 -8 -7 -16 -15
-20 -17 -6 -18 -4 -9 18 8 20 24 21 24 2z"/>
<path d="M15523 9213 c-55 -11 -54 -68 2 -102 41 -24 45 -52 11 -75 -31 -19
-54 -12 -62 21 -4 14 -12 23 -22 21 -25 -5 -25 -27 0 -37 12 -6 17 -10 9 -10
-24 -1 19 -41 44 -41 45 0 103 68 89 104 -3 8 -23 26 -45 41 -45 29 -43 41 7
51 19 3 33 11 31 18 -4 12 -30 16 -64 9z"/>
<path d="M8823 9158 c-49 -52 -58 -77 -43 -123 22 -66 124 -95 219 -62 45 15
56 43 15 33 -80 -18 -143 -19 -169 -2 -39 26 -50 58 -31 92 8 16 15 23 16 17
0 -20 55 -15 84 8 31 24 33 40 8 62 -29 27 -55 20 -99 -25z m77 -2 c0 -15 -21
-26 -47 -26 -14 0 -14 3 2 20 21 23 45 26 45 6z"/>
<path d="M11708 9188 c-26 -21 -45 -79 -37 -116 8 -40 35 -63 69 -59 33 3 34
32 1 32 -32 0 -50 28 -30 46 8 8 21 15 29 17 8 2 22 10 30 18 13 13 13 18 0
42 -18 31 -39 38 -62 20z m32 -38 c0 -11 -7 -20 -15 -20 -18 0 -19 12 -3 28
16 16 18 15 18 -8z"/>
<path d="M10517 9157 c-37 -42 -44 -74 -24 -106 18 -30 88 -62 95 -43 2 8 8 8
22 0 13 -9 27 -9 47 -2 44 15 24 28 -43 29 -47 0 -67 5 -83 19 -31 29 -26 43
20 49 56 7 76 28 61 62 -17 37 -59 34 -95 -8z m63 -7 c0 -5 -2 -10 -4 -10 -2
0 -12 -3 -20 -6 -12 -5 -15 -2 -10 10 7 17 34 22 34 6z"/>
<path d="M11879 9178 c-31 -26 -58 -75 -56 -104 4 -45 30 -37 40 13 4 23 14
47 22 53 13 11 15 7 15 -26 0 -43 33 -124 50 -124 13 0 13 26 -2 53 -6 12 -14
49 -17 82 -6 63 -21 78 -52 53z"/>
<path d="M15277 9170 c-32 -25 -67 -81 -67 -107 0 -29 33 -54 78 -60 46 -6 57
5 36 35 -17 25 -49 30 -41 8 4 -11 1 -13 -11 -9 -35 12 -33 16 19 42 57 28 70
51 49 90 -14 26 -30 26 -63 1z m43 -33 c0 -14 -49 -42 -57 -33 -6 6 35 46 47
46 6 0 10 -6 10 -13z"/>
<path d="M10228 9168 c-28 -21 -52 -174 -26 -166 12 4 20 31 33 110 4 28 11
37 28 40 12 2 22 8 22 13 0 15 -38 17 -57 3z"/>
<path d="M14605 9140 c-29 -55 -15 -113 32 -131 30 -11 63 -3 63 16 0 8 -13
15 -31 17 -41 4 -57 28 -43 65 11 33 43 42 60 18 15 -21 36 -11 27 13 -9 24
-23 32 -60 32 -26 0 -36 -6 -48 -30z"/>
<path d="M10956 9141 c-16 -3 -31 -12 -34 -20 -4 -12 7 -13 58 -8 69 8 75 10
65 26 -7 12 -42 13 -89 2z"/>
<path d="M13647 9118 c-50 -57 -49 -161 2 -129 9 6 11 15 6 27 -15 35 3 86 28
81 17 -3 20 40 4 46 -8 3 -25 -8 -40 -25z"/>
<path d="M14833 9130 c-18 -8 -21 -14 -16 -52 3 -24 10 -49 16 -55 22 -29 137
-2 137 32 0 8 -14 30 -31 50 -32 36 -61 43 -106 25z m91 -53 c14 -22 -5 -37
-46 -37 -28 0 -34 12 -22 45 8 21 53 16 68 -8z"/>
<path d="M13980 9088 c-27 -29 -40 -52 -40 -71 0 -39 30 -32 44 10 16 45 26
51 26 14 0 -51 27 -52 71 0 l37 44 4 -35 c2 -28 8 -36 27 -38 13 -2 28 2 32
10 14 22 10 31 -11 25 -15 -4 -20 0 -20 13 0 58 -36 66 -81 18 l-30 -33 3 39
c4 55 -15 56 -62 4z"/>
<path d="M13791 9097 c-33 -16 -63 -60 -56 -79 11 -28 51 -39 92 -25 33 10 38
17 41 45 2 22 -3 41 -14 53 -20 22 -30 23 -63 6z m47 -53 c-2 -13 -13 -20 -36
-22 -28 -3 -33 0 -30 15 4 21 49 46 61 34 5 -5 7 -17 5 -27z"/>
<path d="M11606 9073 c-11 -11 -7 -38 10 -62 12 -16 19 -20 27 -12 8 8 8 14
-1 23 -7 7 -12 20 -12 29 0 20 -14 32 -24 22z"/>
<path d="M9065 8809 c-75 -39 -83 -73 -32 -124 19 -19 52 -38 76 -45 76 -20
91 -28 85 -45 -9 -22 -57 -45 -96 -45 -41 0 -78 24 -78 51 0 23 -25 26 -34 3
-15 -40 45 -84 116 -84 72 0 138 54 123 100 -4 14 -27 26 -75 41 -64 19 -120
55 -120 78 0 18 60 53 101 58 23 3 38 10 36 17 -6 19 -60 16 -102 -5z"/>
<path d="M9270 8810 c0 -10 8 -21 37 -54 7 -8 9 -17 5 -20 -3 -4 -5 -41 -3
-82 2 -66 1 -73 -14 -68 -13 6 -16 1 -13 -22 3 -26 7 -29 46 -32 51 -4 95 20
147 81 27 31 35 50 35 78 0 46 -24 65 -128 103 -78 28 -112 33 -112 16z m175
-76 c27 -13 35 -22 35 -43 0 -32 -50 -93 -95 -116 -29 -15 -30 -14 -36 13 -4
15 -7 50 -9 77 -1 28 -5 59 -9 70 -19 48 12 48 114 -1z"/>
<path d="M9683 8760 l-73 -60 0 30 c0 39 -16 70 -37 70 -12 0 -13 -5 -7 -22 4
-13 7 -66 5 -118 -2 -95 9 -150 30 -150 8 0 9 18 4 59 l-7 58 36 6 c44 7 129
-14 156 -38 11 -10 25 -36 32 -57 13 -44 34 -45 31 -2 -5 63 -64 111 -156 127
l-66 11 47 43 c26 24 59 50 75 58 27 16 37 45 15 45 -7 0 -46 -27 -85 -60z"/>
<path d="M14098 8298 c4 -302 0 -368 -24 -368 -8 0 -14 7 -14 15 0 19 -34 20
-49 1 -6 -7 -41 -17 -76 -21 -36 -3 -65 -11 -65 -16 0 -6 11 -25 24 -42 18
-23 23 -40 19 -60 -5 -27 -4 -29 23 -25 27 3 31 -2 71 -82 23 -47 40 -93 38
-103 -5 -23 17 -32 45 -17 18 10 21 17 16 45 -6 28 -3 36 14 45 13 7 19 18 16
28 -3 9 5 29 17 43 99 117 101 120 86 130 -12 8 -10 13 9 28 18 16 29 18 54
10 37 -10 68 -3 68 15 0 15 -88 27 -162 21 -90 -7 -83 -30 -80 282 1 153 0
284 -4 292 -4 9 -6 26 -5 39 2 13 -3 22 -11 22 -11 0 -12 -53 -10 -282z m92
-403 c-7 -9 -15 -13 -17 -11 -7 7 7 26 19 26 6 0 6 -6 -2 -15z m-172 -25 c-33
-32 -44 -38 -32 -17 15 26 38 47 50 47 8 0 0 -13 -18 -30z m72 -30 c0 -5 -8
-10 -17 -10 -15 0 -16 2 -3 10 19 12 20 12 20 0z"/>
<path d="M14645 7300 c-6 -10 38 -74 70 -100 22 -19 18 -54 -15 -131 -30 -68
-32 -105 -8 -136 6 -8 2 -13 -12 -18 -35 -11 -42 -48 -20 -106 25 -63 25 -115
0 -156 -25 -42 -52 -55 -108 -52 -36 3 -47 0 -47 -11 0 -11 14 -16 52 -18 63
-4 103 15 131 60 32 54 35 89 13 156 -32 93 -29 99 35 106 39 4 41 27 4 48
-38 22 -39 55 -4 132 36 79 34 107 -9 156 -21 22 -37 44 -37 50 0 15 -38 32
-45 20z"/>
<path d="M13675 7262 c-34 -4 -61 -25 -81 -63 -16 -32 -9 -122 12 -156 35 -56
4 -133 -53 -133 -16 0 -34 -4 -42 -9 -20 -13 -4 -31 28 -31 50 0 56 -18 38
-128 -24 -152 -11 -188 65 -179 79 9 158 51 158 84 0 19 -23 16 -36 -5 -14
-22 -125 -58 -150 -48 -17 7 -17 35 2 207 5 44 3 59 -10 72 -15 14 -15 16 3
22 44 14 57 108 23 172 -17 31 -15 110 4 138 13 20 25 25 55 25 27 0 39 4 39
14 0 17 -16 23 -55 18z"/>
<path d="M14432 7124 c2 -11 11 -20 22 -22 13 -3 17 1 14 14 -2 11 -11 20 -22
22 -13 3 -17 -1 -14 -14z"/>
<path d="M13954 7086 c-4 -15 -1 -32 6 -41 15 -18 29 -11 28 13 0 9 1 23 3 31
2 8 -4 17 -13 19 -12 2 -19 -5 -24 -22z"/>
<path d="M14243 7033 c-22 -8 -14 -33 10 -33 30 0 40 10 26 27 -12 14 -16 15
-36 6z"/>
<path d="M14054 7008 c-8 -12 15 -29 34 -25 20 3 16 20 -7 29 -12 4 -23 3 -27
-4z"/>
<path d="M14440 6981 c0 -15 6 -21 21 -21 25 0 22 33 -4 38 -12 2 -17 -3 -17
-17z"/>
<path d="M13967 6924 c-22 -30 -17 -39 18 -30 18 5 25 13 25 31 0 32 -20 31
-43 -1z"/>
<path d="M15796 6229 c-3 -17 -6 -44 -6 -60 0 -21 -5 -29 -17 -30 -82 -4 -153
-19 -153 -33 0 -22 9 -23 62 -9 29 7 62 13 74 13 l21 0 -18 -88 c-19 -89 -15
-142 10 -150 8 -3 11 8 10 35 -2 40 6 103 22 165 8 32 15 38 44 44 20 3 38 10
41 15 7 11 -42 23 -57 13 -9 -5 -11 7 -6 54 5 49 4 62 -7 62 -7 0 -16 -14 -20
-31z"/>
<path d="M15138 6213 c-6 -16 -11 -63 -10 -106 l2 -77 -28 6 c-15 4 -40 13
-55 21 -16 8 -32 12 -35 8 -14 -13 18 -41 60 -53 40 -11 46 -16 51 -45 2 -17
2 -34 -2 -37 -17 -14 -30 -49 -20 -56 19 -11 41 22 46 70 5 40 9 46 29 46 15
0 24 6 24 15 0 8 -9 15 -19 15 -17 0 -20 9 -23 67 -1 37 2 83 9 102 18 54 -8
75 -29 24z"/>
<path d="M13565 6208 c-3 -8 -1 -26 4 -40 5 -14 7 -44 4 -67 -5 -39 -7 -41
-39 -41 -24 0 -34 -5 -34 -15 0 -10 10 -15 34 -15 l34 0 -10 -42 c-19 -87 16
-168 73 -168 17 0 53 10 80 21 42 19 49 25 49 50 0 19 -5 29 -15 29 -8 0 -15
-9 -15 -19 0 -20 -61 -51 -100 -51 -26 0 -42 34 -42 90 0 74 8 90 46 90 19 0
39 7 46 15 11 13 6 15 -35 15 l-47 0 6 38 c3 20 2 55 -2 76 -7 40 -28 59 -37
34z"/>
<path d="M12833 6080 c-12 -5 -36 -28 -53 -51 -34 -48 -39 -97 -12 -121 33
-30 152 -51 152 -27 0 5 5 7 10 4 6 -3 10 -1 10 5 0 6 -6 10 -12 8 -22 -4
-110 13 -129 25 -28 17 -23 52 12 92 34 39 55 44 75 18 12 -17 13 -17 20 1 5
14 1 24 -15 38 -26 20 -27 20 -58 8z"/>
<path d="M15276 6067 c-29 -29 -52 -128 -36 -157 15 -28 28 -17 28 22 -1 18 4
52 11 76 11 40 14 43 43 40 42 -4 47 17 8 31 -27 9 -34 8 -54 -12z"/>
<path d="M15551 6019 c-35 -48 -38 -65 -15 -97 22 -31 58 -44 90 -32 37 15 25
35 -19 32 -28 -3 -38 1 -47 17 -14 27 10 76 41 84 24 6 21 30 -4 35 -9 2 -28
-14 -46 -39z"/>
<path d="M13852 6025 c-32 -40 -37 -80 -15 -118 36 -61 144 -89 193 -49 32 26
18 49 -16 28 -46 -31 -131 -8 -153 41 -13 29 -14 29 31 51 24 13 33 24 33 42
0 37 -46 40 -73 5z"/>
<path d="M15362 6017 c-35 -36 -42 -76 -17 -97 14 -12 30 -11 67 5 13 5 17 0
20 -27 2 -23 9 -34 22 -36 14 -3 17 0 12 13 -3 9 -6 43 -6 76 0 68 -14 76 -45
26 -21 -34 -55 -49 -55 -24 0 21 39 67 57 67 8 0 13 6 11 13 -8 23 -34 17 -66
-16z"/>
<path d="M14485 6009 c-81 -71 -57 -180 41 -183 50 -1 55 20 7 29 -50 9 -63
21 -63 60 0 48 33 85 77 85 41 0 41 20 -1 31 -22 6 -33 2 -61 -22z"/>
<path d="M13018 6019 c-10 -5 -18 -20 -18 -32 0 -27 36 -107 48 -107 19 0 19
13 1 56 -23 51 -19 64 21 64 22 0 28 4 24 15 -7 17 -50 19 -76 4z"/>
<path d="M13178 6013 c-71 -81 -37 -157 66 -151 64 4 63 21 -1 28 -82 9 -97
31 -31 46 53 12 67 33 45 68 -20 30 -57 34 -79 9z m52 -27 c0 -8 -7 -17 -16
-20 -28 -11 -35 -7 -24 14 12 23 40 27 40 6z"/>
<path d="M14921 6006 c-13 -14 -29 -22 -37 -19 -9 3 -14 -2 -14 -16 0 -12 -7
-35 -15 -50 -8 -16 -11 -31 -8 -35 15 -14 34 -4 48 27 39 79 54 95 76 81 15
-9 10 -61 -6 -68 -19 -7 -19 -23 -1 -42 21 -20 33 -17 40 9 27 101 -26 174
-83 113z"/>
<path d="M13372 6000 c-28 -26 -30 -90 -4 -113 22 -20 63 -22 81 -4 10 10 16
7 30 -12 10 -13 21 -19 24 -14 8 13 -31 122 -51 146 -20 23 -53 22 -80 -3z
m61 -28 c13 -15 14 -22 4 -42 -18 -35 -51 -33 -55 3 -3 27 12 57 28 57 4 0 14
-8 23 -18z"/>
<path d="M14676 5986 c-38 -36 -45 -66 -24 -111 29 -65 138 -25 138 51 0 8 -9
33 -20 54 -25 50 -47 51 -94 6z m69 -26 c20 -38 12 -67 -22 -83 -21 -9 -27 -8
-39 8 -20 28 -17 45 13 77 15 15 28 28 30 28 1 0 10 -14 18 -30z"/>
<path d="M12511 5788 c-4 -12 -5 -36 -1 -53 5 -16 16 -61 25 -100 19 -79 16
-172 -6 -186 -35 -22 -99 -2 -99 32 0 29 18 59 35 59 8 0 15 9 15 20 0 32 -37
25 -60 -12 -29 -47 -26 -92 6 -117 26 -21 76 -27 109 -15 47 18 58 121 25 249
-25 98 -25 111 1 118 27 7 15 27 -17 27 -16 0 -27 -7 -33 -22z"/>
<path d="M14748 5763 c-3 -4 -5 -48 -7 -98 -1 -49 -4 -91 -7 -94 -2 -2 -24 -3
-49 -3 -34 2 -45 -1 -45 -13 0 -11 12 -15 51 -15 l50 0 -2 -57 c-2 -35 1 -58
8 -60 17 -6 22 9 24 66 2 49 3 51 36 57 24 5 33 11 31 23 -4 17 -20 19 -52 6
-17 -8 -18 -3 -15 90 3 68 0 99 -8 102 -6 2 -13 0 -15 -4z"/>
<path d="M13157 5744 c-3 -4 -3 -51 0 -105 l6 -99 -24 0 c-38 0 -89 -36 -89
-62 1 -47 52 -84 95 -68 45 17 56 63 47 196 -4 64 -4 118 0 120 5 3 6 10 3 15
-7 10 -29 12 -38 3z m1 -257 c8 -40 -43 -63 -69 -31 -11 14 -10 19 10 36 28
22 54 20 59 -5z"/>
<path d="M15207 5733 c-4 -7 -6 -35 -11 -121 -1 -21 -5 -23 -51 -21 -38 2 -50
0 -50 -11 0 -11 15 -16 52 -18 l52 -3 3 -66 c2 -42 8 -68 16 -71 9 -3 12 15
12 67 l0 70 40 3 c53 4 56 22 5 26 -27 2 -45 9 -53 22 -7 12 -8 20 -2 20 5 0
10 25 10 55 0 48 -10 70 -23 48z"/>
<path d="M15432 5674 c4 -21 22 -23 26 -1 2 10 -3 17 -13 17 -10 0 -15 -6 -13
-16z"/>
<path d="M15684 5595 c4 -14 0 -57 -9 -97 -18 -89 -18 -88 -2 -88 13 0 80 122
80 145 0 6 11 12 24 13 19 1 23 -3 23 -29 0 -49 21 -119 36 -119 17 0 17 4 0
99 -17 95 -34 108 -84 66 l-30 -25 -6 30 c-3 19 -12 30 -22 30 -12 0 -15 -6
-10 -25z"/>
<path d="M12125 5580 c-29 -12 -62 -50 -80 -94 -15 -34 -15 -40 0 -62 14 -22
22 -24 79 -22 l64 2 7 50 c11 71 7 98 -17 119 -22 19 -25 19 -53 7z m36 -80
c-4 -50 -22 -69 -63 -70 -22 0 -28 5 -28 21 0 44 44 101 74 97 18 -3 21 -9 17
-48z"/>
<path d="M15510 5571 c-44 -23 -65 -59 -56 -94 8 -32 71 -77 108 -77 55 0 72
74 32 137 -8 12 -14 29 -14 38 0 20 -28 19 -70 -4z m72 -101 c3 -29 -1 -35
-18 -38 -24 -3 -84 42 -84 63 0 8 12 23 27 35 l27 21 23 -23 c13 -13 24 -38
25 -58z"/>
<path d="M13271 5549 c-33 -32 -41 -75 -19 -97 17 -17 79 -15 106 4 29 20 28
55 -4 93 -32 39 -45 39 -83 0z m75 -41 c7 -23 -9 -38 -43 -38 -30 0 -38 17
-19 45 18 28 52 24 62 -7z"/>
<path d="M14420 5541 c-25 -24 -40 -47 -38 -57 6 -30 25 -26 46 11 12 19 33
41 48 47 23 11 28 10 40 -7 8 -10 14 -39 14 -63 0 -31 4 -42 13 -39 17 6 16
110 -2 131 -25 30 -76 20 -121 -23z"/>
<path d="M13936 5561 c-4 -6 -13 -8 -21 -5 -17 7 -32 -21 -36 -70 -6 -56 15
-56 43 0 l23 47 3 -44 c2 -24 7 -48 12 -53 5 -5 27 7 51 28 l43 36 12 -36 c15
-43 28 -59 43 -50 7 5 6 17 -4 39 -8 18 -19 51 -25 75 -12 46 -34 56 -45 20
-4 -13 -17 -34 -29 -46 l-21 -24 -5 43 c-3 30 -10 45 -22 47 -9 2 -19 -1 -22
-7z"/>
<path d="M14198 5550 c-9 -6 -27 -29 -40 -53 -21 -38 -22 -45 -10 -70 21 -43
53 -58 117 -56 31 1 64 9 73 17 15 12 15 13 0 9 -9 -3 -19 -3 -22 1 -4 3 -26
5 -51 3 -42 -2 -85 11 -85 27 0 5 22 18 49 30 57 24 72 53 45 83 -19 21 -49
24 -76 9z m47 -40 c0 -7 -15 -20 -33 -27 -27 -11 -32 -11 -26 -1 25 44 59 60
59 28z"/>
<path d="M12290 5535 c-7 -8 -21 -15 -31 -15 -11 0 -25 -13 -34 -31 -29 -55 6
-84 37 -31 9 15 26 36 37 46 l21 19 0 -56 c0 -45 3 -57 15 -57 13 0 15 12 13
68 -3 59 -5 67 -24 70 -11 2 -27 -4 -34 -13z"/>
<path d="M13464 5540 c-34 -14 -55 -49 -43 -72 20 -37 130 -62 183 -42 29 11
6 24 -43 24 -105 0 -150 45 -63 64 47 11 58 36 15 35 -16 0 -38 -4 -49 -9z"/>
<path d="M13764 5517 c5 -26 2 -39 -10 -52 -28 -28 -92 -1 -79 33 3 6 8 19 11
27 9 23 -23 19 -36 -4 -25 -47 1 -88 61 -97 26 -4 41 0 62 16 24 19 28 28 25
64 -2 31 -8 42 -22 44 -16 4 -18 0 -12 -31z"/>
<path d="M15395 5537 c-9 -22 9 -110 23 -115 10 -3 12 11 10 59 -3 60 -21 90
-33 56z"/>
<path d="M14894 5506 c-37 -37 -43 -66 -18 -90 21 -22 56 -20 88 5 25 19 26
20 26 2 0 -27 25 -59 34 -45 7 12 -9 121 -20 131 -4 3 -11 -3 -18 -13 -32 -57
-82 -82 -93 -49 -6 17 45 63 68 63 11 0 19 7 19 15 0 28 -50 17 -86 -19z"/>
</g>
</svg>
