<?xml version="1.0" standalone="no"?>
<!DOCTYPE svg PUBLIC "-//W3C//DTD SVG 20010904//EN"
 "http://www.w3.org/TR/2001/REC-SVG-20010904/DTD/svg10.dtd">
<svg version="1.0" xmlns="http://www.w3.org/2000/svg"
 width="1618.000000pt" height="1214.000000pt" viewBox="0 0 1618.000000 1214.000000"
 preserveAspectRatio="xMidYMid meet">

<g transform="translate(0.000000,1214.000000) scale(0.100000,-0.100000)"
fill="#000000" stroke="none">
<path d="M4800 11732 c0 -4 -13 -7 -29 -4 -40 6 -99 -15 -112 -39 -15 -29 3
-79 58 -162 109 -161 123 -273 32 -250 -59 15 -99 64 -99 123 0 18 -6 33 -15
36 -8 4 -15 12 -15 20 0 16 -26 19 -35 4 -7 -12 13 -42 24 -36 4 3 8 -11 9
-31 4 -48 25 -87 66 -118 77 -58 156 -34 156 48 0 49 -38 135 -99 225 -48 70
-65 116 -48 130 20 16 57 24 83 18 19 -5 24 -13 24 -36 0 -41 20 -81 39 -78
21 4 26 60 9 90 -7 13 -13 32 -13 43 0 11 -8 21 -17 23 -10 2 -18 -1 -18 -6z"/>
<path d="M2187 11712 c-9 -10 -31 -47 -48 -83 -18 -35 -58 -107 -90 -159 -32
-52 -59 -102 -61 -110 -2 -8 -9 -21 -15 -28 -7 -7 -13 -20 -13 -27 0 -8 -10
-21 -22 -29 -17 -12 -19 -19 -11 -27 20 -20 40 -2 72 64 16 36 49 96 72 134
23 37 60 102 82 143 30 57 38 67 33 41 -3 -18 -6 -73 -6 -122 l0 -88 -55 -11
c-55 -11 -71 -22 -60 -39 3 -6 22 -4 47 5 64 22 68 20 68 -33 0 -69 11 -123
24 -123 8 0 11 57 11 198 0 108 2 221 5 251 5 59 -6 73 -33 43z"/>
<path d="M3156 11711 c-3 -5 -5 -76 -4 -158 3 -137 1 -151 -20 -195 -35 -70
-81 -75 -82 -9 0 15 15 38 41 63 44 42 45 54 5 44 -33 -8 -76 -72 -76 -111 0
-76 69 -102 113 -42 46 63 52 92 50 257 -1 141 -8 182 -27 151z"/>
<path d="M12585 11702 c-6 -4 -21 -40 -35 -81 -34 -101 -39 -107 -80 -93 -57
20 -75 15 -125 -39 -47 -50 -47 -51 -43 -107 4 -49 9 -60 41 -87 l36 -31 -21
-35 c-42 -68 -78 -148 -78 -174 0 -40 20 -25 39 30 10 28 35 78 55 113 35 58
39 62 73 62 84 0 163 70 163 144 0 30 -7 45 -34 72 l-34 34 23 60 c13 33 24
62 23 63 0 1 6 14 13 30 13 28 3 53 -16 39z m-122 -214 c24 1 28 -2 21 -16 -4
-9 -7 -25 -8 -34 0 -9 -3 -15 -6 -13 -3 2 -21 -25 -39 -61 -18 -35 -39 -64
-46 -64 -23 0 -47 39 -52 84 -5 42 -3 48 31 82 26 26 41 34 54 28 9 -4 30 -7
45 -6z m107 -48 c26 -49 -2 -105 -70 -140 -35 -18 -70 -18 -70 -1 0 4 7 17 16
29 9 13 13 30 10 38 -3 8 -1 12 4 9 5 -3 22 19 37 49 23 47 29 53 45 45 9 -5
22 -18 28 -29z"/>
<path d="M8670 11618 c-29 -118 -29 -119 -58 -115 -14 2 -44 0 -66 -4 -32 -6
-43 -4 -52 9 -12 16 -13 16 -20 -2 -4 -11 -2 -21 5 -26 10 -5 9 -9 -3 -13 -12
-5 -16 -20 -16 -62 0 -63 11 -90 47 -121 l25 -22 -26 -57 c-29 -65 -34 -105
-11 -105 8 0 15 8 15 18 0 9 12 45 26 79 22 51 32 64 59 73 33 11 74 49 94 87
16 30 14 69 -5 105 -13 26 -14 38 -5 70 7 21 9 42 6 47 -3 5 0 11 5 13 15 5
17 60 3 65 -7 3 -16 -13 -23 -39z m-56 -170 c-15 -50 -63 -148 -73 -148 -23 0
-51 54 -51 100 0 55 17 68 88 69 40 1 43 -1 36 -21z m56 -36 c0 -33 -32 -87
-59 -102 -26 -13 -26 -14 0 46 11 27 24 59 30 72 12 29 29 19 29 -16z"/>
<path d="M6737 11644 c-3 -4 -1 -16 5 -27 7 -13 8 -48 4 -96 -19 -213 -19
-251 -2 -251 9 0 16 7 16 15 0 8 3 15 8 15 4 0 18 20 30 44 13 24 35 55 49 68
24 21 25 21 20 3 -3 -11 -8 -45 -11 -75 -7 -62 10 -98 40 -86 16 6 16 8 -1 26
-15 17 -16 26 -5 89 6 39 9 75 5 81 -17 28 -67 -6 -120 -80 l-17 -25 6 45 c17
130 19 200 5 200 -10 0 -11 2 -2 8 15 9 5 52 -11 52 -7 0 -16 -3 -19 -6z"/>
<path d="M7302 11620 c-24 -20 -21 -46 5 -36 12 5 13 -6 8 -72 -7 -81 8 -205
25 -210 5 -2 10 -14 10 -28 0 -14 10 -30 26 -41 24 -15 29 -15 52 -2 33 18 72
75 72 105 0 27 -43 64 -75 64 -13 0 -33 -9 -46 -19 l-24 -19 -10 51 c-7 37 -7
72 1 122 8 45 9 76 3 87 -12 22 -18 22 -47 -2z m152 -266 c20 -20 20 -22 -4
-61 -14 -24 -27 -33 -46 -33 -22 0 -25 4 -23 28 2 15 0 32 -4 39 -4 7 2 18 15
27 28 20 42 20 62 0z"/>
<path d="M8826 11605 c-10 -27 -7 -135 4 -156 8 -15 7 -19 -5 -19 -11 0 -15
-12 -16 -52 0 -29 -1 -69 -2 -88 -2 -26 2 -36 16 -38 15 -3 17 6 18 65 2 87 7
207 11 257 3 40 -14 61 -26 31z"/>
<path d="M14671 11536 c-18 -39 -38 -67 -51 -71 -21 -7 -26 -20 -11 -29 5 -3
7 -20 5 -38 -1 -18 -3 -40 -4 -48 0 -13 -2 -13 -11 0 -9 13 -10 12 -5 -2 7
-22 -3 -50 -15 -42 -5 3 -9 -1 -9 -8 0 -8 -5 -7 -17 5 -9 9 -17 31 -17 50 0
46 39 122 70 136 26 11 28 31 6 39 -20 6 -80 -68 -98 -121 -14 -41 -14 -56 -5
-89 7 -21 19 -42 26 -45 14 -5 17 -53 3 -53 -3 0 -10 -10 -13 -22 -4 -13 -16
-42 -27 -65 -20 -43 -22 -100 -3 -96 6 1 13 17 16 35 3 18 11 44 19 58 7 14
13 26 12 27 -1 2 8 23 20 47 15 31 29 46 47 50 41 8 91 44 101 72 11 28 6 61
-17 116 -15 35 -14 39 6 78 23 44 26 66 12 75 -5 3 -23 -24 -40 -59z m9 -172
c0 -37 -4 -42 -40 -63 -46 -25 -45 -26 -25 23 8 20 22 53 30 73 13 30 18 35
25 23 5 -8 10 -33 10 -56z"/>
<path d="M8275 11564 c-13 -20 -14 -28 -5 -34 10 -6 10 -23 0 -77 -19 -106 0
-247 30 -217 7 7 7 28 -2 68 -8 44 -8 76 0 134 14 91 15 152 3 152 -5 0 -16
-12 -26 -26z"/>
<path d="M13268 11549 c-32 -22 -58 -46 -58 -54 0 -19 26 -20 37 -2 12 21 101
69 107 59 3 -5 -1 -31 -8 -56 -19 -61 -94 -148 -152 -176 -47 -23 -80 -61 -69
-80 12 -19 37 -10 83 31 l47 41 3 -28 c4 -32 28 -64 48 -64 24 0 64 23 64 37
0 15 -14 17 -39 4 -25 -14 -38 -1 -43 44 -4 35 0 46 33 87 50 63 75 131 63
166 -14 41 -49 38 -116 -9z"/>
<path d="M12715 11569 c-3 -8 -16 -74 -30 -147 -14 -74 -27 -137 -30 -142 -8
-13 15 -24 26 -13 16 16 62 294 50 306 -7 7 -12 6 -16 -4z"/>
<path d="M13662 11567 c-7 -8 -8 -18 -4 -22 4 -5 2 -5 -4 -2 -33 19 -114 -133
-114 -212 0 -75 71 -115 124 -69 45 39 13 75 -61 69 -29 -2 -33 1 -33 21 0 30
45 126 73 157 12 13 32 27 45 32 13 5 22 15 19 22 -6 18 -32 20 -45 4z m-12
-276 c0 -15 -30 -21 -51 -11 -27 15 -24 20 16 20 19 0 35 -4 35 -9z"/>
<path d="M14297 11520 c-26 -16 -52 -30 -57 -30 -6 0 -10 -7 -10 -15 0 -17 35
-21 45 -5 9 14 81 50 100 50 13 0 15 -6 10 -32 -9 -41 -110 -141 -170 -169
-55 -26 -103 -75 -88 -90 8 -8 26 0 67 30 30 23 58 41 61 41 3 0 11 -13 16
-30 6 -16 15 -30 21 -30 5 0 7 -4 3 -10 -8 -13 50 -41 69 -34 24 9 19 21 -14
33 -22 7 -36 22 -48 52 l-18 42 47 44 c132 123 106 242 -34 153z"/>
<path d="M6475 11521 c-66 -30 -93 -74 -80 -131 9 -42 40 -42 31 0 -9 50 9 80
64 103 28 11 50 27 50 34 0 18 -17 16 -65 -6z"/>
<path d="M15157 11508 c3 -17 -6 -33 -34 -60 l-38 -37 -29 26 c-23 20 -26 27
-15 34 8 5 20 7 27 4 19 -7 32 3 25 20 -6 18 -33 19 -68 3 -35 -16 -33 -51 5
-78 17 -12 30 -25 30 -30 0 -5 -14 -29 -31 -54 -20 -30 -29 -55 -27 -73 3 -24
8 -28 38 -31 64 -5 105 58 80 126 -12 33 -11 35 30 77 44 44 52 87 19 93 -12
2 -15 -3 -12 -20z m-71 -223 c-16 -25 -56 -35 -56 -15 0 6 12 29 27 53 l26 42
10 -28 c7 -21 5 -34 -7 -52z"/>
<path d="M6145 11496 c-49 -49 -38 -110 26 -143 25 -13 116 -17 143 -7 34 13
13 24 -46 24 -92 0 -156 40 -87 54 41 8 59 23 59 50 0 49 -55 62 -95 22z m60
-15 c6 -10 -25 -31 -46 -31 -8 0 -5 7 6 20 20 22 31 25 40 11z"/>
<path d="M14850 11501 c0 -21 -22 -98 -51 -179 -18 -52 -18 -79 2 -66 14 8 37
69 59 155 24 93 25 109 5 109 -8 0 -15 -8 -15 -19z"/>
<path d="M2646 11489 c-59 -46 -87 -165 -50 -217 26 -38 124 -23 124 19 0 11
-3 19 -7 17 -5 -2 -21 -10 -36 -18 -37 -18 -61 -4 -65 39 -3 23 1 31 13 31 23
0 82 61 91 94 7 28 -9 56 -31 56 -7 0 -24 -9 -39 -21z m35 -36 c-11 -21 -61
-70 -61 -60 0 23 36 77 52 77 15 0 17 -4 9 -17z"/>
<path d="M5027 11477 c-67 -29 -57 -51 15 -32 l27 7 -21 -62 c-18 -56 -19 -63
-5 -77 14 -14 20 -13 58 15 l42 32 19 -31 c43 -70 76 -45 79 60 2 63 0 75 -14
77 -20 3 -20 0 -17 -83 1 -35 -1 -63 -4 -63 -3 0 -13 18 -22 40 -19 47 -37 50
-76 13 -15 -14 -30 -24 -33 -21 -3 2 2 25 11 51 16 48 16 89 -1 93 -5 1 -31
-8 -58 -19z"/>
<path d="M5891 11465 c-36 -41 -39 -67 -11 -95 26 -26 36 -25 65 4 l24 24 20
-49 c12 -26 21 -60 21 -74 0 -14 3 -24 8 -22 4 3 5 -17 4 -43 -4 -47 -4 -48
-37 -48 -19 0 -38 -3 -44 -7 -14 -8 -14 -43 0 -86 34 -100 100 -91 104 13 1
35 6 53 16 56 29 10 39 43 11 35 -17 -4 -20 4 -26 67 -6 67 -60 220 -77 220
-4 0 -16 -16 -28 -35 -21 -36 -35 -43 -46 -25 -10 17 23 60 46 60 14 0 19 5
17 17 -6 30 -34 25 -67 -12z m131 -365 c3 -35 -9 -70 -25 -70 -8 0 -37 67 -37
85 0 12 17 21 46 24 7 0 14 -17 16 -39z"/>
<path d="M3313 11468 c-33 -37 -54 -87 -51 -121 2 -26 8 -33 29 -35 15 -2 32
5 43 17 19 21 19 20 35 -12 11 -23 24 -33 45 -35 40 -5 76 6 76 23 0 18 -23
32 -28 17 -5 -15 -44 -16 -59 -1 -7 7 -9 33 -6 70 4 42 2 59 -6 59 -7 0 -11 8
-9 18 5 27 -43 28 -69 0z m52 -28 c7 -12 -10 -47 -38 -77 -41 -46 -51 -15 -15
48 21 38 41 49 53 29z"/>
<path d="M5631 11462 c-25 -36 -28 -94 -5 -113 13 -11 23 -11 58 2 l43 15 11
-95 c17 -136 18 -131 -23 -131 -25 0 -44 -8 -62 -26 -22 -22 -25 -32 -20 -70
5 -51 30 -84 62 -84 43 0 86 78 87 159 1 50 -17 205 -33 289 -11 57 -30 65
-39 16 -5 -28 -45 -59 -62 -48 -24 15 7 79 39 79 29 0 21 30 -8 33 -20 2 -32
-4 -48 -26z m108 -361 c12 -8 12 -16 -3 -56 -29 -75 -63 -73 -73 4 -5 36 -3
42 18 50 31 12 41 13 58 2z"/>
<path d="M5351 11454 c-26 -33 -35 -66 -27 -99 8 -30 25 -32 60 -4 l26 20 0
-23 c0 -13 6 -32 13 -41 15 -21 68 -27 74 -9 3 7 -4 12 -15 12 -31 0 -45 25
-39 70 3 22 1 43 -5 46 -5 4 -27 -11 -49 -32 -32 -31 -39 -35 -39 -19 1 25 26
71 37 68 13 -4 9 30 -3 34 -7 2 -21 -8 -33 -23z"/>
<path d="M4008 11464 c-4 -3 -37 -9 -74 -12 -41 -4 -69 -12 -72 -20 -3 -10 14
-12 77 -8 82 4 125 21 99 37 -16 10 -23 11 -30 3z"/>
<path d="M2766 11414 c-10 -79 -8 -134 8 -134 7 0 30 27 50 60 21 33 41 60 46
60 6 0 9 -29 9 -64 -1 -67 5 -90 24 -83 6 2 9 31 8 77 -4 119 -26 138 -84 70
-31 -37 -35 -39 -40 -20 -3 11 -1 18 4 14 5 -3 9 11 9 30 0 55 -26 47 -34 -10z"/>
<path d="M7134 11449 c-4 -7 4 -20 17 -30 l24 -19 -26 -47 c-14 -27 -34 -49
-43 -51 -20 -4 -49 58 -44 97 3 30 -9 54 -23 46 -14 -9 -11 -78 5 -117 32 -75
75 -77 124 -4 37 56 40 88 12 116 -23 23 -36 25 -46 9z"/>
<path d="M2370 11439 c-52 -20 -86 -110 -61 -158 19 -35 101 -22 101 17 0 15
2 15 10 2 11 -17 13 -122 4 -157 -4 -15 -14 -23 -29 -23 -13 0 -33 -8 -45 -18
-51 -41 -10 -210 45 -188 20 7 41 57 50 117 6 42 8 45 37 45 43 -1 48 22 6 26
-32 3 -33 4 -30 46 2 24 -2 49 -8 57 -9 11 -9 15 -1 15 14 0 14 38 -3 131 -18
105 -21 109 -76 88z m36 -71 c-8 -50 -36 -84 -61 -74 -14 5 -16 14 -12 42 7
43 32 74 60 74 17 0 19 -5 13 -42z m10 -292 c7 -19 -19 -119 -32 -123 -24 -8
-35 121 -11 130 22 10 38 7 43 -7z"/>
<path d="M12777 11293 c-12 -11 -7 -33 7 -33 12 0 26 20 26 36 0 7 -26 5 -33
-3z"/>
<path d="M13840 11262 c0 -26 11 -34 27 -21 20 17 16 39 -7 39 -13 0 -20 -7
-20 -18z"/>
<path d="M4335 10850 c-5 -21 -13 -30 -26 -30 -50 0 -123 -55 -139 -106 -14
-42 3 -83 73 -178 78 -104 82 -112 55 -130 -39 -28 -142 -15 -189 23 l-23 18
22 19 c28 24 28 36 0 32 -12 -2 -29 -15 -37 -30 -15 -26 -14 -29 13 -57 64
-66 240 -68 261 -1 8 24 -4 46 -70 135 -64 86 -75 106 -75 140 0 39 16 63 60
85 51 26 52 26 45 -14 -8 -38 8 -76 30 -76 36 0 58 79 33 120 -10 16 -10 24 0
40 17 28 15 40 -7 40 -13 0 -21 -9 -26 -30z m11 -117 c-10 -26 -18 -8 -9 23 5
21 8 24 11 11 2 -10 1 -25 -2 -34z"/>
<path d="M6769 10813 c-6 -15 -8 -35 -6 -45 3 -10 2 -18 -3 -18 -4 0 -7 -11
-7 -24 0 -50 -36 -161 -57 -178 -12 -9 -24 -17 -28 -17 -41 -8 -134 -52 -136
-65 -5 -22 24 -21 37 2 6 9 11 12 11 5 0 -8 20 -3 56 13 31 14 58 23 61 21 2
-3 -3 -31 -11 -63 -22 -87 -24 -139 -6 -139 11 0 17 16 22 55 9 75 34 161 50
172 7 5 27 7 45 4 38 -5 46 1 32 26 -6 11 -17 17 -27 14 -9 -2 -27 -7 -39 -11
-20 -5 -21 -4 -13 22 26 82 32 113 27 126 -3 8 -2 18 3 23 14 15 24 104 11
104 -6 0 -16 -12 -22 -27z"/>
<path d="M1968 10765 c-3 -4 -4 -23 -2 -43 3 -20 1 -57 -3 -82 -8 -45 -9 -45
-56 -50 -63 -7 -61 -24 4 -28 42 -3 49 -5 39 -17 -7 -9 -9 -26 -6 -41 5 -17 3
-23 -4 -19 -6 4 -11 -11 -11 -39 -1 -25 -2 -52 -3 -58 -1 -7 6 -13 14 -13 11
0 17 17 22 65 10 97 15 130 19 134 2 2 24 8 48 13 62 12 70 38 9 29 l-45 -7 1
77 c1 70 -8 97 -26 79z"/>
<path d="M7705 10700 c-9 -15 4 -30 26 -30 22 0 24 11 7 28 -15 15 -25 15 -33
2z"/>
<path d="M7307 10673 c-10 -9 -8 -43 2 -43 5 0 14 7 21 15 17 21 -4 48 -23 28z"/>
<path d="M1468 10608 c-20 -18 -41 -42 -47 -53 -10 -17 -11 -15 -5 13 5 29 3
33 -13 30 -13 -2 -18 -12 -18 -36 0 -17 -2 -32 -5 -32 -3 0 -6 -10 -8 -23 -1
-13 -8 -42 -16 -65 -14 -40 -8 -61 13 -47 5 3 25 38 44 78 36 75 90 143 106
133 6 -4 2 -35 -10 -78 -25 -90 -22 -132 9 -136 24 -4 29 7 10 26 -9 9 -8 27
6 80 34 131 6 177 -66 110z"/>
<path d="M5694 10615 c-26 -17 -54 -74 -54 -107 0 -14 11 -35 25 -48 24 -22
28 -23 86 -12 68 12 78 17 62 33 -7 7 -24 6 -56 -2 -77 -19 -82 -7 -20 55 48
48 53 57 43 75 -13 25 -56 28 -86 6z m56 -22 c0 -10 -62 -73 -72 -73 -11 0 3
32 25 58 19 21 47 30 47 15z"/>
<path d="M1096 10589 c-32 -37 -30 -50 10 -61 24 -7 32 -4 47 14 24 29 19 72
-9 76 -14 2 -31 -8 -48 -29z"/>
<path d="M1680 10581 c-29 -42 -50 -95 -50 -130 0 -38 27 -54 74 -45 74 13
123 117 77 163 -11 11 -30 21 -41 21 -11 0 -20 5 -20 10 0 19 -19 10 -40 -19z
m82 -39 c19 -19 -2 -72 -35 -93 -61 -37 -82 -10 -49 64 17 39 23 44 47 41 15
-1 32 -7 37 -12z"/>
<path d="M2313 10590 c-43 -26 -42 -52 2 -87 38 -30 44 -53 20 -73 -12 -10
-21 -10 -45 0 -17 7 -34 9 -38 5 -11 -11 37 -45 65 -45 23 0 73 42 73 62 0 19
-21 48 -31 43 -5 -4 -8 -2 -7 3 2 5 -8 19 -22 30 l-25 20 32 19 c33 18 44 43
21 43 -7 0 -28 -9 -45 -20z"/>
<path d="M5920 10598 c-14 -7 -28 -17 -32 -23 -17 -23 -67 -187 -61 -201 9
-24 21 -16 33 24 7 20 18 46 24 57 7 11 18 39 25 63 14 50 31 60 77 43 29 -11
37 -10 50 4 10 10 13 20 7 26 -15 15 -96 20 -123 7z"/>
<path d="M2128 10580 c-15 -11 -36 -36 -48 -55 -26 -43 -21 -76 17 -111 42
-39 117 -27 78 13 -14 13 -18 14 -25 3 -7 -12 -12 -11 -29 4 l-20 19 22 27
c12 15 25 26 28 24 12 -7 40 47 37 69 -4 29 -29 32 -60 7z m47 -29 c3 -5 1
-12 -5 -16 -5 -3 -10 1 -10 9 0 18 6 21 15 7z m-25 -4 c0 -2 -12 -14 -26 -28
l-27 -24 18 28 c14 22 35 36 35 24z"/>
<path d="M5398 10558 c-21 -23 -28 -39 -26 -62 4 -38 32 -45 80 -22 25 13 33
14 39 4 27 -44 40 -232 16 -222 -7 2 -32 -9 -55 -25 -30 -22 -43 -40 -48 -65
-12 -65 25 -124 63 -100 9 6 30 37 47 70 27 51 31 71 33 149 1 50 -3 110 -8
135 -5 25 -12 63 -15 85 -9 63 -13 72 -25 55 -7 -12 -10 -11 -15 8 -9 33 -50
29 -86 -10z m68 -8 c8 0 14 -4 14 -9 0 -12 -29 -41 -40 -41 -5 0 -15 -3 -24
-6 -9 -3 -16 -1 -16 5 0 18 44 74 48 62 2 -6 10 -11 18 -11z m19 -404 c-15
-31 -30 -56 -35 -56 -14 0 -22 58 -11 79 6 11 23 29 38 41 39 31 42 7 8 -64z"/>
<path d="M3281 10510 c-7 -33 -19 -76 -27 -95 -28 -68 2 -68 55 -1 l31 39 -6
-31 c-13 -64 47 -104 107 -72 34 19 22 32 -25 25 -52 -8 -59 3 -47 69 11 60
-4 75 -40 40 l-27 -26 9 38 c12 55 11 74 -5 74 -8 0 -18 -22 -25 -60z"/>
<path d="M4521 10557 c-50 -17 -55 -42 -7 -33 21 4 45 10 54 13 11 5 4 -14
-22 -60 -51 -92 -37 -111 44 -57 l44 29 12 -29 c22 -50 58 -57 101 -18 18 17
21 30 21 84 -1 44 -5 64 -14 64 -17 0 -25 -30 -22 -79 4 -73 -46 -83 -64 -13
-10 37 -20 39 -56 14 -48 -33 -50 -32 -24 16 40 75 17 98 -67 69z"/>
<path d="M6921 10544 c-12 -15 -21 -32 -21 -38 0 -7 -5 -17 -12 -24 -14 -14
-40 -131 -32 -143 14 -24 32 -1 41 56 3 17 11 46 19 65 10 23 11 36 4 38 -5 2
-10 8 -10 13 0 4 6 6 14 3 7 -3 16 2 20 11 4 12 10 14 25 5 25 -13 38 4 21 25
-19 23 -46 18 -69 -11z"/>
<path d="M7804 10518 c-73 -69 -105 -128 -69 -128 8 0 22 14 31 31 21 42 93
119 110 119 15 0 17 -9 14 -82 -1 -36 2 -48 13 -48 20 0 31 95 14 129 -21 44
-50 38 -113 -21z"/>
<path d="M3076 10525 c-67 -68 -54 -145 24 -145 32 0 43 6 64 33 31 40 33 70
8 95 -10 10 -21 26 -25 35 -10 26 -34 20 -71 -18z m58 -39 c24 9 31 -22 12
-51 -30 -46 -97 -27 -79 23 11 32 25 43 38 32 7 -6 20 -8 29 -4z"/>
<path d="M4891 10521 c-22 -27 -31 -50 -31 -75 0 -34 2 -36 31 -36 17 0 39 5
50 10 16 9 19 7 19 -9 0 -25 41 -54 64 -45 24 9 20 21 -10 28 -25 7 -26 9 -20
56 5 40 4 50 -8 50 -8 0 -17 -8 -21 -18 -5 -18 -44 -42 -65 -42 -16 0 -11 34
9 58 11 12 24 22 31 22 14 0 9 32 -6 37 -7 2 -26 -14 -43 -36z"/>
<path d="M5136 10523 c-40 -31 -47 -41 -44 -67 3 -29 6 -31 46 -34 30 -2 50 3
72 18 l29 21 6 -33 c3 -18 5 -57 3 -87 -3 -52 -4 -54 -40 -67 -54 -19 -94 -51
-113 -94 -19 -42 -14 -71 18 -100 64 -61 167 24 167 138 0 23 6 45 15 52 13
11 13 14 1 24 -9 7 -16 44 -20 113 -3 56 -9 108 -12 117 -9 24 -31 19 -38 -9
-9 -35 -45 -65 -78 -65 -15 0 -28 4 -28 9 0 14 69 71 85 71 8 0 15 7 15 15 0
26 -35 17 -84 -22z m114 -302 c0 -96 -85 -169 -125 -107 -25 38 11 99 75 125
41 16 50 13 50 -18z"/>
<path d="M8106 10516 c-39 -47 -49 -99 -20 -110 30 -12 72 -6 96 14 l26 20 6
-31 c8 -40 8 -147 0 -176 -5 -19 -11 -22 -32 -16 -79 19 -121 -6 -129 -78 -3
-35 2 -56 24 -99 24 -48 32 -55 61 -58 30 -3 34 0 51 40 10 24 24 66 31 95
l13 52 29 -15 c38 -20 58 -7 27 17 -13 10 -29 19 -34 19 -7 0 -10 38 -8 103 2
110 -14 217 -31 217 -6 0 -20 -15 -30 -34 -24 -45 -86 -65 -86 -27 0 26 61 85
71 69 11 -18 34 6 26 26 -12 31 -54 18 -91 -28z m83 -335 c12 -8 12 -19 -3
-75 -10 -35 -24 -73 -32 -83 -13 -17 -15 -17 -38 9 -33 36 -43 101 -22 133 17
26 66 34 95 16z"/>
<path d="M7470 10533 c-8 -3 -25 -15 -37 -26 -20 -18 -23 -18 -23 -4 0 52 -51
-28 -66 -102 -9 -43 16 -41 40 3 22 41 83 102 93 93 3 -4 1 -29 -5 -57 -12
-54 -8 -80 14 -80 9 0 14 12 14 33 0 17 5 50 10 71 5 25 5 46 -1 58 -10 19
-14 20 -39 11z"/>
<path d="M7635 10518 c-13 -36 -32 -124 -28 -130 13 -23 30 -2 40 50 6 31 12
63 14 71 5 18 -20 27 -26 9z"/>
<path d="M7025 10483 c-41 -43 -53 -77 -35 -98 16 -19 40 -19 68 1 22 15 22
14 22 -21 0 -29 3 -36 18 -33 10 2 16 11 14 21 -2 9 2 34 7 54 14 51 0 61 -41
31 -37 -28 -68 -41 -68 -30 0 4 14 24 31 45 25 30 34 35 49 27 26 -14 39 9 15
27 -28 20 -41 16 -80 -24z"/>
<path d="M7226 10492 c-17 -28 -25 -116 -11 -120 6 -2 40 90 45 126 1 6 -29 1
-34 -6z"/>
<path d="M2880 9500 c-22 -22 -26 -40 -10 -40 14 0 70 42 70 52 0 16 -40 8
-60 -12z"/>
<path d="M2270 9445 c-11 -25 -21 -57 -22 -72 -2 -16 -6 -30 -9 -33 -4 -3 -31
-57 -60 -120 -30 -63 -64 -126 -76 -140 -25 -27 -28 -36 -14 -44 11 -7 61 54
89 110 19 37 26 42 68 49 26 3 53 9 60 12 11 4 14 -7 14 -46 0 -28 5 -51 10
-51 6 0 10 -5 10 -11 0 -5 -4 -8 -9 -5 -10 7 -26 -72 -17 -82 4 -3 12 0 19 7
8 8 12 43 12 99 0 84 1 87 24 92 33 7 39 30 8 30 -22 0 -25 5 -31 58 -4 31 -9
76 -12 100 -6 55 -20 92 -34 92 -6 0 -19 -20 -30 -45z m35 -42 c1 -16 4 -58 9
-95 l7 -66 -48 -10 c-26 -6 -49 -9 -51 -8 -4 4 75 206 80 206 2 0 3 -12 3 -27z"/>
<path d="M5621 9391 l-23 -100 -53 -11 c-30 -6 -70 -8 -89 -4 -28 5 -36 3 -36
-9 0 -20 49 -28 118 -20 51 6 55 5 48 -12 -14 -39 -29 -152 -22 -178 9 -39 48
-60 109 -60 55 0 105 19 91 33 -5 5 -27 5 -49 0 -47 -11 -110 3 -119 26 -10
25 -7 56 10 132 l16 71 41 7 c23 4 48 8 56 8 8 1 16 7 19 15 4 11 -7 13 -52 9
-31 -3 -56 -2 -56 1 0 3 11 45 23 93 13 48 22 90 19 93 -18 18 -31 -6 -51 -94z"/>
<path d="M3902 9383 c-29 -6 -23 -28 6 -27 117 4 122 4 122 19 0 12 -12 15
-52 14 -29 -1 -63 -4 -76 -6z"/>
<path d="M3806 9353 c-29 -12 -41 -13 -44 -5 -2 7 -9 12 -17 12 -11 0 -26 -61
-49 -190 -1 -8 -8 -40 -14 -70 -12 -56 -4 -120 14 -110 5 3 9 17 9 33 0 24 3
27 25 22 14 -3 59 -1 100 5 41 6 83 12 93 13 9 1 16 7 15 12 -3 11 -36 12
-150 2 -76 -6 -78 -5 -77 16 3 73 32 91 165 103 75 7 100 18 68 31 -19 7 -158
-9 -186 -21 -15 -7 -18 -3 -18 30 0 51 7 59 62 81 25 10 48 23 50 28 1 6 6 9
11 8 4 -2 7 2 7 7 0 14 -18 12 -64 -7z"/>
<path d="M2565 9325 c-37 -19 -82 -88 -102 -157 -8 -31 -17 -118 -20 -205 -6
-149 -5 -153 15 -153 21 0 28 20 37 116 6 66 21 104 40 104 24 0 96 71 116
115 21 46 25 95 7 95 -9 0 -9 3 1 9 27 17 -19 92 -56 91 -4 0 -21 -7 -38 -15z
m59 -37 c34 -48 13 -130 -48 -192 -54 -53 -65 -49 -68 32 -3 76 15 127 58 161
33 26 39 26 58 -1z m-145 -270 c-1 -18 -2 -19 -6 -5 -2 9 -9 15 -14 12 -5 -4
-9 -1 -9 4 0 6 7 11 15 11 9 0 15 -9 14 -22z"/>
<path d="M5286 9255 c-83 -29 -85 -59 -5 -106 25 -14 45 -34 47 -45 7 -49 -88
-78 -116 -36 -8 12 -18 22 -23 22 -16 0 -9 -36 9 -53 59 -53 163 -11 162 65
-1 32 -18 51 -70 78 l-45 23 30 12 c17 7 43 18 58 24 15 6 25 16 22 21 -8 13
-22 12 -69 -5z"/>
<path d="M2780 9201 c-27 -100 -6 -161 55 -161 39 0 91 38 83 61 -4 10 -9 7
-16 -11 -6 -14 -11 -20 -11 -13 -1 8 -8 8 -30 0 -45 -17 -65 5 -57 63 11 86
11 93 -1 97 -7 3 -16 -12 -23 -36z"/>
<path d="M1648 9209 c-9 -5 -15 -15 -12 -23 5 -14 -81 -36 -143 -36 -23 0 -33
-5 -33 -15 0 -20 75 -19 160 3 61 16 64 19 64 46 0 33 -11 40 -36 25z"/>
<path d="M4678 9175 c-44 -41 -38 -56 36 -99 36 -21 45 -31 35 -37 -29 -18
-119 -1 -119 23 0 4 -7 8 -15 8 -23 0 -18 -28 10 -46 55 -36 165 -25 165 17 0
18 -57 69 -77 69 -6 0 -16 6 -22 14 -10 11 -7 17 11 30 12 9 33 16 46 16 34 0
22 24 -14 28 -20 2 -37 -5 -56 -23z"/>
<path d="M4914 9187 c-6 -16 28 -97 57 -138 20 -28 20 -30 3 -62 -57 -110 -85
-171 -82 -185 4 -22 28 -27 28 -7 0 10 27 71 60 137 33 66 57 124 54 130 -4 6
-2 8 4 4 6 -3 14 4 18 16 3 13 15 35 25 50 22 31 24 48 6 48 -7 0 -26 -26 -42
-57 -17 -32 -31 -60 -32 -62 -2 -2 -11 3 -21 13 -16 14 -28 42 -48 114 -4 16
-23 16 -30 -1z"/>
<path d="M4147 9161 c-33 -40 -42 -92 -22 -132 19 -36 79 -66 99 -50 7 6 16 7
21 3 4 -4 6 0 3 8 -3 8 -13 16 -24 18 -51 8 -63 14 -70 35 -19 54 13 121 52
111 17 -4 24 -2 24 9 0 15 -20 27 -45 27 -7 0 -24 -13 -38 -29z"/>
<path d="M5892 9160 c-86 -53 -85 -153 2 -162 41 -4 46 20 6 28 -61 13 -54 76
12 110 36 19 67 12 48 -10 -6 -8 -25 -18 -41 -21 -41 -9 -40 -40 1 -32 39 8
80 36 80 54 0 53 -50 68 -108 33z"/>
<path d="M6102 9118 c-6 -35 -14 -75 -18 -90 -11 -47 18 -33 51 25 27 46 30
49 33 27 6 -50 9 -53 43 -33 17 10 39 27 48 38 9 11 26 28 38 38 21 18 21 18
16 -27 -11 -93 42 -140 115 -102 59 30 55 61 -4 32 -66 -31 -87 -8 -82 94 4
68 -12 72 -69 20 -21 -19 -47 -42 -57 -50 -18 -14 -19 -13 -13 22 8 52 -13 68
-42 32 l-21 -27 0 32 c0 56 -25 35 -38 -31z"/>
<path d="M4355 9127 c-18 -27 -22 -69 -11 -104 17 -53 128 -45 142 11 14 57
-17 99 -83 112 -26 5 -34 2 -48 -19z m96 -43 c18 -18 18 -21 3 -42 -12 -17
-24 -22 -47 -20 -28 3 -32 7 -38 40 -3 23 -2 39 5 41 22 9 58 0 77 -19z"/>
<path d="M6000 9030 c-7 -4 -18 -6 -24 -4 -16 6 -40 -12 -32 -24 9 -15 86 1
86 18 0 14 -15 19 -30 10z"/>
<path d="M5612 8458 c-22 -68 -42 -132 -44 -143 -4 -28 -23 -45 -50 -45 -53 0
-98 -13 -98 -28 0 -12 10 -13 60 -8 61 7 93 1 70 -14 -7 -4 -15 -30 -17 -57
-10 -100 45 -145 149 -123 29 6 61 17 72 25 23 17 12 39 -13 25 -10 -5 -39
-14 -64 -20 -89 -20 -125 17 -112 115 l7 57 63 -4 c65 -3 91 6 65 22 -21 14
-57 12 -63 -2 -4 -10 -6 -10 -6 0 -1 6 -10 12 -21 12 -28 0 -26 18 25 164 50
143 50 146 32 146 -8 0 -30 -48 -55 -122z"/>
<path d="M10626 8542 c-3 -5 1 -20 9 -35 8 -15 10 -27 5 -27 -5 0 -11 -8 -14
-17 -9 -31 -18 -77 -20 -100 0 -12 -3 -21 -6 -21 -3 0 -14 0 -26 -1 -26 -1
-28 -31 -2 -31 16 0 17 -6 12 -39 -5 -29 -2 -39 9 -44 11 -4 16 5 21 34 4 22
4 44 1 49 -3 4 41 16 97 27 58 10 103 23 106 31 5 16 -33 15 -121 -2 -60 -12
-67 -11 -62 2 12 33 28 149 22 165 -7 18 -22 22 -31 9z"/>
<path d="M2504 8483 c-16 -26 -31 -50 -34 -53 -43 -39 -190 -280 -190 -312 0
-40 27 -12 64 64 23 49 42 76 47 71 6 -6 30 -6 57 -2 86 14 92 13 92 -23 0
-66 12 -109 28 -103 10 4 12 1 8 -12 -5 -12 -4 -15 3 -8 6 7 7 24 1 50 -16 69
-13 103 10 107 27 4 27 22 -1 26 -21 4 -22 7 -16 88 3 46 3 86 -1 88 -19 11
-27 -14 -31 -89 -2 -44 -4 -81 -5 -82 0 0 -32 -4 -69 -8 l-69 -8 29 44 c15 24
35 52 43 61 8 9 26 35 40 57 14 22 33 41 43 41 9 0 17 5 17 11 0 5 -5 7 -11 4
-6 -4 -9 0 -7 10 6 37 -22 24 -48 -22z"/>
<path d="M4169 8518 c0 -4 -1 -301 0 -315 2 -28 21 -10 45 42 23 50 48 76 62
62 3 -3 8 -34 11 -69 7 -74 17 -98 43 -98 28 0 34 17 10 30 -15 8 -20 21 -20
54 0 55 -17 104 -40 116 -14 8 -26 4 -49 -16 l-31 -26 0 89 c0 93 -7 133 -21
133 -5 0 -9 -1 -10 -2z"/>
<path d="M8096 8405 l7 -115 -34 0 c-19 0 -44 -7 -56 -15 -30 -21 -63 -78 -63
-108 0 -32 40 -62 69 -52 30 9 86 79 99 124 22 72 11 281 -15 281 -11 0 -13
-20 -7 -115z m-10 -161 c-3 -9 -6 -20 -6 -25 0 -5 -16 -25 -35 -45 -29 -30
-38 -34 -50 -24 -22 18 -18 35 16 75 33 37 87 51 75 19z"/>
<path d="M7106 8478 c-25 -9 -27 -13 -20 -42 5 -17 8 -94 9 -170 0 -102 3
-140 13 -143 8 -3 12 10 13 44 1 26 2 55 3 63 2 8 3 22 4 31 1 11 9 15 25 12
49 -9 156 60 175 115 13 39 -1 68 -40 80 -52 16 -150 22 -182 10z m172 -39
c12 -5 22 -17 22 -27 0 -42 -106 -120 -145 -106 -16 6 -20 18 -30 93 -4 31 -2
47 7 52 14 9 110 1 146 -12z"/>
<path d="M6836 8440 c-19 -22 -49 -67 -66 -101 -17 -34 -43 -72 -57 -85 -15
-13 -23 -27 -20 -30 8 -8 -48 -91 -65 -97 -9 -3 -10 -8 -2 -16 17 -18 43 -2
64 38 26 52 36 57 108 59 l62 1 0 -39 c0 -40 13 -53 24 -24 3 9 6 26 6 38 0
12 6 28 13 35 9 10 9 15 0 18 -7 3 -10 17 -6 39 8 47 -22 48 -31 0 -6 -31 -9
-34 -54 -39 -26 -3 -50 -2 -54 1 -8 8 75 159 104 187 l20 20 -4 -61 c-3 -52
-2 -61 11 -59 10 1 16 13 17 31 0 17 4 36 8 43 4 7 5 28 2 47 -9 46 -34 44
-80 -6z"/>
<path d="M8986 8472 c-12 -20 -26 -209 -20 -262 7 -61 26 -105 48 -113 22 -9
25 15 5 43 -30 43 -32 131 -7 314 3 20 -16 33 -26 18z"/>
<path d="M7435 8460 c-11 -18 5 -30 36 -26 29 3 47 12 38 20 -11 9 -69 14 -74
6z"/>
<path d="M4745 8389 c-28 -8 -55 -33 -55 -51 0 -4 25 -35 55 -68 57 -62 64
-80 41 -99 -17 -14 -65 -4 -73 15 -8 22 -33 16 -33 -7 0 -24 58 -52 98 -47 32
4 58 45 49 79 -4 14 -27 46 -52 72 -25 26 -45 52 -45 57 0 20 40 32 73 21 32
-12 51 -4 39 15 -10 17 -63 24 -97 13z"/>
<path d="M3038 8360 c-14 -10 -31 -32 -37 -48 -10 -23 -17 -28 -39 -24 l-27 4
3 -79 c3 -43 -1 -116 -8 -161 -9 -63 -10 -86 -1 -95 17 -17 28 5 35 72 17 151
17 151 37 151 91 0 166 123 109 180 -25 25 -41 25 -72 0z m62 -55 c0 -31 -43
-81 -76 -89 -36 -10 -38 -4 -15 43 12 22 21 46 21 54 0 8 10 19 23 24 27 13
47 0 47 -32z"/>
<path d="M4442 8357 c-62 -66 -65 -173 -5 -212 20 -14 38 -15 94 -10 39 4 73
13 80 21 18 22 8 24 -57 14 -80 -14 -110 -6 -123 31 -10 28 -9 29 24 29 63 0
110 94 67 133 -26 23 -55 21 -80 -6z m66 -29 c5 -27 -27 -68 -54 -68 -29 0
-30 15 -4 58 22 35 52 40 58 10z"/>
<path d="M2788 8330 c-14 -10 -31 -33 -38 -50 -7 -16 -19 -30 -26 -30 -8 0
-14 -7 -14 -15 0 -8 -5 -14 -11 -12 -18 3 -20 -36 -3 -54 12 -14 15 -38 12
-116 -3 -101 6 -126 30 -82 9 16 12 48 8 97 -4 69 -3 72 17 72 32 1 65 22 88
56 25 39 26 115 1 137 -24 22 -34 21 -64 -3z m52 -52 c0 -39 -21 -98 -35 -98
-5 0 -20 -3 -32 -6 -31 -8 -30 15 2 84 17 38 30 52 45 52 16 0 20 -6 20 -32z"/>
<path d="M8550 8324 c-6 -14 -10 -47 -10 -73 0 -35 -5 -53 -20 -66 -24 -22
-40 -11 -65 41 -18 39 -40 36 -30 -5 8 -32 53 -81 75 -81 10 0 29 11 44 25 22
20 26 32 26 80 0 49 3 58 20 62 26 7 21 23 -8 34 -19 7 -24 4 -32 -17z"/>
<path d="M3913 8318 c-23 -26 -43 -61 -43 -77 0 -24 27 -9 43 24 9 20 24 38
32 41 19 7 20 34 2 34 -8 0 -23 -10 -34 -22z"/>
<path d="M10501 8331 c-51 -9 -52 -31 -2 -31 34 0 41 3 41 20 0 11 -1 19 -2
19 -2 -1 -18 -4 -37 -8z"/>
<path d="M3256 8299 c-24 -28 -28 -41 -41 -137 -5 -37 -3 -43 12 -40 12 2 18
16 21 58 5 73 25 110 58 110 30 0 28 19 -4 31 -17 6 -26 2 -46 -22z"/>
<path d="M3451 8307 c-40 -43 -50 -122 -21 -160 40 -50 110 -28 131 42 12 41
1 74 -41 119 -26 28 -41 28 -69 -1z m69 -49 c21 -35 19 -60 -8 -90 -35 -41
-79 -5 -66 55 15 74 42 87 74 35z"/>
<path d="M7425 8310 c-11 -12 -19 -42 -22 -84 -5 -62 -4 -66 25 -95 17 -17 37
-31 46 -31 29 0 66 20 66 35 0 18 -1 18 -36 5 -20 -8 -32 -7 -50 5 -20 13 -24
24 -24 63 0 26 7 60 15 76 25 48 14 64 -20 26z"/>
<path d="M3670 8295 c-13 -14 -19 -25 -14 -25 5 0 4 -4 -3 -8 -19 -12 -25 -55
-11 -73 22 -29 51 -31 88 -6 l34 24 21 -31 c21 -31 55 -47 55 -27 0 6 -9 20
-21 32 -16 16 -20 31 -18 65 3 48 -16 82 -26 48 -19 -62 -64 -104 -98 -91 -14
5 -14 11 -6 37 13 36 41 54 57 38 9 -9 15 -9 23 -1 7 7 5 15 -6 27 -23 23 -48
20 -75 -9z"/>
<path d="M1700 8299 c-19 -5 -52 -9 -73 -10 -40 -1 -56 -14 -39 -31 8 -8 39
-5 104 7 51 10 98 18 105 18 7 0 13 6 13 14 0 15 -55 16 -110 2z"/>
<path d="M8232 8280 c-44 -43 -57 -91 -37 -129 18 -36 61 -61 105 -61 41 0 35
22 -9 31 -32 7 -81 44 -81 61 0 5 9 7 19 3 26 -8 85 17 104 45 14 20 14 26 1
51 -20 40 -62 39 -102 -1z m74 -15 c8 -20 -11 -42 -42 -48 -34 -6 -40 10 -13
39 26 27 47 31 55 9z"/>
<path d="M8706 8279 c-19 -15 -25 -27 -20 -41 4 -14 2 -19 -7 -16 -23 8 -36
-33 -24 -70 7 -18 16 -37 22 -43 11 -11 95 -15 112 -5 21 13 0 26 -43 26 -41
0 -66 13 -66 35 0 5 27 22 60 37 44 19 60 32 60 46 0 42 -56 61 -94 31z m54
-27 c0 -10 -50 -35 -57 -29 -2 3 3 12 12 21 17 17 45 22 45 8z"/>
<path d="M9768 8273 c-25 -24 -28 -25 -43 -9 -20 20 -35 20 -60 2 -10 -7 -26
-11 -35 -9 -14 4 -18 -3 -18 -40 -1 -25 -3 -50 -4 -57 -2 -7 2 -14 9 -17 6 -2
20 15 31 39 10 24 26 49 35 57 15 12 17 10 17 -18 0 -40 20 -40 57 -1 l28 30
15 -52 c10 -33 22 -53 30 -53 8 0 14 7 13 15 -5 31 -33 124 -41 132 -4 4 -20
-4 -34 -19z"/>
<path d="M9988 8278 c-73 -43 -77 -104 -7 -132 47 -19 99 -13 99 11 0 11 -7
14 -27 10 -16 -3 -44 2 -63 10 l-35 16 33 7 c59 14 90 58 60 88 -16 16 -16 15
-60 -10z m28 -33 c-8 -8 -21 -15 -28 -15 -8 1 -6 6 6 15 26 20 42 19 22 0z"/>
<path d="M10229 8276 c-41 -28 -69 -67 -69 -96 0 -27 18 -26 29 3 9 24 59 77
72 77 4 0 3 -15 -2 -32 -5 -18 -9 -47 -9 -65 0 -53 58 -78 125 -53 37 14 21
33 -22 25 -59 -11 -75 0 -70 48 2 23 8 50 12 61 8 19 -3 47 -21 53 -5 2 -25
-8 -45 -21z"/>
<path d="M5900 8258 c-35 -13 -60 -47 -60 -85 0 -39 30 -63 80 -63 43 0 83 35
83 74 0 28 -19 56 -36 56 -6 0 -18 6 -26 14 -12 10 -23 11 -41 4z m65 -73 c0
-23 -6 -32 -28 -39 -32 -12 -60 1 -65 28 -6 29 18 47 57 44 33 -3 36 -6 36
-33z"/>
<path d="M9370 8230 c-36 -37 -45 -41 -41 -17 1 5 -4 7 -11 4 -9 -3 -12 -22
-10 -63 1 -33 -4 -95 -13 -139 -18 -97 -18 -95 -1 -95 22 0 39 62 45 163 1 4
10 3 20 -3 44 -23 99 -4 132 46 21 33 26 84 7 84 -10 0 -9 3 1 9 21 14 -22 51
-59 51 -23 0 -41 -11 -70 -40z m98 -2 c7 -7 12 -25 12 -41 0 -56 -92 -116
-106 -69 -3 9 -9 24 -13 32 -9 17 26 77 49 84 29 8 46 6 58 -6z"/>
<path d="M9091 8204 c-23 -52 -27 -104 -9 -122 27 -27 116 0 144 44 27 41 -15
94 -93 118 -19 6 -25 0 -42 -40z m83 -15 c14 -11 26 -26 26 -33 0 -20 -33 -45
-68 -52 -30 -6 -32 -4 -32 20 0 30 26 86 39 86 5 0 20 -9 35 -21z"/>
<path d="M3870 8211 c0 -5 9 -19 19 -32 17 -22 27 -24 97 -24 53 0 79 4 81 13
4 9 -14 12 -66 12 -59 0 -74 3 -88 20 -18 20 -43 27 -43 11z"/>
<path d="M10580 8200 c0 -33 26 -75 55 -88 35 -16 90 -15 104 1 16 20 4 26
-34 20 -43 -7 -73 11 -91 53 -16 38 -34 45 -34 14z"/>
<path d="M2737 7610 c-16 -5 -35 -14 -43 -21 -19 -15 -18 -49 1 -49 8 0 15 6
15 14 0 13 19 25 46 31 21 5 115 -16 159 -35 24 -10 61 -35 83 -54 21 -20 41
-34 43 -31 6 5 9 -24 11 -90 2 -38 -5 -62 -27 -103 -49 -90 -108 -115 -216
-93 -52 11 -109 48 -109 71 0 6 -8 10 -17 10 -14 0 -15 -2 -4 -9 11 -7 11 -9
0 -13 -10 -4 -2 -16 23 -41 68 -64 213 -76 283 -23 42 32 91 115 100 168 9 53
-13 123 -51 162 -44 46 -148 98 -201 101 -24 2 -47 6 -50 9 -7 7 -9 7 -46 -4z"/>
<path d="M2846 7472 c-10 -16 -19 -209 -11 -229 4 -10 8 -27 9 -37 1 -11 6
-21 12 -23 8 -3 11 34 12 119 0 68 2 134 4 147 3 24 -15 40 -26 23z"/>
<path d="M3849 7406 c-13 -6 -32 -28 -42 -48 -17 -34 -17 -39 -2 -74 8 -20 18
-34 21 -31 4 3 13 -1 22 -9 36 -37 132 12 132 67 0 59 -83 119 -131 95z m75
-53 c32 -32 31 -62 -5 -82 -22 -12 -31 -12 -57 -2 -36 15 -44 38 -26 80 17 40
51 41 88 4z"/>
<path d="M2037 7391 c-4 -15 -17 -21 -61 -26 -31 -4 -56 -12 -56 -19 0 -8 -2
-8 -8 1 -4 6 -25 13 -47 14 -30 3 -40 0 -40 -11 0 -12 16 -15 85 -14 78 0 155
10 172 20 4 3 6 15 4 27 -4 29 -41 35 -49 8z"/>
<path d="M3186 7371 c-10 -11 -15 -25 -11 -30 3 -6 -1 -11 -9 -11 -22 0 -30
-43 -16 -84 13 -41 57 -76 95 -76 38 0 90 29 76 43 -7 7 -18 7 -36 -1 -42 -20
-71 -15 -91 16 -39 59 -7 142 50 128 36 -9 32 -29 -11 -64 -33 -27 -36 -31
-20 -38 13 -5 28 3 53 27 54 52 43 93 -27 104 -27 4 -39 1 -53 -14z"/>
<path d="M3566 7364 c-27 -24 -29 -24 -42 -7 -13 17 -15 17 -32 -3 -18 -21
-19 -22 -31 -3 -18 30 -26 16 -29 -46 -1 -31 -9 -70 -18 -87 -11 -22 -13 -33
-5 -41 15 -15 23 -4 57 78 25 59 29 66 32 43 2 -16 7 -28 11 -28 4 0 25 18 46
40 45 47 57 42 65 -28 3 -33 10 -47 20 -47 29 0 -1 147 -31 152 -8 2 -27 -9
-43 -23z"/>
<path d="M5752 7208 c-11 -35 -28 -98 -38 -140 -10 -43 -22 -79 -28 -79 -6 -1
-26 -2 -45 -3 -55 -2 -51 -26 3 -26 l46 0 -5 -82 c-3 -46 -8 -95 -10 -110 -3
-20 0 -28 10 -28 18 0 22 19 30 133 5 63 11 90 21 94 11 4 12 9 4 18 -8 10 -4
40 14 112 13 54 29 111 35 126 11 29 8 47 -9 47 -5 0 -18 -28 -28 -62z"/>
<path d="M6979 7228 c-42 -43 -69 -102 -69 -157 0 -39 -5 -48 -56 -98 -32 -32
-67 -79 -81 -109 -21 -46 -23 -58 -14 -92 15 -53 43 -77 89 -75 48 2 99 24
155 67 45 34 47 35 81 21 19 -8 37 -19 41 -25 9 -15 45 -12 45 4 0 8 -20 24
-45 36 l-44 22 40 54 c46 62 59 113 35 133 -22 18 -50 10 -54 -17 -4 -24 7
-29 26 -10 9 9 12 9 12 -1 0 -24 -31 -78 -61 -107 l-31 -29 -24 30 c-13 17
-36 53 -50 80 l-27 51 68 64 c74 72 95 104 95 148 0 33 -14 42 -65 42 -24 0
-42 -9 -66 -32z m97 -25 c-4 -16 -36 -57 -72 -93 -61 -62 -64 -64 -64 -37 0
68 64 157 112 157 28 0 30 -2 24 -27z m-76 -345 l29 -36 -32 -25 c-87 -66
-176 -87 -198 -46 -30 57 -4 124 77 198 l45 42 25 -48 c14 -26 39 -64 54 -85z"/>
<path d="M5264 7189 c-10 -17 23 -46 38 -31 8 8 8 15 -2 27 -15 18 -26 19 -36
4z"/>
<path d="M7660 7120 c-8 -16 -8 -25 0 -35 7 -8 7 -16 2 -19 -13 -8 -30 -113
-32 -194 -1 -42 2 -62 9 -57 7 3 8 0 5 -9 -15 -38 77 -126 97 -94 7 11 9 11 9
0 0 -23 62 -3 99 32 41 38 71 99 70 146 0 51 -41 165 -59 165 -16 0 -16 1 13
-97 18 -58 19 -72 8 -108 -17 -58 -67 -109 -112 -116 -30 -5 -42 -1 -69 23
-28 25 -32 36 -36 93 -3 38 2 101 11 150 21 112 22 132 8 137 -6 2 -17 -5 -23
-17z"/>
<path d="M8015 7119 c-15 -23 18 -34 115 -36 62 -2 101 1 105 8 4 5 5 12 4 14
-2 2 -48 5 -101 8 -53 3 -101 8 -107 11 -5 4 -13 1 -16 -5z"/>
<path d="M4644 7105 c-10 -24 4 -47 24 -41 12 4 32 -5 58 -27 21 -19 56 -45
78 -59 l38 -26 -23 -13 c-45 -23 -167 -120 -173 -136 -14 -36 13 -30 59 13 27
25 78 64 112 86 35 23 63 47 63 54 0 8 -3 14 -8 14 -4 0 -52 34 -107 75 -54
41 -103 75 -107 75 -5 0 -11 -7 -14 -15z"/>
<path d="M8075 7024 c4 -11 9 -55 11 -99 3 -44 6 -104 8 -134 l3 -54 -64 6
c-51 5 -63 3 -63 -8 0 -24 32 -33 95 -25 70 9 115 27 115 47 0 11 -8 13 -30 8
l-30 -7 -1 114 c-1 130 -7 161 -33 166 -15 3 -17 0 -11 -14z"/>
<path d="M5760 6985 c0 -13 8 -16 38 -13 20 2 37 8 37 13 0 6 -17 11 -37 13
-30 3 -38 0 -38 -13z"/>
<path d="M6110 6986 c0 -17 43 -46 68 -46 26 0 46 -49 37 -89 -7 -34 -57 -81
-85 -81 -10 0 -28 8 -41 19 -21 17 -22 21 -11 60 7 23 24 48 37 57 30 19 32
34 6 34 -27 0 -69 -53 -77 -97 -19 -103 113 -141 178 -51 45 64 23 178 -34
178 -13 0 -32 7 -42 15 -25 19 -36 19 -36 1z"/>
<path d="M5222 6945 c-70 -79 -43 -188 39 -155 16 7 29 19 29 26 0 17 -22 18
-38 2 -9 -9 -16 -8 -29 4 -14 15 -15 23 -4 58 7 23 24 49 41 62 16 11 27 25
24 30 -10 17 -33 7 -62 -27z"/>
<path d="M5920 6949 c0 -5 -4 -8 -8 -5 -5 3 -25 -10 -46 -28 -33 -31 -37 -39
-39 -94 -1 -33 1 -63 5 -67 14 -14 28 7 28 41 0 80 49 139 106 128 40 -7 55
12 19 26 -34 13 -65 13 -65 -1z"/>
<path d="M5451 6924 c-25 -21 -31 -23 -31 -9 0 38 -25 4 -38 -53 -18 -72 -9
-90 21 -47 12 17 36 45 53 64 l30 34 0 -74 c-1 -54 2 -74 12 -74 16 0 25 154
10 173 -15 17 -22 15 -57 -14z"/>
<path d="M8822 6263 c-6 -32 -14 -86 -18 -121 -8 -73 -22 -92 -69 -92 -33 0
-54 -15 -41 -28 4 -3 24 -5 46 -4 22 2 40 -2 40 -7 0 -5 -7 -42 -15 -82 -9
-41 -12 -76 -7 -81 15 -15 28 14 41 90 15 84 29 102 80 102 42 0 94 28 56 31
-11 0 -40 0 -64 -1 l-44 -2 8 69 c3 37 11 86 16 108 12 56 11 75 -4 75 -8 0
-18 -23 -25 -57z"/>
<path d="M6814 6259 c-4 -7 -14 -42 -24 -78 l-16 -66 -45 -5 c-30 -3 -44 -10
-44 -20 0 -12 10 -14 43 -12 l42 4 0 -52 c0 -77 50 -160 96 -160 33 0 54 10
54 27 0 10 -8 12 -34 8 -30 -6 -36 -3 -57 26 -17 24 -24 51 -27 96 l-4 63 39
0 c48 0 56 6 40 31 -12 20 -37 26 -37 9 0 -5 -7 -10 -15 -10 -18 0 -18 -3 -4
60 6 27 15 50 20 50 5 0 9 9 9 20 0 22 -24 27 -36 9z"/>
<path d="M6986 6262 c-8 -13 9 -65 22 -70 8 -2 12 10 12 37 0 29 -4 41 -14 41
-8 0 -17 -4 -20 -8z"/>
<path d="M8009 6230 c-75 -10 -146 -23 -158 -30 -25 -13 -18 -34 9 -27 15 4
17 -4 19 -52 1 -33 -5 -68 -14 -85 -8 -15 -12 -32 -9 -37 3 -5 0 -35 -7 -66
-9 -39 -18 -57 -31 -61 -21 -5 -25 -32 -5 -32 8 0 13 -10 13 -22 -1 -22 23
-34 25 -13 3 35 21 43 121 56 57 7 106 12 111 11 4 -1 7 5 7 13 0 18 -31 19
-135 4 -42 -6 -78 -9 -81 -6 -3 3 0 31 7 61 14 64 13 64 167 86 57 9 82 17 82
26 0 18 -9 17 -126 -1 -53 -9 -97 -15 -99 -13 -1 2 1 32 5 68 4 43 3 68 -4 72
-7 5 -3 8 9 8 11 0 58 5 105 10 47 5 105 11 130 14 29 2 45 8 45 17 0 20 -32
20 -186 -1z"/>
<path d="M4600 6225 c0 -17 38 -57 90 -95 33 -24 60 -46 60 -49 0 -3 -43 -33
-95 -66 -85 -54 -115 -85 -83 -85 14 0 192 116 209 136 14 18 -5 42 -69 86
-24 16 -47 41 -52 54 -7 17 -17 24 -35 24 -14 0 -25 -2 -25 -5z"/>
<path d="M8396 6218 c-3 -7 -7 -42 -10 -78 -3 -36 -10 -82 -16 -102 -11 -38
-12 -38 -62 -38 -43 0 -57 -5 -80 -27 -46 -44 -33 -113 22 -113 34 0 96 48 82
62 -7 7 -21 2 -40 -12 -34 -25 -62 -21 -62 9 0 25 36 51 73 51 20 0 27 -4 25
-16 -6 -35 21 -24 46 18 22 38 56 182 56 239 0 21 -28 26 -34 7z"/>
<path d="M5646 6195 c-6 -17 3 -25 26 -25 10 0 18 6 18 14 0 18 -37 28 -44 11z"/>
<path d="M6988 6080 c-1 -61 -2 -123 -2 -140 -1 -40 16 -43 26 -5 4 17 20 45
36 64 34 41 59 37 69 -9 3 -17 11 -29 17 -27 14 5 21 47 7 47 -6 0 -8 6 -5 14
3 9 -5 21 -20 31 -28 19 -54 10 -80 -27 -18 -25 -32 -19 -18 9 12 24 5 115 -9
124 -8 5 -7 8 2 11 9 3 8 6 -4 11 -15 6 -17 -5 -19 -103z"/>
<path d="M8570 6155 c0 -8 7 -15 15 -15 8 0 15 7 15 15 0 8 -7 15 -15 15 -8 0
-15 -7 -15 -15z"/>
<path d="M5106 6075 c-20 -36 -36 -70 -36 -76 0 -6 -4 -8 -9 -4 -6 3 -22 -11
-38 -30 -15 -20 -41 -43 -56 -51 -28 -15 -32 -34 -9 -42 6 -2 34 18 62 44 41
39 50 43 50 27 0 -11 6 -26 14 -32 20 -17 76 8 105 45 l23 29 -6 -30 c-10 -45
13 -73 50 -60 38 14 46 40 10 33 -22 -4 -29 -1 -35 15 -5 14 -3 26 5 35 8 7
14 27 14 43 0 22 -5 29 -20 29 -11 0 -20 -4 -20 -9 0 -15 -81 -101 -96 -101
-23 0 -17 50 11 91 28 39 45 109 27 109 -5 0 -26 -29 -46 -65z"/>
<path d="M5395 6124 c-87 -45 -86 -79 5 -111 35 -13 68 -27 73 -32 12 -12 -7
-39 -52 -76 -27 -23 -36 -26 -51 -17 -20 12 -30 6 -30 -19 0 -46 76 -23 135
42 19 22 35 48 35 58 0 26 -39 55 -95 71 -25 7 -48 16 -50 20 -6 10 35 37 69
46 28 7 31 27 5 32 -8 1 -27 -5 -44 -14z"/>
<path d="M5646 6082 c-10 -17 -22 -119 -18 -155 2 -21 10 -37 17 -37 9 0 13
19 13 63 1 34 5 76 11 94 9 30 6 43 -10 43 -4 0 -10 -4 -13 -8z"/>
<path d="M7272 6048 c-30 -33 -41 -68 -30 -98 14 -39 39 -60 70 -60 15 0 36
-5 46 -11 11 -7 29 -8 49 -2 25 6 30 11 23 23 -8 12 -13 13 -28 3 -34 -20
-132 24 -132 59 0 4 6 8 14 8 19 0 106 39 106 48 0 4 -7 18 -16 30 -21 30 -73
30 -102 0z m68 -15 c0 -5 -14 -16 -30 -25 -24 -14 -30 -14 -30 -3 0 15 26 34
48 35 6 0 12 -3 12 -7z"/>
<path d="M9006 6042 c-77 -53 -103 -118 -66 -165 26 -32 56 -35 110 -7 70 36
87 86 50 147 -30 51 -49 55 -94 25z m84 -84 c0 -20 -53 -66 -87 -74 -31 -8
-56 19 -47 50 19 66 95 104 121 61 7 -11 12 -27 13 -37z"/>
<path d="M5770 6019 c-31 -43 -47 -97 -36 -125 8 -22 26 -7 26 22 0 31 21 73
48 98 21 18 21 18 41 -15 23 -38 27 -80 10 -111 -16 -30 7 -50 27 -24 20 28
17 100 -6 145 -32 65 -68 68 -110 10z"/>
<path d="M9259 6031 c-24 -20 -39 -27 -46 -20 -16 16 -31 -12 -42 -81 -14 -84
-14 -90 4 -90 12 0 42 72 37 92 -1 4 12 22 28 39 16 18 26 37 23 42 -3 6 -1 7
6 3 6 -4 18 -2 27 4 8 8 28 10 50 7 29 -5 35 -3 32 11 -2 12 -15 18 -43 20
-32 2 -47 -3 -76 -27z"/>
<path d="M6083 6025 c-76 -33 -68 -131 12 -151 16 -4 39 1 65 14 l40 20 5 -22
c2 -11 8 -43 14 -71 6 -27 13 -70 17 -94 l6 -44 -36 7 c-44 8 -87 -12 -104
-49 -20 -42 -15 -118 9 -149 24 -30 45 -33 78 -10 26 19 71 107 71 142 0 26
-1 26 50 6 23 -9 44 -14 47 -10 10 10 -17 35 -52 46 -31 10 -33 14 -40 72 -4
34 -12 75 -17 92 -5 17 -11 60 -15 96 -9 112 -46 156 -51 62 -3 -51 -5 -54
-38 -68 -32 -13 -38 -13 -60 1 -13 8 -24 24 -24 35 0 23 46 61 66 53 8 -3 22
-2 32 2 16 6 16 7 -2 21 -24 17 -32 17 -73 -1z m149 -382 c18 -9 -41 -137 -69
-147 -25 -10 -43 20 -43 71 0 72 54 109 112 76z"/>
<path d="M8503 5973 c-4 -16 -8 -30 -8 -33 -1 -3 -5 -13 -9 -22 -5 -10 -5 -25
-2 -34 7 -19 31 -13 31 7 0 8 5 31 12 53 17 49 16 56 -2 56 -8 0 -18 -12 -22
-27z"/>
<path d="M7126 5934 c-17 -16 -20 -33 -10 -58 13 -33 31 -16 32 29 0 25 -1 45
-3 45 -2 0 -11 -7 -19 -16z"/>
<path d="M5225 5451 c-57 -8 -107 -37 -103 -59 4 -21 28 -27 28 -8 0 25 45 37
170 43 91 5 127 2 173 -11 54 -16 97 -44 97 -65 0 -38 -99 -121 -161 -135 -26
-6 -26 -4 -33 62 -4 37 -8 73 -8 80 -1 7 -6 11 -12 9 -14 -4 -21 -56 -9 -68 5
-5 7 -27 5 -49 -4 -39 -5 -40 -41 -40 -20 0 -42 -4 -50 -9 -24 -15 -1 -31 45
-31 28 0 44 -5 45 -12 1 -7 0 -52 -1 -100 -1 -72 1 -88 13 -88 11 0 16 17 19
74 2 41 6 78 10 81 16 17 151 -83 168 -125 6 -16 10 -48 8 -72 -2 -33 0 -43
12 -43 23 0 25 86 4 131 -16 34 -117 124 -139 124 -5 0 -21 9 -34 19 l-24 18
53 18 c61 20 145 94 155 138 10 38 -16 74 -73 100 -37 17 -69 22 -157 23 -60
1 -132 -1 -160 -5z"/>
<path d="M7793 5374 c-11 -16 -37 -69 -58 -117 -21 -48 -47 -94 -57 -102 -11
-7 -17 -18 -14 -24 4 -6 -3 -33 -15 -61 -16 -38 -19 -54 -11 -62 8 -8 19 6 41
55 l30 67 61 0 60 0 1 -52 c2 -84 3 -91 19 -96 12 -4 13 -2 3 9 -19 19 -16 34
3 18 14 -12 15 -5 9 72 -4 46 -11 92 -16 101 -5 9 -9 54 -9 100 0 55 -5 91
-13 102 -13 18 -15 17 -34 -10z m20 -131 l4 -83 -45 0 c-31 0 -43 4 -39 13 29
75 71 168 73 161 1 -5 4 -46 7 -91z"/>
<path d="M8685 5323 c-9 -21 -22 -58 -28 -82 l-12 -43 -40 6 c-22 3 -55 9 -72
12 -25 5 -33 3 -33 -8 0 -15 72 -38 120 -38 28 0 30 -3 30 -37 1 -105 115
-214 168 -161 19 19 14 25 -18 20 -18 -3 -40 2 -56 13 -31 20 -63 88 -64 132
0 30 2 32 44 38 26 4 47 13 51 22 5 14 -2 15 -45 10 l-51 -6 6 32 c4 18 16 47
26 65 23 40 24 62 4 62 -8 0 -22 -17 -30 -37z"/>
<path d="M6602 5323 c2 -10 10 -18 18 -18 8 0 16 8 18 18 2 12 -3 17 -18 17
-15 0 -20 -5 -18 -17z"/>
<path d="M4676 5291 c-7 -11 3 -19 74 -59 30 -18 66 -40 80 -51 24 -19 24 -20
5 -41 -11 -12 -48 -37 -82 -57 -62 -34 -90 -64 -78 -83 10 -15 23 -12 29 8 3
9 31 30 61 46 69 36 141 98 131 114 -10 17 -185 132 -201 132 -8 0 -16 -4 -19
-9z"/>
<path d="M6372 5197 c-8 -10 -1 -28 28 -73 62 -91 49 -154 -16 -81 -23 26 -29
29 -32 15 -8 -43 60 -98 97 -79 42 23 31 97 -25 164 l-27 32 28 5 c16 3 30 11
33 18 5 17 -72 16 -86 -1z"/>
<path d="M7955 5186 c-18 -28 -10 -56 30 -104 14 -17 25 -40 23 -49 -5 -26
-41 -22 -53 5 -13 29 -35 28 -35 -2 0 -28 33 -56 66 -56 28 0 65 45 57 68 -4
9 -20 33 -36 54 -40 50 -34 74 21 71 23 -1 42 2 42 6 0 17 -27 31 -62 31 -28
0 -41 -6 -53 -24z"/>
<path d="M8965 5202 c-30 -6 -55 -32 -55 -58 0 -14 22 -45 60 -84 49 -50 58
-64 50 -79 -19 -36 -68 -34 -99 3 -18 22 -31 20 -31 -4 0 -23 31 -45 77 -55
28 -6 38 -2 63 23 16 17 30 39 30 49 0 10 -27 45 -60 77 -62 61 -71 80 -44 90
26 10 44 7 44 -8 0 -8 5 -18 10 -21 11 -7 30 34 23 51 -5 14 -39 22 -68 16z"/>
<path d="M5757 5182 c-58 -64 -45 -182 24 -218 51 -26 159 0 159 38 0 11 -38
10 -42 -2 -1 -5 -21 -12 -43 -15 -32 -6 -45 -3 -68 15 -34 27 -34 36 3 48 32
12 70 64 70 98 0 47 -71 72 -103 36z m68 -23 c11 -17 -15 -66 -41 -78 -33 -15
-40 5 -20 53 15 36 47 49 61 25z"/>
<path d="M8171 5179 c-29 -32 -26 -50 13 -88 19 -19 40 -47 47 -64 11 -26 10
-31 -5 -43 -26 -19 -59 -2 -70 35 -15 52 -43 34 -31 -20 13 -60 112 -78 137
-24 15 34 3 70 -42 118 -46 51 -41 77 16 77 48 0 40 24 -8 28 -27 2 -41 -3
-57 -19z"/>
<path d="M6123 5173 c-20 -60 -56 -124 -92 -165 -29 -32 -38 -49 -29 -54 7 -5
30 12 60 46 46 52 48 53 48 26 0 -36 17 -66 37 -66 9 0 29 12 45 27 l27 26 10
-25 c11 -28 39 -44 54 -29 6 6 0 21 -17 42 -27 32 -30 62 -9 115 8 20 -21 18
-40 -4 -10 -10 -17 -30 -17 -44 0 -30 -37 -81 -52 -72 -11 7 -5 126 8 172 5
16 2 22 -10 22 -9 0 -19 -8 -23 -17z"/>
<path d="M8418 5180 c-26 -16 -58 -74 -58 -106 0 -78 69 -123 157 -101 75 19
67 37 -14 30 -59 -5 -70 -3 -85 14 -17 18 -16 20 16 37 19 10 39 29 45 42 30
66 -6 115 -61 84z m42 -40 c0 -22 -41 -70 -60 -70 -18 0 -11 28 16 59 30 36
44 39 44 11z"/>
<path d="M6757 5159 c-15 -11 -32 -39 -38 -62 -7 -23 -19 -49 -26 -58 -11 -14
-11 -18 2 -29 22 -18 38 0 39 45 1 19 4 35 7 35 3 0 11 11 17 25 26 56 52 21
52 -68 0 -34 5 -49 15 -54 9 -3 17 -4 19 -2 2 2 0 37 -4 77 -5 48 -13 79 -25
92 -22 25 -26 25 -58 -1z"/>
<path d="M6953 5152 c-56 -44 -43 -112 21 -112 47 0 102 40 98 71 -5 52 -75
76 -119 41z m68 -22 c26 -15 24 -35 -6 -48 -57 -26 -86 -2 -48 40 19 21 27 22
54 8z"/>
<path d="M6585 5107 c-10 -50 -2 -122 13 -122 9 0 14 23 16 78 2 58 0 77 -10
77 -7 0 -16 -15 -19 -33z"/>
<path d="M7062 5067 c-10 -11 -9 -23 2 -55 8 -23 18 -69 22 -102 l7 -60 -32 0
c-23 0 -42 -9 -63 -31 -29 -29 -30 -33 -25 -91 3 -34 16 -80 29 -106 20 -39
29 -48 56 -50 27 -3 35 2 52 30 16 27 20 50 20 122 l0 88 28 -7 c15 -3 34 -13
43 -21 20 -18 39 -18 39 0 0 19 -44 46 -85 53 -19 3 -33 8 -33 12 5 18 -15
137 -30 182 -15 42 -20 49 -30 36z m38 -332 c0 -90 -14 -138 -39 -133 -22 4
-51 66 -58 126 -5 42 -2 53 16 71 12 12 34 21 51 21 l30 0 0 -85z"/>
<path d="M8411 4482 c-40 -41 -61 -97 -61 -158 0 -37 -4 -41 -65 -81 -86 -57
-120 -114 -116 -196 3 -66 103 -55 215 23 l57 40 26 -20 c30 -23 93 -28 93 -6
0 8 -15 17 -34 20 -57 11 -61 27 -21 86 36 53 43 84 24 95 -13 8 -49 -23 -49
-42 0 -8 5 -11 12 -7 12 8 7 -4 -25 -49 l-20 -29 -28 49 c-16 26 -29 55 -29
63 0 9 25 47 55 85 59 73 71 118 39 149 -23 23 -33 20 -73 -22z m54 -34 c-6
-28 -85 -131 -85 -110 0 29 26 92 48 115 34 36 45 34 37 -5z m-75 -255 l32
-57 -28 -23 c-41 -33 -126 -73 -160 -76 -26 -2 -29 1 -32 33 -4 45 27 92 93
142 28 21 53 38 57 38 3 0 21 -26 38 -57z"/>
<path d="M5310 4483 c0 -23 56 -175 86 -234 40 -80 116 -200 138 -218 32 -27
43 -6 49 91 7 99 32 252 47 294 9 22 13 23 31 13 31 -16 50 5 23 26 -33 25
-63 19 -79 -17 -17 -43 -55 -267 -55 -332 l0 -51 -56 85 c-80 121 -151 288
-142 331 2 8 -7 15 -19 17 -13 2 -23 0 -23 -5z"/>
<path d="M9260 4470 c-30 -5 -74 -13 -97 -18 -34 -8 -43 -7 -47 5 -8 19 -32
11 -28 -9 1 -9 -7 -18 -18 -21 -26 -7 -26 -27 0 -27 26 0 26 -1 -10 -180 -33
-168 -36 -194 -17 -188 6 3 18 34 25 69 29 150 16 132 111 149 47 9 86 21 89
28 5 15 -28 15 -102 1 -31 -7 -58 -10 -60 -8 -7 7 19 128 29 137 16 15 133 34
202 33 49 0 63 3 63 14 0 8 -6 15 -14 15 -7 0 -26 2 -42 4 -16 2 -54 0 -84 -4z"/>
<path d="M9667 4453 c-11 -18 -58 -346 -55 -381 3 -24 9 -37 18 -37 12 0 14
11 11 49 -3 46 -1 51 39 87 24 22 48 39 55 39 30 0 75 -53 93 -108 16 -51 42
-82 42 -50 0 59 -57 164 -97 179 -22 8 -19 12 54 83 63 60 76 77 65 87 -10 11
-18 6 -45 -26 -17 -22 -30 -44 -29 -50 2 -5 0 -7 -3 -3 -4 4 -31 -12 -59 -36
-28 -24 -62 -46 -75 -49 -21 -5 -23 -3 -18 21 22 113 29 184 20 193 -6 6 -13
7 -16 2z"/>
<path d="M7073 4435 c-7 -20 2 -29 21 -22 9 4 13 13 10 22 -8 19 -23 19 -31 0z"/>
<path d="M6419 4409 c-6 -12 -7 -25 -2 -29 12 -13 46 17 40 35 -9 21 -24 19
-38 -6z"/>
<path d="M4790 4411 c0 -11 91 -81 162 -124 l56 -34 -45 -22 c-76 -37 -203
-132 -203 -153 0 -22 28 -24 36 -3 8 20 120 98 195 135 32 17 59 37 59 45 0 8
-22 26 -49 39 -27 14 -78 48 -115 76 -61 47 -96 62 -96 41z"/>
<path d="M10020 4410 c-13 -8 -13 -11 2 -27 21 -20 45 -5 35 21 -7 18 -16 20
-37 6z"/>
<path d="M6205 4295 c-5 -2 -22 -6 -37 -9 -30 -7 -58 -31 -58 -51 0 -8 18 -35
40 -60 46 -53 51 -82 16 -91 -25 -6 -90 21 -82 34 3 5 0 14 -5 22 -7 13 -10
13 -18 1 -14 -22 0 -52 33 -72 41 -25 79 -24 111 4 24 20 25 25 15 52 -6 16
-27 48 -46 72 -32 38 -33 43 -17 52 10 5 35 12 56 16 21 4 37 13 37 21 0 13
-21 17 -45 9z"/>
<path d="M5712 4258 c-38 -49 -54 -128 -32 -168 23 -44 135 -45 151 -2 11 29
-18 44 -36 19 -14 -20 -65 -23 -83 -5 -17 17 -15 58 3 58 9 0 34 9 55 20 42
21 53 53 28 78 -16 16 -73 15 -86 0z m60 -33 c0 -5 -14 -16 -32 -23 -33 -13
-34 -9 -7 26 11 14 38 12 39 -3z"/>
<path d="M5948 4260 c-20 -12 -32 -77 -23 -131 9 -55 31 -45 27 13 -4 63 11
98 43 98 28 0 34 15 9 24 -21 8 -36 7 -56 -4z"/>
<path d="M6374 4252 c-6 -4 -14 -44 -18 -89 -5 -69 -4 -83 8 -83 14 0 17 13
30 127 4 44 -2 57 -20 45z"/>
<path d="M6496 4217 c-39 -51 -48 -83 -36 -128 13 -46 45 -64 96 -54 52 9 84
41 84 81 0 20 -5 44 -11 55 -10 20 -85 79 -100 79 -4 0 -19 -15 -33 -33z m83
-36 c30 -28 39 -63 23 -89 -12 -18 -64 -31 -90 -21 -30 11 -31 75 -1 113 26
33 30 33 68 -3z"/>
<path d="M6735 4145 c-1 -112 11 -122 51 -42 47 92 74 111 74 50 0 -53 10 -83
26 -83 11 0 12 14 8 63 -8 83 -9 87 -38 87 -15 0 -35 -13 -55 -35 l-31 -36 0
30 c0 38 -9 61 -24 61 -7 0 -11 -31 -11 -95z"/>
<path d="M7169 4209 c-6 -12 -13 -57 -16 -100 -5 -66 -3 -79 9 -79 10 0 18 14
22 41 8 52 42 119 60 119 21 0 26 -23 26 -121 0 -72 3 -89 15 -89 12 0 15 18
15 100 0 94 -2 103 -25 126 -19 19 -29 23 -43 15 -11 -6 -24 -6 -34 0 -13 7
-20 4 -29 -12z"/>
<path d="M9426 4198 c-15 -18 -24 -25 -20 -15 5 13 1 17 -20 17 -26 0 -33 -14
-17 -38 4 -7 4 -38 -1 -69 -6 -36 -5 -60 1 -66 10 -10 12 -7 48 86 25 66 46
87 89 87 50 0 39 24 -13 28 -36 3 -44 -1 -67 -30z"/>
<path d="M10420 4202 c0 -29 -10 -33 -41 -17 -37 20 -94 19 -113 -1 -20 -19
-21 -64 -2 -89 19 -27 80 -22 128 11 21 15 38 31 38 37 0 6 3 8 6 4 12 -12 33
-133 34 -192 l0 -61 -33 4 c-67 8 -117 -62 -117 -167 0 -104 56 -134 108 -57
29 42 62 128 62 160 l0 23 74 -15 c67 -13 118 -11 103 4 -3 3 -41 14 -84 23
l-78 17 -6 85 c-10 129 -42 249 -66 249 -7 0 -13 -8 -13 -18z m-47 -46 c17
-13 17 -15 -5 -30 -46 -32 -101 -13 -84 29 7 19 64 19 89 1z m85 -309 c6 -30
-29 -124 -59 -159 -24 -28 -30 -31 -39 -18 -26 40 -2 166 37 189 26 15 57 9
61 -12z"/>
<path d="M7431 4196 c-53 -29 -65 -93 -25 -133 21 -21 32 -24 61 -20 20 4 46
16 58 27 15 14 25 18 29 11 8 -13 36 -234 31 -240 -3 -2 -30 3 -61 12 -63 18
-88 12 -100 -25 -18 -59 4 -129 53 -168 51 -40 113 -2 134 81 l13 49 47 0 c26
0 51 5 55 11 4 8 -1 9 -16 4 -15 -5 -20 -4 -16 4 5 7 -6 11 -33 11 -27 0 -41
5 -41 13 0 44 -23 196 -42 276 -21 89 -40 120 -58 91 -5 -8 -9 -9 -14 -1 -9
15 -45 13 -75 -3z m95 -55 c-6 -40 -21 -57 -56 -65 -34 -8 -52 6 -52 40 0 37
32 62 78 61 35 -1 36 -2 30 -36z m14 -325 c44 -13 45 -15 43 -51 -5 -81 -57
-113 -104 -65 -23 23 -29 37 -29 73 0 63 9 68 90 43z"/>
<path d="M7021 4183 c-8 -17 -6 -113 4 -141 12 -32 26 5 23 61 -1 34 2 70 6
80 6 12 4 17 -8 17 -8 0 -19 -8 -25 -17z"/>
<path d="M10112 4166 c-38 -43 -69 -123 -54 -138 14 -14 32 -1 32 25 0 26 40
99 57 104 16 6 33 -30 35 -72 1 -37 12 -46 22 -19 20 52 -16 134 -59 134 -2 0
-16 -15 -33 -34z"/>
<path d="M9208 4173 c-43 -49 -48 -92 -16 -123 31 -29 55 -25 94 14 41 41 42
49 9 82 -14 14 -25 29 -25 34 0 17 -46 11 -62 -7z m72 -63 c0 -11 -12 -27 -26
-36 -23 -15 -27 -16 -41 -2 -24 25 -9 53 32 55 29 3 35 0 35 -17z"/>
<path d="M9981 4131 c-14 -62 -12 -96 4 -96 9 0 16 27 31 118 5 28 3 37 -8 37
-9 0 -18 -21 -27 -59z"/>
<path d="M10984 3598 c-5 -7 -3 -8 6 -3 43 27 -47 -68 -133 -141 -145 -122
-137 -120 -138 -27 -2 89 -9 135 -24 140 -11 3 -10 -417 0 -446 4 -11 8 -12
17 -3 8 8 11 41 9 96 -2 78 -1 85 20 100 13 9 34 16 46 16 55 0 251 -103 280
-147 11 -16 14 -37 10 -68 -2 -26 0 -48 6 -52 6 -3 7 -1 3 5 -4 7 -1 12 8 12
12 0 16 11 16 50 0 70 -34 105 -163 168 -56 28 -112 54 -125 59 -22 8 -18 13
69 88 106 92 133 124 123 148 -7 20 -20 22 -30 5z"/>
<path d="M9894 3571 c-39 -24 -51 -64 -29 -97 8 -13 55 -44 103 -68 111 -56
143 -89 149 -153 4 -41 1 -52 -20 -75 -44 -47 -132 -49 -198 -5 -27 18 -35 31
-37 60 -4 41 -18 49 -31 15 -12 -32 -3 -54 35 -87 112 -98 284 -47 284 84 0
68 -35 114 -120 162 -119 66 -135 77 -138 100 -4 24 31 53 64 53 12 0 38 -12
59 -26 25 -16 41 -22 47 -16 15 15 2 29 -42 52 -49 25 -86 25 -126 1z"/>
<path d="M10205 3580 c-11 -18 2 -24 53 -27 65 -5 160 -42 196 -78 30 -30 77
-129 90 -191 6 -27 2 -38 -24 -67 -28 -32 -82 -64 -136 -81 -37 -11 -54 61
-54 226 0 127 -8 178 -28 178 -11 0 -3 -310 10 -357 8 -33 8 -46 -2 -57 -14
-17 -6 -36 16 -36 31 0 139 43 181 71 44 31 73 73 73 108 0 37 -63 181 -96
220 -24 28 -52 45 -101 64 -83 30 -168 43 -178 27z"/>
<path d="M7651 3567 c-6 -8 -9 -16 -7 -18 2 -2 -4 -35 -14 -74 l-18 -70 -56 0
c-45 0 -56 -2 -54 -15 2 -11 18 -16 56 -18 51 -3 52 -4 52 -35 0 -42 43 -132
69 -146 28 -15 74 -14 69 2 -3 6 -13 14 -24 16 -10 2 -25 8 -33 15 -21 16 -51
87 -51 119 0 26 2 27 55 27 44 0 53 3 49 15 -4 10 -20 15 -50 15 -40 0 -44 2
-44 24 0 13 7 43 15 66 25 70 17 113 -14 77z"/>
<path d="M9263 3563 c-38 -8 -77 -124 -59 -180 6 -18 -2 -28 -46 -62 -106 -80
-118 -163 -27 -186 31 -8 82 12 126 49 l32 27 41 -26 c39 -24 70 -28 70 -7 0
4 -20 18 -45 30 l-45 22 39 50 c45 57 69 116 53 132 -15 15 -32 1 -32 -25 0
-22 -21 -60 -59 -107 l-20 -25 -20 44 -19 45 54 60 c58 66 68 102 38 144 -15
21 -32 24 -81 15z m63 -48 c5 -20 -3 -37 -36 -80 -23 -30 -46 -52 -51 -49 -25
15 8 139 39 147 34 9 42 6 48 -18z m-74 -297 c-8 -10 -34 -27 -57 -38 -33 -16
-48 -18 -69 -11 -14 6 -26 18 -26 27 0 24 38 72 83 105 l40 29 22 -48 c20 -42
21 -49 7 -64z"/>
<path d="M5373 3537 c-13 -21 22 -28 139 -30 l125 -2 1 -40 c1 -22 -9 -85 -23
-140 -13 -55 -25 -112 -25 -127 0 -33 -11 -34 -150 -18 -83 9 -117 3 -94 -19
12 -12 432 -34 467 -26 15 4 27 14 27 22 0 12 -8 14 -36 8 -20 -3 -70 -3 -110
0 -88 9 -86 3 -49 148 14 54 25 120 25 147 l0 50 68 0 c37 0 84 4 105 9 20 5
39 5 42 1 7 -11 58 3 63 18 4 14 -57 15 -273 3 -77 -4 -175 -4 -218 -1 -44 3
-81 1 -84 -3z"/>
<path d="M6296 3528 c-3 -13 -7 -49 -11 -82 -3 -32 -10 -66 -15 -76 -12 -22
-53 -33 -91 -25 -22 5 -29 3 -29 -9 0 -20 34 -29 77 -21 l35 6 -6 -44 c-4 -24
-9 -56 -12 -70 -2 -15 -1 -27 3 -27 21 1 31 20 38 76 3 33 10 66 14 73 5 7 27
15 50 18 33 5 45 11 52 30 12 31 5 43 -22 36 -12 -3 -18 -11 -15 -19 3 -8 0
-14 -7 -14 -7 0 -22 -3 -34 -6 -21 -6 -22 -4 -13 27 13 44 13 149 0 149 -5 0
-12 -10 -14 -22z"/>
<path d="M4847 3533 c-13 -12 -7 -18 82 -93 50 -41 90 -80 90 -85 1 -13 -78
-92 -110 -111 -13 -8 -45 -24 -71 -36 -51 -23 -68 -55 -24 -44 79 20 165 82
224 160 30 40 28 49 -15 79 -21 14 -65 50 -98 81 -62 57 -67 61 -78 49z"/>
<path d="M7913 3465 c-3 -9 -3 -18 0 -22 10 -10 37 6 37 22 0 20 -29 20 -37 0z"/>
<path d="M8553 3434 c-12 -11 -25 -31 -28 -45 -6 -22 1 -34 44 -76 28 -28 51
-58 51 -67 0 -33 -20 -56 -49 -56 -36 0 -54 21 -46 53 8 31 -10 44 -24 18 -29
-52 5 -101 68 -101 71 0 102 69 61 135 -11 18 -32 40 -45 49 -47 31 -22 84 34
71 17 -4 32 -2 36 5 10 16 2 21 -42 27 -28 4 -44 0 -60 -13z"/>
<path d="M7021 3401 c-39 -39 -39 -41 -43 -128 -2 -73 0 -88 12 -88 11 0 17
22 25 87 9 73 15 92 36 113 22 23 28 24 57 14 42 -14 54 -3 23 22 -36 29 -67
24 -110 -20z"/>
<path d="M8302 3392 c-15 -15 -33 -37 -40 -47 -11 -19 -12 -18 -2 2 13 29 13
33 -5 33 -9 0 -19 -10 -24 -23 -13 -33 -17 -141 -6 -146 10 -4 12 -1 45 76 13
29 34 63 47 75 l25 23 -7 -81 c-6 -68 -5 -83 10 -97 21 -21 45 -22 71 -1 10 8
14 13 7 10 -6 -4 -14 -2 -18 3 -3 6 -12 8 -20 5 -23 -9 -28 20 -17 94 15 101
-12 131 -66 74z"/>
<path d="M6738 3398 c-20 -16 -58 -87 -58 -110 0 -72 69 -86 104 -20 14 25 15
20 16 -81 0 -102 -1 -108 -22 -116 -13 -5 -31 -18 -41 -29 -21 -23 -40 -128
-35 -198 3 -41 6 -49 23 -49 28 0 70 86 86 176 l13 71 30 -7 c17 -3 52 -9 79
-12 40 -5 47 -3 47 11 0 9 -6 16 -12 15 -7 -1 -41 3 -75 11 l-63 13 0 118 c0
116 -9 169 -30 169 -6 0 -15 -12 -21 -27 -23 -58 -33 -73 -45 -73 -18 0 -24
25 -14 61 5 17 7 36 3 42 -3 6 -1 7 5 3 14 -8 52 14 52 31 0 17 -22 17 -42 1z
m52 -370 c-1 -33 -28 -136 -43 -163 l-16 -30 -1 30 c0 48 18 146 31 161 14 17
29 18 29 2z"/>
<path d="M6450 3374 c-45 -39 -75 -101 -61 -130 21 -47 89 -69 163 -52 39 9
48 16 42 33 -5 11 -11 12 -24 5 -24 -13 -106 -13 -131 0 -24 14 -24 46 1 87
33 54 90 69 90 24 0 -21 -44 -61 -66 -61 -8 0 -14 -7 -14 -15 0 -26 41 -16 76
19 76 76 6 159 -76 90z"/>
<path d="M8080 3386 c0 -7 7 -19 16 -27 22 -18 44 -64 44 -92 0 -31 -18 -47
-55 -47 -17 0 -36 5 -43 12 -21 21 -14 72 13 98 30 28 32 40 6 40 -55 0 -84
-118 -39 -160 55 -51 148 -15 148 57 0 40 -13 67 -48 106 -28 30 -42 34 -42
13z"/>
<path d="M5948 3363 c-3 -4 -13 -36 -23 -71 -14 -47 -16 -65 -7 -74 6 -6 13
-10 14 -7 2 2 13 22 24 44 26 47 66 67 90 44 15 -15 13 -37 -11 -116 -6 -18
-3 -23 12 -23 15 0 22 11 31 51 16 68 15 83 -5 108 -19 23 -45 29 -79 17 -17
-5 -22 -3 -20 10 1 18 -19 31 -26 17z"/>
<path d="M7208 3334 c-48 -25 -66 -94 -30 -113 21 -11 44 -1 88 41 l31 29 6
-31 c9 -43 46 -77 83 -76 19 1 29 6 29 16 0 8 -6 14 -14 12 -42 -9 -71 31 -71
98 l0 38 -47 0 c-27 0 -60 -6 -75 -14z m51 -31 c-17 -23 -52 -52 -61 -53 -18
0 -6 30 18 49 34 27 63 29 43 4z"/>
<path d="M7874 3317 c-3 -8 -4 -36 -2 -63 2 -35 8 -50 19 -52 12 -2 15 8 13
60 -1 59 -17 88 -30 55z"/>
<path d="M11212 3267 c-30 -32 -28 -41 18 -91 45 -49 48 -61 21 -76 -33 -17
-61 -12 -61 10 0 26 -16 26 -30 -1 -24 -45 47 -67 110 -34 42 22 39 54 -11
111 -38 45 -40 49 -23 61 23 17 34 16 56 -4 14 -12 21 -14 30 -5 9 9 7 16 -7
32 -25 28 -76 26 -103 -3z"/>
<path d="M11763 2822 c-156 -300 -160 -307 -193 -313 -37 -8 -44 -14 -35 -29
4 -7 18 -10 32 -7 19 3 23 1 18 -12 -14 -36 -21 -98 -14 -131 9 -41 32 -60 73
-60 42 1 116 35 116 55 0 19 -3 19 -50 -5 -44 -23 -80 -26 -98 -8 -15 15 -16
80 -2 129 11 38 33 49 96 49 17 0 28 8 34 26 13 34 13 36 -10 32 -12 -2 -19
-7 -18 -13 3 -8 -63 -28 -70 -20 -5 4 89 189 132 259 20 33 36 68 36 77 0 38
-19 26 -47 -29z"/>
<path d="M9696 2754 c-37 -38 -58 -76 -102 -186 l-38 -97 -49 6 c-39 5 -49 3
-45 -7 2 -8 20 -18 39 -23 19 -5 35 -10 37 -11 1 -2 -13 -37 -32 -78 -19 -42
-32 -79 -29 -82 10 -10 33 -7 33 5 0 6 15 43 34 84 l34 73 61 7 c45 5 61 11
61 22 0 13 -9 15 -55 9 -30 -3 -55 -5 -55 -3 0 18 86 208 105 233 23 30 56 50
40 24 -3 -5 1 -10 9 -10 21 0 21 46 0 54 -21 8 -18 9 -48 -20z"/>
<path d="M12377 2679 c-4 -45 -23 -142 -42 -216 -37 -140 -41 -196 -15 -201
13 -2 16 8 16 50 1 29 14 96 29 148 28 94 56 263 47 288 -2 6 -10 12 -17 12
-8 0 -14 -26 -18 -81z"/>
<path d="M4665 2688 c3 -30 -2 -61 -18 -103 -22 -58 -23 -59 -72 -70 -33 -7
-50 -15 -50 -25 0 -16 13 -17 58 -5 34 9 34 1 2 -75 -29 -68 -30 -80 -11 -80
9 0 26 32 44 83 l30 82 63 5 c37 3 64 10 67 18 4 12 -28 16 -90 12 l-27 -1 18
54 c11 30 21 74 23 98 3 39 1 44 -19 47 -21 3 -22 0 -18 -40z"/>
<path d="M3241 2692 c-5 -10 -14 -45 -20 -79 -18 -94 -40 -161 -82 -245 -41
-82 -47 -108 -26 -108 7 0 26 27 42 60 16 33 39 70 52 82 l23 21 0 -66 c0 -56
11 -89 25 -75 2 2 5 39 6 82 2 79 -7 101 -37 89 -11 -4 -11 4 0 44 8 26 20 75
26 108 7 33 15 65 18 70 12 19 10 35 -4 35 -7 0 -18 -8 -23 -18z"/>
<path d="M4260 2612 c0 -99 -16 -165 -55 -224 -29 -44 -58 -48 -63 -8 -4 39
20 76 46 72 28 -4 30 24 2 33 -28 9 -56 -10 -69 -46 -37 -106 31 -163 98 -83
52 64 72 136 69 244 -2 64 -7 95 -15 98 -10 3 -13 -19 -13 -86z"/>
<path d="M3057 2683 c-4 -3 -73 -7 -155 -7 -124 -1 -147 -3 -147 -16 0 -13 23
-15 148 -14 l147 0 -6 -35 c-3 -20 -25 -90 -49 -156 -24 -66 -46 -130 -50
-142 -8 -30 13 -39 25 -11 37 88 85 224 100 283 l18 70 48 5 c75 8 69 30 -8
30 -36 0 -68 -3 -71 -7z"/>
<path d="M6611 2615 c-12 -36 -29 -72 -36 -79 -8 -7 -36 -16 -64 -20 -28 -4
-53 -11 -57 -17 -12 -20 11 -28 53 -16 23 6 45 9 47 6 3 -2 1 -30 -3 -61 -15
-112 41 -169 132 -133 13 6 15 11 6 21 -8 10 -16 10 -33 2 -31 -13 -64 4 -72
38 -6 24 0 132 9 140 2 2 34 7 70 11 82 10 84 28 5 28 -32 0 -58 0 -58 1 0 1
11 27 25 58 28 63 31 86 12 86 -7 0 -23 -29 -36 -65z"/>
<path d="M10430 2650 c0 -11 -8 -48 -17 -82 -19 -67 -36 -80 -122 -94 -25 -4
-41 -12 -41 -20 0 -17 5 -17 70 -3 28 6 54 9 56 6 3 -3 -9 -40 -26 -82 -17
-43 -28 -80 -26 -83 15 -14 35 15 65 96 34 93 43 102 99 102 13 0 22 6 22 16
0 13 -8 15 -40 12 -32 -3 -39 -1 -36 12 3 8 10 35 16 60 6 25 13 53 16 63 4
12 0 17 -15 17 -14 0 -21 -6 -21 -20z"/>
<path d="M10649 2643 c-6 -16 -19 -44 -29 -63 -10 -19 -28 -66 -39 -104 -12
-38 -35 -96 -51 -128 -29 -56 -31 -78 -10 -78 5 0 17 15 26 33 17 33 92 117
106 117 4 0 3 -12 -2 -26 -18 -46 -30 -112 -24 -128 11 -30 34 -18 34 17 0 19
7 56 15 83 8 27 15 56 15 65 0 25 -30 32 -57 13 -14 -8 -27 -14 -29 -11 -6 6
37 121 65 172 11 22 21 45 21 52 0 24 -30 13 -41 -14z"/>
<path d="M6827 2623 c-4 -3 -7 -22 -7 -42 0 -33 -24 -143 -48 -218 -15 -47 5
-53 37 -12 14 19 39 47 54 64 l28 30 -3 -65 c-2 -52 0 -65 12 -65 11 0 16 16
21 65 3 36 4 70 1 77 -8 25 -33 21 -69 -10 -20 -18 -34 -27 -30 -21 11 18 36
176 30 190 -6 15 -16 18 -26 7z"/>
<path d="M2053 2551 l-18 -59 -28 24 c-19 16 -41 24 -66 24 -36 0 -81 -22 -81
-40 0 -22 65 -81 101 -91 21 -7 39 -16 39 -21 0 -5 -16 -34 -35 -64 -56 -87
-46 -95 45 -34 32 22 63 40 67 40 5 0 15 -20 22 -45 15 -49 33 -70 56 -61 21
8 19 54 -5 101 -11 22 -20 40 -20 41 0 2 72 31 93 38 10 3 15 11 11 17 -4 8
-27 10 -65 6 l-59 -5 0 56 c0 139 -28 173 -57 73z m27 -78 c-1 -32 -4 -43 -9
-33 -8 14 -4 80 5 80 2 0 4 -21 4 -47z m-85 11 c28 -30 32 -54 10 -54 -24 0
-79 25 -93 43 -36 42 45 53 83 11z m79 -103 c3 -5 -12 -20 -34 -35 l-40 -26
18 35 c16 33 44 46 56 26z"/>
<path d="M4440 2596 c0 -10 9 -16 21 -16 24 0 21 23 -4 28 -10 2 -17 -3 -17
-12z"/>
<path d="M5775 2600 c-11 -17 5 -30 36 -30 36 0 38 17 3 30 -31 12 -31 12 -39
0z"/>
<path d="M8464 2518 c-15 -13 -36 -21 -46 -20 -13 2 -18 -6 -23 -35 -3 -21
-13 -62 -21 -91 -9 -30 -13 -56 -10 -59 13 -14 36 10 47 49 17 63 46 115 75
135 25 16 27 16 40 -1 7 -11 15 -24 17 -30 3 -8 8 -8 17 0 9 9 9 17 -1 35 -23
46 -52 50 -95 17z"/>
<path d="M4946 2518 c-4 -12 -15 -104 -19 -158 -1 -16 4 -26 16 -28 12 -3 17
3 17 21 0 49 56 147 84 147 7 0 21 -9 31 -20 17 -19 35 -19 35 1 0 17 -40 49
-62 49 -12 0 -35 -12 -51 -27 l-29 -28 4 24 c3 26 -19 42 -26 19z"/>
<path d="M7037 2510 c-35 -28 -67 -98 -67 -147 0 -67 39 -92 112 -73 64 17
108 39 108 55 0 19 1 19 -54 -6 -29 -13 -62 -19 -89 -17 -40 3 -42 5 -45 38
-3 33 0 36 47 59 69 32 87 54 73 86 -14 31 -49 33 -85 5z m53 -23 c0 -12 -24
-29 -65 -45 -5 -3 3 9 19 27 32 33 46 39 46 18z"/>
<path d="M3923 2488 c-36 -38 -63 -88 -63 -116 0 -11 -7 -22 -15 -26 -20 -7
-19 -26 2 -26 9 0 24 -7 33 -15 30 -27 82 -29 138 -5 29 12 52 29 52 36 0 19
-15 18 -46 -3 -25 -16 -106 -24 -119 -11 -4 4 20 33 54 66 64 63 73 88 43 115
-27 25 -44 21 -79 -15z m52 -41 c-18 -28 -85 -83 -85 -70 0 15 42 78 63 95 29
23 43 7 22 -25z"/>
<path d="M4788 2500 c-25 -15 -58 -74 -58 -104 0 -82 86 -92 126 -15 18 37 12
74 -18 107 -24 25 -26 25 -50 12z m41 -57 c10 -23 9 -30 -7 -52 -41 -55 -80
-15 -47 48 19 38 38 39 54 4z"/>
<path d="M5883 2488 c-34 -16 -34 -33 -3 -80 32 -48 28 -63 -24 -76 -43 -12
-70 -4 -55 14 7 8 9 17 6 21 -4 3 -2 12 5 20 16 20 -3 37 -24 21 -24 -20 -32
-82 -12 -99 37 -30 145 -2 159 42 5 14 -2 34 -20 61 -29 44 -24 58 23 58 31 0
23 24 -9 27 -13 1 -34 -3 -46 -9z"/>
<path d="M10786 2479 c-63 -50 -104 -167 -76 -219 14 -26 59 -38 112 -30 49 7
118 46 118 67 0 15 -19 11 -53 -12 -39 -25 -128 -33 -146 -12 -17 22 -10 51
14 56 31 6 114 80 122 109 4 19 1 30 -17 44 -29 23 -41 23 -74 -3z m56 -44
c-12 -20 -79 -75 -91 -75 -15 0 13 55 45 87 20 20 28 22 39 13 8 -7 11 -18 7
-25z"/>
<path d="M3395 2481 c-44 -18 -85 -98 -85 -165 0 -90 96 -104 159 -24 13 16
17 29 11 33 -5 3 -10 1 -10 -6 0 -7 -3 -9 -6 -6 -4 4 -20 -5 -36 -18 -50 -42
-88 -28 -88 33 0 29 3 34 19 29 33 -8 79 28 92 73 11 35 10 43 -2 51 -17 10
-27 10 -54 0z m25 -45 c0 -19 -27 -46 -46 -46 -18 0 -18 10 2 38 17 25 44 30
44 8z"/>
<path d="M5710 2461 c0 -17 -9 -53 -20 -81 -23 -59 -25 -80 -7 -80 13 0 54
106 59 155 2 22 -2 31 -14 33 -14 3 -18 -3 -18 -27z"/>
<path d="M7936 2471 c-32 -21 -86 -95 -86 -118 0 -62 65 -116 118 -97 28 10
29 31 2 27 -30 -5 -60 8 -76 32 -20 31 -8 68 37 111 26 25 31 26 54 14 39 -21
54 1 19 29 -32 26 -32 26 -68 2z"/>
<path d="M8164 2466 c3 -14 1 -28 -4 -31 -16 -10 -50 -82 -50 -105 0 -11 9
-29 20 -40 38 -38 118 -18 159 39 25 35 26 62 6 101 -19 36 -47 52 -79 44 -13
-3 -27 -1 -30 5 -13 21 -28 11 -22 -13z m100 -48 c24 -34 20 -53 -19 -87 -39
-34 -75 -40 -95 -16 -16 19 1 63 37 100 32 31 57 32 77 3z"/>
<path d="M8616 2469 c-56 -44 -83 -141 -52 -185 11 -15 27 -19 74 -19 36 0 66
5 76 14 26 22 6 31 -41 18 -31 -8 -48 -8 -67 1 -34 15 -35 55 -3 69 69 32 112
101 71 117 -24 9 -29 8 -58 -15z m44 -18 c0 -5 -14 -20 -31 -32 -31 -22 -31
-22 -20 -1 6 12 19 26 29 31 21 13 22 13 22 2z"/>
<path d="M4386 2438 c-4 -24 -9 -58 -12 -75 -5 -26 -3 -33 9 -33 11 0 18 13
22 38 4 20 10 51 15 69 8 33 5 43 -15 43 -7 0 -15 -19 -19 -42z"/>
<path d="M9337 2460 c-76 -60 -73 -160 5 -160 32 0 88 38 108 73 14 25 13 30
-5 65 -25 46 -66 54 -108 22z m76 -31 c19 -27 11 -55 -23 -79 -33 -24 -68 -26
-76 -5 -13 34 37 105 73 105 6 0 18 -9 26 -21z"/>
<path d="M11914 2430 c-26 -10 -60 -56 -69 -93 -5 -20 -1 -32 19 -51 29 -30
52 -33 86 -9 36 25 49 45 50 75 0 30 -19 78 -31 78 -4 0 -13 2 -21 4 -7 3 -23
1 -34 -4z m46 -44 c17 -22 8 -56 -20 -78 -33 -24 -60 -15 -60 21 0 55 51 91
80 57z"/>
<path d="M12100 2432 c-50 -16 -74 -84 -46 -127 23 -34 68 -34 95 1 26 33 26
45 2 75 -10 13 -16 29 -14 35 5 14 -16 23 -37 16z m29 -69 c12 -23 -4 -53 -29
-53 -21 0 -37 40 -25 59 10 17 43 13 54 -6z"/>
</g>
</svg>
