<?xml version="1.0" standalone="no"?>
<!DOCTYPE svg PUBLIC "-//W3C//DTD SVG 20010904//EN"
 "http://www.w3.org/TR/2001/REC-SVG-20010904/DTD/svg10.dtd">
<svg version="1.0" xmlns="http://www.w3.org/2000/svg"
 width="1618.000000pt" height="1214.000000pt" viewBox="0 0 1618.000000 1214.000000"
 preserveAspectRatio="xMidYMid meet">

<g transform="translate(0.000000,1214.000000) scale(0.100000,-0.100000)"
fill="#000000" stroke="none">
<path d="M14612 11757 c-5 -6 -13 -23 -17 -36 -9 -29 -76 -171 -81 -171 -2 0
-1 7 2 15 5 11 -1 15 -24 15 -46 0 -116 -73 -136 -141 -21 -69 -20 -91 5 -122
l20 -27 -42 -84 c-23 -46 -38 -89 -35 -95 12 -19 36 -12 36 9 0 11 15 51 34
88 33 65 36 68 88 85 66 21 133 75 148 122 15 45 -3 115 -31 122 -25 7 -25 13
15 102 19 42 37 86 40 98 8 25 -7 39 -22 20z m-118 -234 c-1 -16 -22 -66 -47
-112 -41 -76 -46 -82 -56 -63 -25 47 -8 105 48 165 42 44 59 47 55 10z m90
-48 c9 -34 -16 -88 -52 -113 -35 -26 -78 -43 -85 -35 -6 5 51 126 80 170 18
28 47 17 57 -22z"/>
<path d="M12456 11715 c4 -8 1 -15 -5 -15 -6 0 -11 -10 -12 -22 0 -13 -10 -43
-22 -68 -20 -41 -26 -46 -72 -54 -28 -6 -52 -12 -55 -15 -3 -4 -22 -19 -43
-35 -53 -39 -77 -82 -77 -135 0 -39 5 -49 39 -80 l38 -35 -54 -112 c-39 -78
-53 -118 -48 -133 10 -31 34 -26 33 7 -1 15 21 73 48 130 47 98 50 103 76 98
66 -13 174 39 198 95 15 34 -7 90 -55 139 l-34 35 34 90 c18 49 38 91 44 93
22 7 11 32 -14 32 -18 0 -23 -4 -19 -15z m-96 -220 c0 -13 -84 -191 -97 -205
-10 -11 -63 62 -63 86 0 36 34 88 73 113 38 25 87 28 87 6z m80 -57 c47 -64
36 -109 -37 -147 -20 -10 -103 -16 -103 -7 0 15 94 196 101 196 5 0 22 -19 39
-42z"/>
<path d="M14952 11635 c-42 -18 -56 -55 -39 -98 13 -30 12 -34 -15 -68 -40
-49 -46 -96 -18 -132 28 -35 81 -38 104 -5 20 29 20 90 1 129 -9 16 -13 34 -9
40 3 6 34 23 69 39 60 27 85 53 64 66 -6 3 -18 -1 -27 -9 -24 -20 -129 -66
-136 -59 -11 10 -6 49 7 60 6 6 24 13 40 17 23 6 27 4 27 -14 0 -14 5 -19 15
-15 9 4 15 19 15 35 0 26 -3 29 -32 29 -18 -1 -48 -7 -66 -15z m6 -190 c25
-54 10 -105 -30 -105 -39 0 -45 55 -10 108 18 28 26 28 40 -3z"/>
<path d="M13203 11619 c-34 -10 -103 -69 -103 -88 0 -15 27 -14 37 2 27 44
117 74 129 43 14 -36 -94 -188 -142 -200 -33 -9 -104 -81 -104 -106 0 -33 28
-23 87 33 l55 52 -7 -42 c-12 -75 32 -108 86 -64 30 24 18 38 -17 22 -14 -6
-29 -9 -34 -6 -5 3 -6 31 -3 63 5 46 14 66 46 107 68 85 82 140 47 175 -22 22
-29 23 -77 9z"/>
<path d="M14180 11605 c-25 -14 -60 -32 -78 -41 -33 -14 -35 -34 -5 -34 9 0
37 13 62 28 51 32 88 44 96 32 14 -23 -13 -77 -68 -136 -48 -52 -65 -64 -90
-64 -22 0 -40 -10 -69 -40 -40 -43 -50 -80 -20 -80 9 0 40 18 69 40 29 21 54
36 56 32 3 -4 10 -24 16 -45 12 -37 46 -57 70 -42 18 10 12 25 -9 25 -13 0
-24 10 -30 28 -6 15 -15 35 -21 45 -8 15 -6 22 8 35 97 89 140 172 113 221
-14 28 -46 26 -100 -4z"/>
<path d="M12563 11458 c-29 -90 -53 -174 -54 -188 -2 -47 1 -60 16 -60 11 0
15 11 15 40 0 21 23 107 50 191 54 163 57 179 37 179 -7 0 -33 -65 -64 -162z"/>
<path d="M14717 11603 c-4 -3 -7 -18 -7 -32 -1 -14 -20 -84 -44 -156 -26 -77
-40 -134 -35 -139 15 -17 26 4 67 134 49 157 58 200 39 200 -7 0 -17 -3 -20
-7z"/>
<path d="M13474 11571 c-54 -33 -112 -125 -134 -213 -15 -59 -2 -108 33 -128
24 -13 30 -13 61 4 42 22 63 65 46 95 -18 34 -100 22 -100 -14 0 -18 21 -20
37 -4 7 7 19 9 28 5 20 -7 5 -40 -26 -57 -17 -9 -25 -8 -37 5 -25 25 -19 86
16 158 37 75 65 110 110 132 17 9 32 21 32 26 0 16 -33 11 -66 -9z"/>
<path d="M3397 11334 c-32 -18 -28 -35 8 -28 29 5 30 15 -12 -158 l-26 -107
-41 -7 c-57 -9 -101 -33 -88 -46 8 -8 19 -8 39 0 15 6 40 13 55 16 l27 6 -25
-72 c-29 -85 -28 -80 -7 -76 10 2 24 27 38 68 21 63 23 65 61 70 26 3 40 11
42 22 3 14 -3 16 -32 11 -44 -7 -44 -11 -6 137 33 128 36 150 18 168 -15 15
-17 15 -51 -4z"/>
<path d="M13586 11293 c-11 -26 13 -42 29 -19 8 10 12 23 9 27 -9 15 -31 10
-38 -8z"/>
<path d="M12643 11278 c-27 -13 -29 -26 -8 -34 18 -7 45 12 45 32 0 16 -7 17
-37 2z"/>
<path d="M2679 11235 c-8 -8 -55 -25 -104 -38 l-89 -22 -1 -50 c-1 -27 -11
-90 -23 -140 -26 -109 -28 -155 -7 -155 9 0 15 9 15 25 0 34 19 53 47 47 12
-2 31 -1 40 3 23 10 31 12 76 13 24 1 37 7 37 16 0 19 -35 27 -68 15 -15 -5
-49 -13 -75 -18 -47 -8 -49 -8 -43 13 3 11 6 28 6 36 0 11 26 22 88 38 101 27
121 37 107 51 -7 7 -36 2 -88 -14 -84 -27 -101 -30 -93 -16 3 5 8 30 11 57 7
58 11 64 37 64 15 0 18 4 14 16 -5 14 -4 15 8 5 12 -10 28 -9 76 3 34 9 64 16
66 16 10 0 3 28 -9 38 -10 9 -17 8 -28 -3z"/>
<path d="M2969 11243 c-1 -5 -1 -33 0 -63 3 -102 -38 -213 -108 -287 -37 -40
-61 -43 -61 -8 0 57 47 108 77 84 10 -9 17 -9 25 -1 18 18 1 42 -30 42 -58 0
-107 -64 -100 -130 4 -39 25 -55 61 -46 34 8 111 107 137 177 25 66 42 208 27
227 -11 13 -26 16 -28 5z"/>
<path d="M6569 11218 c0 -2 -2 -19 -4 -38 -2 -19 -13 -66 -23 -105 l-18 -70
-58 1 c-47 1 -56 -1 -54 -15 2 -12 17 -17 52 -19 l48 -3 -7 -46 c-4 -25 -9
-51 -12 -59 -3 -8 2 -11 13 -10 13 2 21 17 29 57 9 48 13 54 37 57 27 3 62 32
39 32 -7 0 -9 5 -5 11 4 7 -1 7 -16 -1 -12 -6 -24 -9 -27 -6 -3 3 4 44 16 90
25 101 26 126 6 126 -8 0 -15 -1 -16 -2z"/>
<path d="M6790 11090 c0 -15 7 -20 25 -20 28 0 34 24 9 34 -26 10 -34 7 -34
-14z"/>
<path d="M3118 11094 c-11 -10 3 -34 19 -34 8 0 13 7 11 17 -3 18 -20 27 -30
17z"/>
<path d="M5826 11055 c-22 -23 -90 -195 -81 -204 14 -13 35 17 56 80 13 40 31
82 41 93 15 20 17 20 35 3 34 -30 46 0 13 33 -26 26 -36 25 -64 -5z"/>
<path d="M8029 11066 c-51 -12 -79 -31 -79 -52 0 -8 16 -31 35 -53 19 -21 35
-43 35 -48 0 -13 -53 -51 -82 -58 -21 -5 -24 -3 -23 21 0 15 -5 29 -10 31 -14
4 -36 -54 -28 -74 10 -25 87 -11 131 24 51 41 53 71 7 121 -20 22 -32 42 -28
45 9 5 70 20 93 22 23 2 41 15 35 26 -7 11 -26 10 -86 -5z"/>
<path d="M4670 11047 c0 -39 -10 -56 -41 -72 -55 -29 -89 -17 -103 35 -12 51
-21 56 -61 37 -38 -18 -135 -103 -135 -118 0 -14 28 -10 37 5 14 22 112 88
123 81 5 -3 10 -14 10 -24 0 -31 38 -61 78 -61 68 0 127 52 120 107 -4 35 -28
43 -28 10z"/>
<path d="M5585 11063 c-39 -6 -73 -38 -97 -91 -24 -54 -18 -87 22 -107 54 -28
180 -12 180 22 0 11 -6 13 -22 8 -13 -4 -46 -9 -73 -12 -40 -4 -55 -1 -74 14
-23 18 -23 20 -7 58 25 59 44 75 88 75 31 0 39 3 36 17 -4 19 -12 21 -53 16z"/>
<path d="M9503 11045 c-32 -22 -63 -78 -63 -114 0 -35 30 -71 59 -71 32 0 34
18 4 32 -43 20 -42 51 3 67 37 13 74 44 74 60 0 14 -29 41 -43 41 -7 0 -22 -7
-34 -15z m37 -24 c0 -5 -12 -16 -26 -26 -25 -16 -25 -16 -15 3 9 17 19 25 39
31 1 1 2 -3 2 -8z"/>
<path d="M9746 11034 c-76 -15 -102 -32 -123 -83 -11 -25 -12 -36 -3 -45 9 -8
18 -3 36 19 13 17 22 35 19 42 -6 17 5 22 72 34 82 14 93 18 93 35 0 16 -3 16
-94 -2z"/>
<path d="M8456 11033 c-3 -3 -6 -26 -6 -50 0 -35 -6 -50 -37 -84 -32 -36 -80
-69 -99 -69 -7 0 1 82 11 118 13 41 -21 24 -53 -27 -37 -60 -115 -122 -120
-96 -2 10 11 49 28 87 24 51 29 73 21 81 -14 14 -12 17 -56 -82 -31 -70 -35
-87 -26 -107 18 -40 56 -29 129 39 l32 31 0 -31 c0 -52 21 -59 82 -26 74 40
118 100 118 163 0 46 -9 67 -24 53z"/>
<path d="M8923 11028 c-12 -6 -32 -30 -45 -54 -21 -41 -22 -45 -6 -60 15 -15
21 -15 61 -2 l45 15 17 -37 c21 -47 24 -121 6 -182 -12 -42 -17 -48 -40 -48
-33 0 -47 -9 -55 -38 -17 -53 40 -70 76 -22 12 17 27 30 34 30 18 0 29 21 15
29 -9 6 -9 15 0 37 21 53 16 155 -9 215 -57 131 -61 135 -99 117z m37 -52 c0
-18 -8 -27 -30 -35 -35 -12 -40 1 -14 37 20 29 44 28 44 -2z m-8 -368 c-7 -7
-12 -8 -12 -2 0 14 12 26 19 19 2 -3 -1 -11 -7 -17z"/>
<path d="M5992 11010 c-18 -11 -40 -36 -49 -55 -25 -52 -8 -80 61 -100 54 -16
82 -13 71 5 -3 5 -25 15 -48 21 l-42 12 33 9 c17 5 32 12 32 17 0 5 9 11 20
14 41 11 14 97 -31 97 -8 0 -29 -9 -47 -20z m64 -25 c9 -22 -13 -43 -54 -55
-50 -13 -53 -4 -10 36 41 37 56 42 64 19z"/>
<path d="M3794 10977 c-21 -25 -47 -56 -57 -68 -10 -13 -16 -19 -13 -12 4 6 0
14 -6 16 -8 3 -6 6 5 6 19 1 21 9 7 31 -17 28 -29 -3 -31 -85 -2 -65 1 -81 13
-83 10 -2 19 11 28 43 16 58 61 129 96 151 25 17 27 17 40 -1 11 -15 17 -16
26 -7 19 19 -3 46 -39 50 -24 2 -36 -5 -69 -41z"/>
<path d="M6214 11012 c-24 -15 -64 -86 -64 -113 0 -46 42 -49 103 -7 l27 19 0
-34 c0 -34 13 -48 38 -40 6 3 12 11 12 18 0 7 -6 15 -12 18 -10 3 -10 11 0 39
24 69 12 74 -57 25 -52 -38 -81 -51 -81 -36 0 19 30 68 51 83 29 20 12 48 -17
28z"/>
<path d="M8570 10982 c-64 -64 -51 -122 27 -122 15 0 35 4 43 9 10 7 18 4 28
-10 16 -23 62 -26 62 -4 0 8 -7 15 -15 15 -24 0 -28 25 -10 60 13 25 14 35 5
44 -9 8 -16 5 -28 -14 -34 -50 -61 -71 -90 -68 -16 2 -28 10 -30 21 -5 24 54
77 85 77 34 0 24 24 -11 28 -20 3 -36 -6 -66 -36z"/>
<path d="M9191 10999 c-23 -22 -36 -61 -27 -84 7 -19 43 -19 80 0 16 9 31 13
34 10 12 -12 12 -174 0 -230 -12 -55 -15 -60 -43 -65 -40 -7 -58 -46 -50 -105
4 -24 15 -51 25 -60 16 -15 19 -14 38 10 11 14 23 44 27 65 4 24 14 44 26 50
22 12 25 30 5 30 -11 0 -11 10 1 68 20 96 20 178 -1 239 -14 42 -24 55 -55 72
-39 19 -39 19 -60 0z m54 -42 c-6 -13 -44 -31 -52 -23 -9 9 12 35 30 38 28 5
29 4 22 -15z m4 -399 c-14 -59 -22 -68 -30 -30 -9 44 -1 72 21 72 16 0 17 -5
9 -42z"/>
<path d="M3570 11001 c0 -5 14 -19 30 -31 34 -24 39 -57 13 -88 -21 -23 -77
-44 -98 -36 -35 14 -6 92 37 101 32 6 38 33 7 33 -36 0 -60 -20 -81 -66 -18
-41 -18 -47 -4 -69 21 -32 49 -39 94 -25 89 29 122 113 66 165 -27 25 -64 34
-64 16z"/>
<path d="M3072 10938 c-11 -35 -17 -68 -15 -75 9 -22 33 -14 33 11 0 13 7 43
15 66 19 53 19 60 0 60 -9 0 -21 -23 -33 -62z"/>
<path d="M6709 10964 c-35 -91 -57 -170 -48 -178 14 -15 24 2 43 74 10 36 23
75 29 88 8 16 7 26 -1 34 -8 8 -14 4 -23 -18z"/>
<path d="M6879 10965 c-26 -14 -119 -128 -119 -145 0 -26 22 -15 49 23 16 24
46 58 66 75 36 32 72 43 62 20 -3 -7 -13 -33 -23 -58 -10 -25 -22 -48 -28 -52
-8 -5 -7 -11 2 -20 10 -10 15 -9 26 2 19 22 58 126 54 147 -4 23 -54 28 -89 8z"/>
<path d="M7167 10934 c-8 -45 -32 -74 -64 -74 -32 0 -31 34 3 65 23 21 24 26
10 31 -20 8 -42 -10 -62 -47 -23 -46 -2 -79 50 -79 33 0 86 43 86 69 0 14 1
14 10 1 15 -23 12 -111 -6 -163 -14 -43 -19 -47 -48 -47 -59 0 -116 -81 -116
-166 0 -19 6 -34 15 -38 23 -8 85 53 120 117 l29 55 28 -20 c17 -12 36 -17 46
-13 18 7 18 7 -40 49 -16 11 -16 16 -3 61 20 66 18 142 -5 193 -24 52 -45 55
-53 6z m-28 -314 c-13 -22 -35 -55 -51 -73 -25 -29 -27 -30 -28 -10 -1 52 47
123 82 123 18 0 18 -2 -3 -40z"/>
<path d="M2775 10465 c-33 -34 -60 -105 -115 -292 -15 -52 -26 -73 -38 -74 -9
-1 -26 -2 -37 -3 -31 -2 -24 -30 8 -34 15 -2 27 -4 27 -5 0 -1 -9 -26 -20 -55
-24 -62 -25 -72 -6 -72 7 0 24 29 38 68 23 63 27 68 64 77 21 6 45 14 52 18
22 14 3 26 -33 20 -20 -3 -35 -1 -35 4 0 17 58 217 75 258 19 45 62 95 83 95
9 0 11 -7 7 -22 -12 -37 -11 -43 5 -43 21 0 36 60 20 80 -21 26 -60 18 -95
-20z"/>
<path d="M5159 10418 c-100 -127 -153 -236 -166 -348 -4 -33 -13 -56 -29 -71
-13 -12 -24 -28 -24 -36 0 -13 -17 -17 -52 -14 -20 2 -24 -19 -7 -36 13 -13
56 6 83 36 16 18 18 18 46 -10 16 -16 38 -29 50 -29 30 0 60 18 60 35 0 18 -5
18 -32 4 -33 -17 -68 3 -68 40 0 16 5 33 10 36 6 4 8 11 5 16 -4 5 0 9 7 9 14
1 66 67 91 116 26 50 106 292 100 298 -15 15 -36 2 -74 -46z m-5 -115 c-46
-127 -57 -150 -99 -198 l-34 -40 20 74 c11 40 27 88 36 105 17 34 102 156 108
156 2 0 -12 -44 -31 -97z"/>
<path d="M3375 10329 c-32 -134 -81 -263 -104 -273 -22 -9 -29 -26 -11 -26 6
0 10 -9 10 -20 0 -11 -6 -20 -14 -20 -22 0 -30 -19 -16 -35 21 -26 38 -17 56
30 l17 45 66 0 c44 0 74 5 87 15 23 17 18 18 -78 15 l-68 -2 26 69 c26 69 74
238 74 261 0 6 -6 12 -14 12 -8 0 -20 -26 -31 -71z"/>
<path d="M8719 10338 c-15 -59 -81 -279 -85 -286 -1 -2 -21 -6 -43 -9 -55 -8
-56 -33 -1 -33 39 0 39 0 29 -27 -6 -16 -17 -35 -25 -44 -9 -10 -11 -19 -6
-23 21 -13 42 7 57 55 18 53 15 52 139 67 75 9 89 32 19 32 -26 -1 -67 -5 -90
-9 -24 -5 -43 -5 -43 -2 0 3 20 71 44 149 53 169 56 186 36 189 -11 3 -19 -14
-31 -59z"/>
<path d="M2280 10286 c0 -91 -35 -203 -53 -170 -14 26 -27 34 -58 34 -42 0
-103 -51 -127 -109 -37 -85 -9 -133 63 -108 73 25 174 155 195 250 14 65 10
169 -7 175 -10 3 -13 -16 -13 -72z m-80 -192 c12 -32 3 -50 -50 -97 -49 -45
-90 -50 -90 -11 0 39 26 86 63 112 42 29 65 28 77 -4z"/>
<path d="M6752 10268 c-8 -8 -12 -46 -12 -102 -1 -112 -10 -156 -46 -208 -36
-52 -79 -73 -117 -59 -39 15 -36 51 10 102 33 36 41 40 70 36 38 -7 47 15 14
33 -23 12 -45 5 -89 -29 -87 -67 -82 -163 9 -177 42 -7 88 22 131 82 37 52 47
96 48 205 0 49 5 90 11 96 11 11 5 33 -10 33 -4 0 -12 -5 -19 -12z"/>
<path d="M3206 10253 c-12 -12 -6 -33 9 -33 8 0 15 6 15 14 0 17 -14 28 -24
19z"/>
<path d="M3553 10243 c-21 -8 -15 -43 6 -43 11 0 23 5 27 11 8 14 -17 38 -33
32z"/>
<path d="M8953 10214 c-3 -8 -2 -19 3 -24 12 -11 48 16 39 29 -9 16 -35 13
-42 -5z"/>
<path d="M5272 10193 c5 -25 28 -28 28 -4 0 12 -6 21 -16 21 -9 0 -14 -7 -12
-17z"/>
<path d="M2850 10191 c0 -5 6 -14 14 -20 16 -13 32 2 21 19 -8 12 -35 13 -35
1z"/>
<path d="M2376 10139 c-68 -53 -98 -156 -58 -192 21 -20 65 -22 111 -6 33 12
38 37 5 30 -10 -3 -37 -5 -59 -5 -35 -1 -40 2 -43 22 -2 15 5 32 17 43 12 11
21 17 21 14 0 -13 47 27 63 54 16 27 16 31 1 45 -20 21 -26 20 -58 -5z m14
-44 c-13 -14 -26 -23 -28 -20 -7 7 29 45 41 45 6 0 0 -11 -13 -25z"/>
<path d="M5545 10129 c-27 -10 -61 -18 -75 -16 -23 2 -25 -2 -32 -55 -7 -59
-34 -135 -44 -125 -3 3 -11 38 -18 78 -7 43 -18 75 -26 77 -10 4 -12 -8 -7
-61 8 -84 30 -140 54 -135 24 4 61 80 69 139 6 44 8 47 43 53 44 8 104 37 103
51 -1 15 -14 14 -67 -6z"/>
<path d="M3045 10120 c-12 -4 -38 -25 -59 -46 -22 -22 -43 -39 -47 -39 -5 0
-18 -18 -29 -40 -36 -71 -20 -89 25 -27 36 47 107 122 117 122 4 0 8 -30 8
-67 0 -59 2 -65 14 -53 13 13 20 72 17 131 -1 21 -20 29 -46 19z"/>
<path d="M5682 10098 c-54 -38 -86 -123 -62 -167 23 -44 122 -51 208 -15 41
17 32 41 -9 26 -54 -21 -129 -25 -154 -8 -33 21 -31 31 5 46 71 29 110 82 90
121 -14 25 -38 24 -78 -3z m44 -43 c-6 -16 -65 -49 -73 -41 -4 3 11 22 33 42
35 34 54 34 40 -1z"/>
<path d="M7350 10095 c-18 -19 -25 -40 -28 -84 -4 -54 -2 -62 21 -85 16 -16
37 -26 55 -26 33 0 99 44 125 84 22 33 20 101 -3 101 -11 0 -14 -9 -12 -36 3
-31 -2 -41 -42 -77 -50 -46 -74 -52 -99 -24 -32 35 -16 125 23 135 12 3 20 11
18 19 -8 23 -33 20 -58 -7z"/>
<path d="M3910 10084 c-14 -10 -40 -31 -59 -48 l-34 -31 7 28 c5 23 4 28 -9
25 -10 -2 -24 -26 -34 -56 -30 -86 -5 -81 103 23 l31 29 3 -34 c4 -43 18 -60
46 -60 29 1 73 35 56 45 -6 4 -17 2 -23 -4 -6 -6 -20 -11 -30 -11 -16 0 -18 6
-15 52 3 57 -5 66 -42 42z"/>
<path d="M9366 10059 c-54 -39 -57 -40 -54 -18 2 16 -2 24 -12 24 -8 0 -16
-10 -18 -22 -2 -13 -26 -48 -54 -78 -32 -35 -48 -61 -44 -71 7 -18 31 -1 155
103 41 35 78 63 83 63 5 0 -1 -18 -12 -40 -24 -46 -26 -103 -5 -120 37 -31
208 22 175 54 -9 8 -14 8 -17 -1 -5 -15 -105 -38 -127 -30 -23 9 -20 40 9 97
14 27 25 56 25 65 0 27 -45 16 -104 -26z"/>
<path d="M5197 10083 c-14 -29 -39 -135 -33 -148 10 -27 22 -9 35 52 7 32 17
65 21 74 9 17 4 29 -11 29 -4 0 -10 -3 -12 -7z"/>
<path d="M7071 10045 c-46 -50 -55 -97 -22 -115 26 -14 124 -13 156 2 32 15
35 43 3 31 -13 -4 -50 -8 -83 -8 -77 0 -82 17 -22 79 25 25 42 47 39 50 -13
14 -32 3 -71 -39z"/>
<path d="M8051 10072 c-50 -23 -101 -90 -101 -129 0 -44 30 -73 76 -73 56 0
124 20 124 37 0 12 -6 13 -27 7 -52 -15 -125 -11 -137 9 -8 13 -8 20 3 26 7 5
10 14 6 21 -6 9 -3 9 12 2 14 -8 29 -6 59 7 50 23 68 44 60 75 -8 31 -36 38
-75 18z m49 -32 c0 -9 -71 -50 -86 -50 -4 0 5 14 21 30 28 29 65 40 65 20z"/>
<path d="M3640 10040 c-49 -51 -59 -83 -34 -111 14 -15 26 -19 48 -15 69 14
95 57 61 102 -8 10 -15 27 -15 36 0 33 -21 29 -60 -12z m48 -41 c17 -26 1 -47
-37 -51 -32 -4 -36 13 -11 45 26 33 31 33 48 6z"/>
<path d="M6869 10065 c-16 -8 -35 -35 -49 -67 -22 -51 -22 -53 -5 -85 10 -18
25 -33 34 -34 100 -7 162 88 112 169 -23 35 -49 40 -92 17z m81 -81 c0 -34
-37 -74 -70 -74 -45 0 -54 28 -27 81 13 26 29 44 39 44 9 0 20 4 24 8 10 10
33 -31 34 -59z"/>
<path d="M7645 10068 c-2 -7 -9 -33 -15 -57 -7 -25 -23 -59 -36 -76 -29 -38
-30 -45 -6 -45 9 0 27 15 39 33 42 60 81 98 88 87 4 -6 0 -17 -8 -23 -20 -16
-30 -54 -17 -62 7 -4 28 8 48 27 21 18 50 45 66 58 l29 25 -6 -46 c-8 -56 11
-91 39 -73 24 14 29 34 10 34 -11 0 -16 14 -18 57 -4 74 -21 79 -81 24 l-43
-40 4 29 c4 26 1 30 -19 30 -12 0 -30 -7 -39 -15 -15 -14 -16 -12 -12 15 4 30
-14 44 -23 18z"/>
<path d="M8350 10073 c-8 -3 -38 -28 -67 -55 -28 -28 -55 -48 -60 -45 -12 8
-34 -7 -37 -24 -1 -8 -7 -24 -14 -36 -14 -26 -15 -43 -2 -43 5 0 47 39 94 87
46 49 88 85 92 81 4 -5 -5 -38 -19 -76 -31 -77 -34 -112 -12 -112 8 0 15 8 15
17 0 9 14 54 31 100 38 100 33 125 -21 106z"/>
<path d="M3125 10033 c-9 -20 -13 -43 -10 -51 8 -21 30 -9 33 19 2 13 8 28 13
34 14 14 11 35 -6 35 -8 0 -22 -17 -30 -37z"/>
<path d="M9097 10059 c-61 -14 -114 -46 -136 -82 -26 -43 -27 -69 -1 -92 29
-26 81 -22 134 9 53 31 78 67 78 112 0 32 -16 65 -31 63 -3 -1 -23 -5 -44 -10z
m24 -56 c29 8 24 -25 -8 -55 -38 -35 -66 -48 -103 -48 -65 0 -41 66 41 108 39
20 44 21 47 6 3 -10 11 -14 23 -11z"/>
<path d="M2771 10031 c-18 -33 -19 -96 -1 -96 10 0 17 16 22 50 8 55 -4 79
-21 46z"/>
<path d="M8874 10038 c-6 -7 -22 -36 -37 -64 -22 -42 -24 -53 -13 -57 14 -6
28 12 65 86 16 30 3 60 -15 35z"/>
<path d="M3469 10018 c-17 -27 -13 -68 6 -68 17 0 32 67 18 81 -7 7 -15 2 -24
-13z"/>
<path d="M9808 9979 c-27 -15 -21 -31 9 -27 43 5 40 -25 -6 -81 -46 -55 -48
-61 -23 -61 19 0 85 80 96 117 5 15 1 28 -13 42 -23 23 -37 25 -63 10z"/>
<path d="M4491 9857 c-26 -53 -26 -67 -3 -67 11 0 21 13 30 40 24 79 7 97 -27
27z"/>
<path d="M5199 9470 c-87 -57 -107 -99 -145 -298 -4 -21 -10 -23 -52 -21 -27
1 -54 -1 -60 -5 -23 -14 -1 -26 50 -26 50 0 50 0 44 -27 -4 -16 -21 -56 -38
-90 -23 -45 -29 -66 -21 -74 12 -12 56 58 83 136 16 48 19 50 64 60 57 12 57
31 0 29 l-40 -2 12 77 c7 42 17 88 22 102 23 60 121 144 159 137 11 -2 18 3
18 12 0 27 -48 22 -96 -10z"/>
<path d="M2304 9448 c-4 -7 -7 -25 -6 -41 2 -22 -48 -158 -65 -177 -2 -2 -38
-5 -80 -7 -42 -2 -78 -5 -81 -7 -14 -15 18 -26 78 -26 l69 0 -14 -41 c-21 -58
-19 -112 3 -132 22 -20 87 -24 76 -5 -5 8 -2 9 10 5 10 -4 27 -2 38 4 19 10
19 12 5 21 -11 5 -24 5 -37 -2 -12 -6 -33 -10 -48 -8 -35 4 -40 39 -17 108 14
43 20 50 43 50 34 0 57 14 48 29 -4 6 -18 11 -32 11 -13 0 -24 2 -24 4 0 2 13
32 29 67 31 69 44 149 24 156 -6 2 -15 -2 -19 -9z"/>
<path d="M10484 9413 c-3 -10 -21 -51 -40 -90 -36 -78 -40 -80 -116 -74 -16 1
-28 -2 -28 -8 0 -17 40 -33 69 -29 l28 4 -19 -59 c-25 -82 -24 -141 4 -167 26
-24 101 -27 153 -6 42 18 48 41 8 32 -66 -16 -123 -18 -138 -6 -21 17 -19 66
5 143 l20 66 57 3 c75 4 86 28 14 28 -28 0 -51 2 -51 5 0 3 13 31 29 63 38 77
46 112 26 112 -9 0 -18 -8 -21 -17z"/>
<path d="M3186 9399 c-3 -8 -15 -54 -27 -104 -12 -49 -30 -109 -41 -133 -21
-50 -23 -82 -6 -82 7 0 31 19 55 42 38 37 43 39 49 22 19 -60 28 -74 45 -74
11 0 19 7 19 15 0 8 -4 15 -10 15 -5 0 -15 21 -21 46 -14 55 -31 64 -69 35
l-29 -21 18 53 c30 89 45 177 33 189 -8 8 -13 8 -16 -3z"/>
<path d="M5686 9329 c-14 -33 -26 -67 -26 -76 0 -8 -13 -55 -30 -105 -16 -49
-30 -91 -30 -94 0 -17 41 4 88 46 31 28 59 50 62 50 3 0 15 -6 25 -14 14 -10
20 -30 23 -75 5 -66 15 -83 31 -52 17 31 -4 122 -33 147 l-25 22 49 41 c26 22
64 50 84 62 39 23 46 39 18 39 -21 0 -89 -46 -137 -91 -27 -26 -115 -66 -115
-53 0 17 35 125 52 157 18 35 17 57 -1 57 -5 0 -20 -27 -35 -61z m-6 -193 c0
-2 -8 -10 -17 -17 -16 -13 -17 -12 -4 4 13 16 21 21 21 13z"/>
<path d="M11169 9388 c0 -2 -2 -10 -4 -18 -1 -9 -10 -40 -19 -70 -71 -243 -86
-335 -57 -335 10 0 15 13 17 42 1 22 10 67 19 100 27 91 65 246 65 265 0 14
-17 27 -21 16z"/>
<path d="M13941 9276 c-7 -8 -8 -17 -3 -20 14 -8 53 6 49 18 -6 17 -32 19 -46
2z"/>
<path d="M7842 9270 c-34 -14 -36 -33 -7 -91 32 -63 36 -126 8 -147 -16 -11
-21 -10 -40 13 -13 15 -23 39 -23 56 0 36 -23 35 -28 0 -8 -52 47 -119 87
-106 57 18 71 99 31 184 -20 44 -22 54 -10 61 16 10 58 3 77 -12 7 -5 17 -7
22 -4 13 8 4 33 -15 40 -10 4 -13 2 -8 -7 4 -6 -2 -4 -13 6 -21 19 -46 21 -81
7z"/>
<path d="M6015 9246 c-14 -10 -17 -18 -9 -25 12 -13 66 8 61 24 -6 16 -31 17
-52 1z"/>
<path d="M9635 9241 c-51 -32 -95 -86 -101 -122 -5 -28 -1 -41 21 -67 27 -32
102 -62 114 -45 3 4 17 8 30 8 13 0 26 6 29 13 3 9 -12 12 -53 12 -66 0 -92
12 -105 46 -20 51 58 141 112 130 23 -5 28 -2 28 14 0 11 -4 20 -9 20 -5 0
-15 2 -23 5 -7 3 -26 -3 -43 -14z"/>
<path d="M10701 9224 c-11 -14 -23 -34 -26 -45 -4 -10 -15 -19 -26 -19 -12 0
-19 -7 -19 -20 0 -11 -9 -43 -20 -72 -23 -61 -25 -78 -7 -77 6 0 37 50 67 111
30 60 61 113 69 116 7 3 22 0 32 -6 37 -23 53 -8 23 22 -24 25 -69 20 -93 -10z"/>
<path d="M8527 9229 c-32 -18 -57 -88 -57 -157 0 -47 3 -63 13 -59 6 2 13 21
13 43 2 56 21 118 42 137 13 12 28 15 50 11 25 -5 32 -3 32 9 0 8 -13 17 -31
21 -40 8 -40 8 -62 -5z"/>
<path d="M8696 9218 c-33 -25 -56 -74 -56 -118 0 -53 83 -116 105 -80 3 5 12
7 20 3 8 -3 15 0 15 6 0 6 -15 11 -33 11 -50 0 -72 21 -72 69 0 31 7 47 30 71
16 16 36 29 44 28 9 -2 16 4 16 12 0 23 -37 22 -69 -2z"/>
<path d="M12883 9220 c-27 -16 -33 -17 -33 -5 0 23 -30 18 -31 -5 -1 -11 -2
-26 -3 -32 0 -7 -15 -35 -33 -62 -35 -52 -38 -61 -23 -71 5 -3 24 16 42 42 43
63 100 121 105 107 2 -6 -5 -36 -17 -65 -21 -58 -25 -89 -11 -89 5 0 42 31 82
70 41 38 78 70 83 70 4 0 5 -30 1 -66 -5 -53 -4 -65 6 -62 29 10 39 127 13
152 -20 20 -43 9 -101 -47 l-42 -40 14 46 c12 41 12 49 -1 62 -19 18 -13 19
-51 -5z"/>
<path d="M3946 9197 c-37 -48 -46 -80 -32 -108 18 -37 57 -36 100 1 43 38 46
67 10 109 -33 39 -47 39 -78 -2z m58 -23 c23 -22 20 -40 -10 -63 -34 -27 -54
-27 -54 0 0 22 30 79 41 79 4 0 15 -7 23 -16z"/>
<path d="M8868 9180 c-26 -27 -50 -61 -54 -75 -8 -31 17 -72 52 -85 34 -13
150 -13 175 1 34 18 12 27 -50 22 -111 -10 -168 17 -141 68 9 15 15 18 25 9
21 -18 135 34 135 62 0 18 -41 48 -67 48 -19 0 -41 -14 -75 -50z m99 4 c4 -12
-47 -34 -76 -34 -11 1 -7 8 14 25 31 26 55 29 62 9z"/>
<path d="M10082 9218 c-7 -7 -12 -19 -12 -28 0 -9 -9 -43 -19 -74 -16 -49 -17
-58 -4 -63 9 -4 27 9 46 33 73 88 67 85 61 34 -5 -38 -3 -48 16 -65 15 -14 26
-16 36 -10 18 11 15 29 -4 32 -24 3 -26 13 -13 61 26 92 13 103 -52 43 -44
-40 -44 -41 -39 -13 3 15 9 30 15 33 10 7 1 29 -12 29 -4 0 -12 -5 -19 -12z"/>
<path d="M2894 9212 c-21 -13 -54 -77 -54 -104 0 -33 25 -48 77 -47 69 2 87
11 89 47 1 18 -2 35 -7 38 -5 3 -9 0 -9 -5 0 -6 -5 -10 -11 -8 -6 1 -14 -4
-17 -12 -3 -10 0 -11 9 -5 12 7 12 5 0 -9 -17 -22 -89 -23 -97 -2 -3 8 4 30
16 50 18 29 26 34 46 29 17 -4 24 -2 24 9 0 23 -42 35 -66 19z"/>
<path d="M4126 9213 c-3 -3 -6 -26 -6 -49 0 -24 -4 -46 -10 -49 -15 -9 -12
-35 3 -35 20 0 50 37 41 51 -4 7 -3 10 3 6 5 -4 23 7 38 23 16 17 31 30 34 30
3 0 4 -22 3 -48 -3 -34 1 -52 12 -61 20 -17 41 -5 25 15 -7 9 -9 30 -6 55 3
23 3 48 0 55 -9 24 -46 15 -80 -18 l-33 -32 0 26 c0 27 -12 43 -24 31z"/>
<path d="M9840 9196 c-5 -13 -14 -27 -20 -31 -18 -11 -38 -65 -32 -88 3 -10
19 -25 35 -32 39 -16 113 3 139 37 24 31 22 80 -3 112 -17 21 -29 26 -65 26
-38 0 -46 -4 -54 -24z m100 -25 c27 -52 -5 -94 -73 -95 -37 -1 -42 2 -45 22
-3 16 8 33 34 57 43 39 68 44 84 16z"/>
<path d="M8004 9201 c-2 -2 -4 -11 -4 -20 0 -8 -9 -33 -20 -56 -38 -79 8 -141
87 -117 51 15 79 62 69 115 -11 56 -37 81 -85 82 -23 0 -44 -1 -47 -4z m97
-63 c8 -20 9 -38 3 -56 -17 -48 -93 -66 -108 -26 -13 35 49 129 78 118 8 -3
20 -19 27 -36z"/>
<path d="M8209 9183 c-6 -16 -11 -50 -10 -77 0 -68 24 -100 80 -104 37 -3 46
1 75 32 19 19 36 47 39 62 7 37 -10 92 -33 104 -26 14 -37 -6 -16 -29 26 -29
20 -83 -11 -113 -37 -34 -57 -39 -81 -22 -16 11 -21 27 -24 73 -1 33 0 57 3
55 9 -5 20 26 13 37 -10 17 -24 9 -35 -18z"/>
<path d="M13196 9191 c-16 -11 -33 -27 -38 -35 -5 -9 -18 -16 -28 -16 -21 0
-33 -13 -23 -24 4 -4 6 -25 4 -47 -2 -37 0 -40 33 -54 56 -23 146 -17 146 10
0 10 -15 12 -57 8 -70 -6 -99 10 -90 48 5 20 17 28 56 38 59 15 90 44 75 69
-16 24 -44 25 -78 3z m50 -20 c-3 -5 -16 -11 -28 -14 -22 -6 -22 -5 -4 8 22
17 40 20 32 6z"/>
<path d="M2448 9149 c-57 -62 -49 -119 15 -119 37 0 87 35 87 62 0 11 -5 38
-12 59 -15 52 -42 51 -90 -2z m67 -30 c7 -33 -13 -58 -48 -59 -30 0 -31 28 -2
65 30 40 40 38 50 -6z"/>
<path d="M2739 9157 c-15 -17 -41 -40 -58 -50 -31 -18 -31 -18 -40 5 -5 14 -5
30 1 41 11 22 5 32 -17 24 -20 -8 -20 -80 1 -101 23 -24 44 -19 94 20 51 40
60 52 60 77 0 25 -12 21 -41 -16z"/>
<path d="M10890 9183 c0 -5 -13 -16 -29 -25 -31 -17 -71 -83 -71 -116 0 -27
32 -52 66 -52 35 0 88 31 104 61 24 44 -11 139 -50 139 -11 0 -20 -3 -20 -7z
m44 -75 c7 -38 -1 -56 -35 -73 -57 -30 -93 -11 -69 37 35 67 94 87 104 36z"/>
<path d="M5227 9174 c-3 -4 3 -19 15 -34 24 -33 18 -63 -18 -86 -32 -21 -58
-12 -48 18 3 12 13 28 20 36 14 14 11 32 -6 32 -11 0 -50 -64 -50 -83 0 -24
28 -47 57 -47 31 0 93 60 93 90 0 44 -43 94 -63 74z"/>
<path d="M5369 9153 c-12 -32 -8 -79 6 -76 6 1 14 18 18 37 9 35 11 36 53 36
34 0 44 4 44 16 0 14 -3 14 -15 4 -10 -9 -15 -9 -15 -1 0 6 -17 11 -40 11 -35
0 -42 -4 -51 -27z"/>
<path d="M13395 9156 c-19 -28 -25 -127 -9 -133 7 -2 14 16 18 49 4 29 10 58
14 65 4 7 29 13 55 14 74 4 54 29 -24 29 -29 0 -42 -5 -54 -24z"/>
<path d="M13885 9127 c-29 -50 -37 -97 -18 -104 7 -3 15 8 19 24 4 15 16 45
27 66 15 27 18 40 10 48 -8 8 -18 -2 -38 -34z"/>
<path d="M14055 9154 c-62 -32 -125 -108 -106 -127 8 -8 24 4 61 45 47 52 84
76 95 58 2 -4 -3 -26 -12 -49 -12 -31 -13 -45 -5 -53 8 -8 17 1 32 36 25 59
25 82 1 96 -26 13 -30 13 -66 -6z"/>
<path d="M14233 9140 c-39 -24 -55 -52 -47 -84 8 -34 22 -37 88 -15 32 11 60
18 63 15 8 -8 -17 -109 -33 -133 -10 -17 -24 -23 -50 -23 -48 0 -80 -34 -89
-94 -8 -52 4 -76 39 -76 31 0 65 35 93 97 23 49 27 53 59 53 46 0 111 27 97
41 -6 6 -19 6 -37 -1 -24 -9 -76 -14 -76 -7 0 1 7 24 15 51 16 51 19 113 9
140 -7 17 -34 22 -34 6 0 -5 -15 -17 -32 -26 -18 -10 -38 -24 -45 -33 -8 -11
-12 -12 -13 -3 0 6 -7 12 -15 12 -25 0 -1 43 33 60 31 15 43 40 20 40 -7 0
-27 -9 -45 -20z m47 -277 c0 -5 -10 -26 -23 -47 -23 -41 -51 -65 -63 -54 -10
11 5 76 22 93 16 15 64 21 64 8z"/>
<path d="M5931 9086 c-15 -59 -14 -76 3 -76 9 0 18 19 25 50 14 65 14 70 -3
70 -8 0 -18 -19 -25 -44z"/>
<path d="M6117 9091 c-58 -64 -73 -91 -57 -101 17 -10 30 -4 30 14 0 7 19 33
42 57 l42 44 4 -28 c5 -39 27 -28 27 14 0 29 -4 34 -26 37 -19 2 -35 -7 -62
-37z"/>
<path d="M13635 9122 c-11 -2 -35 -15 -52 -29 -60 -45 -33 -103 38 -83 49 14
49 14 49 -37 0 -85 -10 -123 -33 -123 -60 0 -134 -95 -104 -133 35 -45 100
-13 131 63 13 33 21 40 43 40 35 0 58 14 48 29 -4 8 -18 10 -36 6 l-29 -7 5
59 c11 124 12 213 3 219 -5 3 -16 -13 -25 -35 -13 -34 -22 -42 -50 -47 -19 -4
-37 -3 -41 0 -9 10 38 45 60 46 20 0 34 19 22 29 -5 4 -18 6 -29 3z m-7 -344
c-26 -48 -68 -66 -68 -30 0 22 53 72 77 72 12 0 10 -8 -9 -42z"/>
<path d="M6295 9099 c-8 -12 2 -59 17 -76 16 -20 37 -15 68 16 l29 28 23 -51
c17 -39 22 -68 22 -124 -1 -40 -3 -74 -5 -77 -3 -2 -22 0 -43 5 -50 11 -77 0
-111 -44 -47 -62 -44 -166 6 -166 45 0 137 77 154 129 5 16 12 20 25 16 26 -8
34 11 11 27 -18 12 -19 19 -10 59 6 24 8 65 5 91 -6 55 -60 178 -77 178 -7 0
-27 -17 -45 -37 -30 -34 -33 -36 -34 -16 0 12 5 25 10 28 6 3 10 10 10 16 0
13 -47 12 -55 -2z m131 -324 c14 -36 -87 -144 -122 -131 -23 9 -14 74 16 116
18 25 28 30 61 30 26 0 42 -5 45 -15z"/>
<path d="M11783 9075 c-25 -18 -31 -45 -9 -45 7 0 19 6 26 14 6 8 21 16 33 18
12 2 21 8 20 13 -4 17 -47 17 -70 0z"/>
<path d="M11534 9066 c-25 -19 -8 -36 29 -29 30 6 36 27 11 37 -20 8 -17 8
-40 -8z"/>
<path d="M12123 9069 c-19 -6 -33 -16 -33 -25 0 -12 7 -14 33 -9 44 10 69 24
62 36 -7 11 -19 10 -62 -2z"/>
<path d="M7105 9009 c-4 -11 -21 -36 -37 -55 -22 -25 -28 -38 -20 -46 8 -8 19
-2 39 22 51 60 67 100 39 100 -8 0 -18 -9 -21 -21z"/>
<path d="M11058 8642 c-46 -41 -90 -119 -157 -274 l-57 -132 -54 -12 c-29 -7
-60 -20 -67 -30 -8 -11 -27 -18 -55 -18 -42 -1 -43 0 -46 34 -2 25 0 31 7 20
8 -12 13 -12 36 0 14 8 40 27 57 43 24 23 28 34 23 55 -15 65 -68 57 -120 -17
-35 -52 -46 -129 -20 -154 18 -19 80 -23 90 -7 4 6 11 8 16 4 6 -3 20 3 32 14
19 17 77 36 77 25 0 -2 -6 -16 -14 -32 -9 -17 -11 -33 -6 -41 11 -18 18 -11
50 48 21 40 31 49 67 57 47 11 58 19 49 34 -4 6 -18 6 -38 0 -17 -5 -34 -7
-36 -4 -7 7 99 247 128 290 15 22 40 52 55 68 32 31 70 37 62 10 -11 -42 -11
-48 3 -48 8 0 19 13 24 28 23 64 -48 90 -106 39z m-345 -317 c4 -9 -8 -26 -31
-45 -60 -49 -73 -34 -21 25 34 38 44 42 52 20z"/>
<path d="M11704 8583 c-18 -53 -87 -234 -104 -270 -18 -38 -22 -42 -71 -50
-68 -11 -78 -33 -14 -33 l46 0 -18 -31 c-10 -17 -30 -44 -45 -61 -21 -24 -25
-35 -17 -49 13 -25 26 -24 34 2 4 11 25 50 48 85 39 61 42 64 73 58 19 -3 34
-1 39 6 11 17 -13 39 -37 32 -18 -4 -20 -2 -14 14 5 10 21 53 36 94 15 41 40
101 54 133 24 54 26 87 5 87 -5 0 -12 -8 -15 -17z"/>
<path d="M3621 8567 c-5 -12 -19 -74 -31 -137 -28 -146 -30 -150 -83 -150 -23
0 -49 -5 -57 -10 -25 -16 8 -30 54 -23 38 6 39 5 32 -18 -3 -13 -9 -46 -13
-73 -5 -39 -3 -48 8 -44 8 2 15 15 17 29 2 13 10 45 18 72 13 38 20 47 39 47
34 0 55 10 55 27 0 12 -8 14 -34 9 l-35 -7 9 33 c8 28 20 91 47 241 6 33 -14
37 -26 4z"/>
<path d="M10572 8523 c-6 -10 -13 -34 -17 -53 -3 -19 -13 -59 -21 -88 -13 -47
-17 -52 -38 -46 -53 13 -126 -57 -126 -121 0 -57 40 -72 81 -32 54 53 76 88
101 163 26 77 48 162 48 183 0 17 -18 13 -28 -6z m-82 -231 c0 -20 -65 -102
-81 -102 -12 0 -11 37 2 63 24 47 79 74 79 39z"/>
<path d="M7678 8523 c7 -3 16 -2 19 1 4 3 -2 6 -13 5 -11 0 -14 -3 -6 -6z"/>
<path d="M5426 8428 c-18 -84 -81 -253 -97 -264 -14 -8 -11 -44 4 -43 6 0 32
25 57 54 25 30 51 57 59 60 26 10 30 -10 11 -54 -23 -49 -26 -85 -8 -79 18 6
60 117 53 139 -12 36 -42 42 -77 18 -29 -21 -31 -22 -24 -3 5 10 9 26 10 34 0
8 4 18 8 21 12 9 50 169 44 185 -12 30 -23 11 -40 -68z"/>
<path d="M7314 8493 c-3 -10 -25 -61 -48 -113 l-43 -95 -66 -1 c-37 0 -70 -3
-73 -7 -16 -15 13 -27 68 -27 52 0 59 -2 54 -17 -17 -42 -25 -102 -17 -129 7
-26 12 -29 52 -32 49 -3 99 11 99 28 0 7 -20 9 -60 4 l-60 -7 0 38 c0 21 5 55
12 77 11 37 13 38 42 32 49 -10 51 -10 51 5 0 8 -15 19 -32 23 -32 8 -41 24
-25 44 16 17 72 154 72 174 0 25 -19 26 -26 3z"/>
<path d="M4395 8488 c-2 -7 -15 -47 -29 -88 -13 -41 -36 -108 -51 -148 -26
-72 -31 -149 -10 -145 6 1 13 24 16 50 4 26 18 77 32 113 38 96 67 187 67 210
0 22 -18 28 -25 8z"/>
<path d="M4256 8478 c-2 -7 -18 -62 -36 -123 -57 -191 -63 -216 -50 -229 13
-13 30 8 30 38 0 10 18 73 39 141 45 139 51 176 34 182 -7 3 -15 -1 -17 -9z"/>
<path d="M7460 8464 c0 -41 -29 -141 -68 -237 -43 -105 -34 -136 17 -58 30 48
74 91 92 91 4 0 7 -26 6 -57 l-2 -58 41 -1 c22 0 52 -8 65 -17 29 -21 149 -24
149 -4 0 6 3 22 6 35 5 16 2 22 -9 22 -8 0 -17 -9 -20 -20 -4 -16 -14 -20 -50
-20 -53 0 -69 16 -40 39 53 43 69 121 25 121 -24 0 -89 -68 -97 -102 -5 -18
-14 -28 -26 -28 -16 0 -18 7 -16 51 3 65 -17 83 -64 57 -16 -10 -28 -14 -25
-9 13 21 54 194 49 207 -9 24 -33 16 -33 -12z m181 -247 c-29 -30 -39 -12 -10
19 14 15 25 20 27 14 3 -7 -5 -21 -17 -33z"/>
<path d="M3831 8444 c-30 -21 -14 -38 23 -24 15 5 26 15 24 22 -7 19 -22 19
-47 2z"/>
<path d="M11137 8413 c-4 -3 0 -15 9 -25 13 -14 20 -15 31 -7 10 9 10 15 2 25
-12 15 -31 18 -42 7z"/>
<path d="M2390 8364 c-82 -76 -102 -122 -86 -191 16 -68 90 -91 172 -54 45 21
60 36 44 46 -5 3 -10 -2 -10 -12 0 -13 -3 -15 -8 -5 -8 12 -42 7 -42 -7 0 -14
-83 -11 -106 4 -31 20 -35 85 -6 85 29 0 109 58 133 96 18 29 20 40 10 60 -16
36 -46 30 -101 -22z m71 -12 c-21 -39 -111 -105 -111 -82 0 18 98 112 109 105
7 -4 8 -12 2 -23z"/>
<path d="M11444 8399 c-8 -14 11 -33 25 -25 6 4 11 14 11 22 0 16 -26 19 -36
3z"/>
<path d="M9793 8380 c-43 -26 -62 -58 -84 -138 -18 -63 -16 -89 6 -74 16 11
35 60 35 90 0 46 55 110 96 112 6 0 28 -12 49 -26 35 -24 63 -23 47 2 -10 17
-80 54 -100 54 -9 0 -31 -9 -49 -20z"/>
<path d="M11817 8394 c-16 -16 -6 -34 19 -34 19 0 25 5 22 17 -3 19 -29 29
-41 17z"/>
<path d="M6127 8383 c-14 -13 -6 -33 13 -33 11 0 20 4 20 9 0 13 -26 32 -33
24z"/>
<path d="M2650 8368 c-71 -20 -80 -57 -25 -105 45 -40 47 -76 5 -98 -38 -20
-43 -19 -35 4 3 11 2 22 -3 25 -15 9 -34 -20 -30 -46 4 -31 43 -35 86 -8 61
38 61 91 -2 149 -14 14 -26 28 -26 32 0 5 27 14 60 21 33 6 59 17 57 23 -5 14
-45 16 -87 3z"/>
<path d="M2842 8368 c-16 -16 -15 -67 3 -98 34 -60 4 -129 -50 -116 -20 5 -25
12 -23 29 2 14 -2 22 -12 22 -26 0 -24 -51 2 -69 32 -23 71 -20 102 9 20 19
26 33 26 67 -1 24 -7 54 -15 68 -23 41 -19 70 10 70 16 0 25 6 25 15 0 18 -50
21 -68 3z"/>
<path d="M9541 8325 c-47 -43 -58 -78 -36 -112 17 -26 52 -43 73 -36 20 8 14
20 -18 32 -40 13 -38 25 7 37 20 5 45 21 56 36 17 23 19 32 9 53 -16 35 -45
32 -91 -10z m63 -19 c-6 -15 -61 -42 -70 -34 -3 3 9 17 26 32 32 26 54 27 44
2z"/>
<path d="M3028 8323 c-33 -36 -58 -85 -58 -116 0 -33 23 -62 44 -54 9 4 16 2
16 -4 0 -15 63 -7 68 9 2 8 -9 12 -35 12 -68 0 -88 47 -28 68 48 18 88 67 75
93 -15 27 -52 24 -82 -8z m52 -12 c0 -5 -11 -16 -25 -25 -29 -19 -33 -11 -8
16 17 19 33 24 33 9z"/>
<path d="M4567 8238 c-35 -62 -91 -161 -125 -219 -95 -163 -136 -294 -93 -294
8 0 14 15 16 41 4 54 45 142 147 315 148 251 156 269 127 269 -4 0 -36 -51
-72 -112z"/>
<path d="M8270 8332 c-48 -23 -50 -53 -9 -110 31 -43 31 -45 14 -58 -10 -8
-31 -14 -47 -14 -21 0 -28 5 -28 20 0 21 -15 27 -25 10 -3 -5 0 -10 7 -10 10
0 10 -2 -1 -9 -20 -13 -6 -41 21 -42 66 -3 118 21 118 54 0 13 -14 42 -31 65
-24 34 -29 45 -19 56 16 20 68 37 75 25 9 -14 35 -11 35 5 0 30 -58 34 -110 8z"/>
<path d="M3313 8311 c-22 -16 -50 -42 -62 -57 l-22 -29 16 34 c12 24 14 36 6
44 -15 15 -18 10 -52 -74 -21 -52 -27 -75 -19 -83 8 -8 20 -1 42 24 58 68 120
131 124 127 3 -2 -3 -36 -12 -74 -18 -75 -15 -103 12 -103 12 0 15 6 11 22 -4
12 3 58 14 101 27 106 15 121 -58 68z"/>
<path d="M5202 8323 c-30 -14 -33 -20 -29 -47 2 -17 11 -46 18 -64 13 -31 12
-35 -5 -48 -27 -20 -40 -18 -74 11 -34 29 -42 31 -42 11 0 -22 59 -66 89 -66
32 0 71 37 71 68 0 12 -8 37 -17 57 -20 43 -13 53 46 63 24 4 43 12 44 17 3
17 -66 16 -101 -2z"/>
<path d="M8667 8334 c-4 -4 -7 -29 -7 -56 0 -35 -6 -54 -20 -68 -29 -29 -50
-26 -50 9 0 17 -4 33 -10 36 -5 3 -33 -12 -61 -35 -53 -42 -79 -50 -79 -26 0
22 17 61 33 78 22 21 25 52 7 55 -22 5 -73 -103 -68 -142 4 -42 46 -46 99 -9
l40 27 15 -21 c21 -31 60 -28 95 7 23 23 29 39 31 75 0 25 1 51 2 58 1 13 -17
21 -27 12z"/>
<path d="M3948 8314 c-29 -15 -78 -89 -78 -118 0 -37 59 -32 109 9 l30 26 -2
-55 c-2 -55 11 -84 32 -72 6 4 7 15 2 30 -6 14 -4 46 4 87 12 55 12 67 -1 87
-17 26 -55 29 -96 6z m66 -22 c9 -15 -83 -92 -109 -92 -3 0 2 14 12 31 30 52
82 84 97 61z"/>
<path d="M8799 8302 c-53 -54 -64 -103 -26 -118 31 -13 75 -6 79 13 2 12 7 11
27 -6 26 -23 51 -28 51 -10 0 7 -8 18 -17 25 -15 10 -16 15 -5 25 14 15 16 49
3 49 -5 0 -18 -11 -28 -23 -30 -39 -82 -60 -101 -42 -8 8 31 66 53 81 14 9 25
20 25 25 0 18 -36 7 -61 -19z"/>
<path d="M9031 8304 c-71 -59 -10 -130 82 -95 22 9 25 7 31 -21 3 -17 6 -61 6
-98 l0 -68 -57 5 c-49 4 -62 2 -85 -16 -14 -12 -29 -34 -33 -50 -8 -38 16 -95
49 -116 24 -16 28 -16 63 2 28 13 45 32 67 76 27 54 30 67 28 150 -2 101 -28
225 -52 244 -25 20 -66 15 -99 -13z m73 -10 c22 -8 20 -41 -3 -54 -52 -27 -94
7 -52 42 25 20 31 21 55 12z m34 -309 c9 -9 -9 -55 -34 -84 -16 -19 -35 -31
-50 -31 -48 0 -66 104 -22 124 14 6 98 -1 106 -9z"/>
<path d="M9289 8310 c-46 -24 -74 -72 -59 -101 10 -17 18 -20 51 -15 49 7 72
19 97 51 l20 25 6 -31 c8 -40 8 -177 0 -207 -6 -20 -12 -22 -51 -20 -36 2 -48
-1 -59 -17 -12 -18 -11 -25 4 -55 26 -51 46 -59 76 -31 62 58 85 190 60 333
l-16 88 -47 -1 c-26 -1 -63 -10 -82 -19z m81 -20 c0 -29 -89 -85 -107 -67 -11
12 7 37 39 57 36 22 68 26 68 10z m4 -335 c-19 -28 -39 -32 -48 -9 -11 29 -6
34 29 34 l35 0 -16 -25z"/>
<path d="M13445 8309 c-33 -26 -98 -159 -85 -173 18 -18 64 47 75 106 7 34 29
50 79 55 57 7 56 27 0 31 -30 2 -48 -3 -69 -19z"/>
<path d="M4444 8306 c-4 -9 -4 -46 -2 -82 3 -51 9 -70 23 -80 23 -17 39 -13
43 9 2 10 -3 17 -12 17 -20 0 -28 31 -24 92 2 35 -1 53 -9 55 -7 3 -16 -3 -19
-11z"/>
<path d="M13875 8313 c-87 -17 -101 -46 -45 -94 l42 -36 -31 -11 c-38 -14 -61
-6 -61 19 0 10 -7 19 -15 19 -19 0 -19 -30 -1 -55 28 -39 136 -11 136 35 0 10
-15 29 -32 41 -18 12 -35 24 -38 26 -2 2 2 8 10 13 20 13 64 12 77 -1 8 -8 13
-8 17 0 14 22 -24 50 -59 44z"/>
<path d="M14080 8310 c-45 -7 -51 -36 -15 -79 15 -17 24 -38 21 -46 -7 -20
-63 -19 -74 1 -10 19 -32 11 -32 -11 0 -17 23 -30 68 -38 27 -6 38 -2 58 18
32 32 30 47 -7 90 l-31 35 41 0 c28 0 41 4 41 14 0 17 -25 23 -70 16z"/>
<path d="M5600 8272 c-43 -42 -61 -102 -40 -127 16 -19 37 -19 73 -1 23 13 27
13 27 1 0 -15 18 -30 26 -22 3 3 7 25 9 49 2 23 5 52 7 62 5 31 -20 29 -37 -3
-18 -36 -54 -71 -72 -71 -36 0 8 90 57 115 17 9 28 20 25 25 -12 19 -38 9 -75
-28z"/>
<path d="M11869 8276 c-90 -61 -94 -158 -5 -142 46 9 62 31 70 97 5 47 3 58
-10 63 -9 3 -16 6 -17 6 -2 0 -18 -11 -38 -24z m25 -96 c-5 -5 -21 -12 -36
-15 -23 -6 -28 -4 -28 11 0 10 12 31 28 47 l27 28 9 -31 c5 -18 5 -34 0 -40z"/>
<path d="M3760 8268 c0 -13 -7 -45 -15 -72 -14 -47 -13 -66 5 -66 11 0 40 98
40 134 0 16 -6 26 -15 26 -9 0 -15 -9 -15 -22z"/>
<path d="M6470 8260 c0 -20 -8 -35 -25 -46 -32 -21 -54 -14 -31 9 10 9 14 21
11 27 -12 19 -33 10 -45 -20 -10 -24 -10 -33 0 -45 16 -19 50 -19 76 0 12 8
24 11 28 8 8 -8 8 -131 0 -160 -4 -13 -14 -23 -24 -23 -26 0 -71 -39 -86 -76
-15 -35 -18 -91 -8 -118 8 -21 47 -20 67 2 21 23 67 122 67 145 0 23 10 22 54
-8 43 -29 59 -32 54 -7 -2 9 -23 28 -48 41 l-45 24 0 111 c0 61 -4 123 -8 139
-10 37 -37 36 -37 -3z m-5 -307 c-10 -43 -34 -89 -56 -109 -18 -17 -19 -16
-19 15 0 58 37 119 74 121 4 0 5 -12 1 -27z"/>
<path d="M11990 8204 c-22 -48 -40 -91 -40 -95 0 -15 27 -10 41 7 16 20 116
97 146 113 21 11 22 10 14 -11 -5 -13 -5 -32 -1 -43 10 -27 77 -62 91 -48 7 7
0 17 -25 33 -40 24 -42 32 -21 84 14 32 14 37 0 42 -15 6 -66 -21 -126 -68
-20 -15 -39 -28 -42 -28 -3 0 1 16 9 35 7 19 14 41 14 50 0 35 -22 9 -60 -71z"/>
<path d="M13027 8269 c-40 -21 -77 -71 -77 -104 0 -43 42 -57 95 -33 23 10 28
10 36 -5 6 -9 17 -17 25 -17 12 0 14 7 9 29 -3 17 -2 32 4 36 6 3 11 13 11 21
0 19 -34 18 -51 -2 -30 -37 -99 -54 -99 -25 0 16 61 81 76 81 8 0 14 -7 14
-15 0 -22 18 -18 25 5 6 19 -9 51 -24 50 -3 -1 -23 -10 -44 -21z"/>
<path d="M5821 8255 c-30 -26 -68 -116 -56 -135 12 -20 24 -9 40 39 23 70 51
93 104 85 47 -8 58 10 15 26 -41 16 -71 12 -103 -15z"/>
<path d="M6200 8264 c-37 -24 -69 -68 -77 -104 -5 -27 -3 -32 12 -28 11 2 22
16 27 35 8 30 59 83 80 83 10 0 7 -37 -7 -86 -4 -14 -2 -23 8 -27 19 -7 49
102 35 127 -11 20 -46 20 -78 0z"/>
<path d="M13215 8262 c-95 -81 -82 -156 27 -157 32 0 53 5 55 13 3 8 -7 12
-31 12 -48 0 -86 16 -86 36 0 10 20 37 45 61 25 23 45 45 45 48 0 12 -36 3
-55 -13z"/>
<path d="M6047 8253 c-3 -5 -11 -36 -17 -71 -9 -44 -10 -66 -2 -74 13 -13 33
-2 26 15 -2 7 2 37 10 67 8 30 12 58 10 62 -6 10 -21 10 -27 1z"/>
<path d="M11187 8246 c-30 -13 -92 -109 -82 -126 12 -19 24 -10 50 34 46 79
109 99 84 27 -12 -35 -8 -47 14 -38 19 7 31 72 17 97 -12 23 -41 25 -83 6z"/>
<path d="M11353 8215 c-26 -50 -29 -75 -10 -75 15 1 61 96 52 110 -11 18 -19
11 -42 -35z"/>
<path d="M11747 8253 c-35 -58 -66 -126 -62 -134 13 -20 27 -6 57 59 18 37 34
70 36 75 2 4 -3 7 -12 7 -8 0 -17 -3 -19 -7z"/>
<path d="M13582 8240 c-29 -18 -62 -71 -62 -100 0 -22 41 -50 75 -50 50 0 101
46 91 84 -3 14 -15 35 -26 46 -11 11 -20 25 -20 30 0 16 -22 12 -58 -10z m65
-57 c13 -19 12 -24 -7 -43 -45 -45 -100 -6 -70 50 15 27 57 23 77 -7z"/>
<path d="M11060 8228 c0 -6 -11 -26 -25 -44 -25 -33 -33 -64 -15 -64 15 0 72
90 66 106 -6 17 -26 19 -26 2z"/>
<path d="M12043 7716 c-8 -13 -121 -90 -146 -99 -9 -4 -9 -7 0 -17 23 -24 194
94 177 122 -8 12 -22 10 -31 -6z"/>
<path d="M10760 7658 c-84 -42 -86 -58 -30 -185 23 -52 44 -109 47 -127 5 -30
2 -34 -27 -45 -62 -21 -130 -8 -130 25 0 21 -34 14 -38 -8 -2 -11 9 -25 30
-38 41 -26 131 -24 173 4 24 16 27 23 23 60 -3 22 -24 85 -48 139 -48 110 -48
120 11 149 52 26 59 24 48 -17 -11 -38 -4 -75 12 -75 21 0 49 22 63 48 11 21
11 34 2 62 -15 49 -51 51 -136 8z m96 -66 c-14 -15 -15 -13 -6 18 6 19 11 37
11 40 1 3 4 -6 6 -19 3 -13 -2 -30 -11 -39z"/>
<path d="M2399 7573 c-35 -107 -35 -108 -67 -109 -18 -1 -35 -4 -38 -7 -11
-11 7 -27 32 -27 24 0 24 -2 17 -37 -15 -69 -10 -139 11 -162 21 -23 74 -28
107 -11 34 19 21 29 -33 27 -51 -2 -51 -2 -61 33 -6 23 -5 54 3 92 l13 57 86
3 c66 2 86 6 86 17 0 11 -16 14 -77 12 -58 -2 -78 1 -78 10 0 21 54 173 64
180 11 9 -1 29 -18 29 -8 0 -27 -44 -47 -107z"/>
<path d="M11389 7673 c-1 -5 -1 -12 0 -16 2 -15 -38 -123 -89 -237 -49 -112
-64 -170 -46 -180 5 -3 17 18 26 47 28 86 41 99 118 118 55 13 78 14 109 6 64
-17 70 -32 43 -97 -22 -55 -22 -73 0 -59 16 10 50 85 50 112 0 33 -53 71 -112
79 -38 5 -46 9 -34 16 9 5 14 13 11 19 -3 5 1 6 9 3 16 -6 96 34 96 48 0 5 4
7 9 4 11 -7 61 50 61 69 0 28 -18 23 -41 -12 -18 -26 -53 -51 -134 -94 -60
-32 -113 -58 -118 -59 -4 0 4 22 18 50 21 41 54 152 55 183 0 4 -7 7 -15 7 -8
0 -16 -3 -16 -7z"/>
<path d="M12962 7623 c-17 -27 -43 -77 -58 -112 -24 -54 -34 -66 -68 -82 -22
-10 -42 -17 -43 -15 -2 1 4 25 12 52 14 45 45 169 45 180 0 13 -29 1 -33 -13
-59 -228 -60 -231 -95 -238 -36 -7 -73 2 -84 19 -5 8 -11 7 -20 -2 -9 -9 -9
-15 1 -24 6 -7 15 -13 19 -14 4 0 15 -4 25 -8 9 -5 31 -6 48 -4 30 5 31 4 24
-26 -19 -83 2 -93 28 -13 14 42 23 56 41 61 13 3 32 9 41 13 16 5 17 1 11 -42
-4 -26 -10 -54 -13 -61 -13 -35 29 -9 67 41 23 30 44 55 45 55 2 0 10 3 19 6
13 5 16 -1 16 -27 0 -19 -5 -51 -11 -73 -8 -27 -8 -41 0 -49 19 -19 30 5 37
80 10 108 -22 133 -91 72 -19 -17 -35 -26 -35 -20 0 24 61 169 90 214 30 48
38 77 21 77 -5 0 -23 -21 -39 -47z"/>
<path d="M4899 7645 c-1 -6 -2 -62 -3 -125 -2 -136 -14 -172 -84 -242 -77 -79
-117 -59 -110 55 4 79 -12 84 -93 27 -32 -23 -59 -39 -59 -35 0 3 16 31 35 61
19 30 35 59 35 64 0 6 5 10 10 10 6 0 10 11 10 25 0 14 4 25 10 25 5 0 7 -8 4
-17 -3 -10 10 7 30 37 65 99 35 109 -98 30 -46 -27 -96 -54 -110 -60 -27 -10
-33 -24 -16 -35 15 -9 161 76 153 88 -3 6 -1 7 5 3 16 -10 52 12 53 32 0 9 3
12 5 5 5 -12 -56 -116 -75 -128 -6 -3 -9 -11 -6 -16 4 -5 2 -9 -4 -9 -6 0 -28
-31 -51 -68 -67 -114 -51 -130 57 -56 l68 47 6 -61 c7 -77 40 -117 85 -106 38
10 107 81 141 146 26 49 28 61 28 170 0 80 -4 121 -12 130 -7 6 -14 8 -14 3z"/>
<path d="M11041 7635 c-25 -12 -32 -20 -28 -35 10 -38 -49 -272 -69 -271 -5 1
-9 -14 -9 -32 0 -30 2 -32 38 -35 27 -2 51 4 81 22 49 28 158 141 182 188 54
105 -77 214 -195 163z m139 -43 c36 -27 46 -63 30 -103 -28 -67 -203 -219
-226 -196 -3 3 8 54 25 114 17 59 33 129 37 155 4 31 12 49 23 52 29 8 85 -3
111 -22z"/>
<path d="M9573 7618 c-4 -7 -22 -39 -39 -73 -22 -43 -41 -66 -70 -82 -21 -12
-39 -21 -41 -20 -1 2 4 21 12 42 19 52 19 105 1 105 -8 0 -16 -17 -19 -45 -4
-24 -13 -60 -21 -79 -13 -30 -20 -35 -60 -41 -25 -4 -57 -4 -70 -1 -30 7 -42
-7 -21 -24 10 -8 35 -11 70 -8 38 3 55 1 52 -6 -26 -70 -38 -121 -35 -148 3
-37 22 -41 26 -6 1 13 12 56 24 97 22 72 23 73 73 96 46 20 100 65 79 65 -5 0
-4 4 2 8 6 4 19 21 28 37 l17 30 -7 -35 c-3 -19 -33 -88 -67 -153 -44 -86 -57
-121 -49 -129 8 -8 18 -2 39 23 52 63 116 129 124 129 5 0 9 -15 9 -33 0 -18
8 -43 17 -57 9 -13 18 -32 18 -43 3 -36 32 -52 93 -51 94 2 112 5 112 15 0 6
-5 7 -10 4 -6 -4 -17 -2 -24 5 -8 6 -26 8 -40 4 -14 -3 -42 -3 -61 0 -48 9
-48 40 0 56 38 13 95 71 95 98 0 28 -16 45 -37 38 -22 -7 -78 -59 -101 -94
-21 -32 -34 -10 -26 45 9 64 -21 69 -95 16 l-23 -17 27 54 c20 40 27 70 29
118 1 64 -12 89 -31 60z m217 -237 c-12 -23 -51 -53 -59 -46 -6 6 50 65 61 65
5 0 4 -9 -2 -19z"/>
<path d="M13391 7596 c-12 -19 -27 -51 -35 -72 -11 -34 -18 -40 -50 -44 -44
-6 -48 -21 -9 -35 28 -10 29 -11 17 -50 -6 -22 -14 -59 -17 -83 -4 -37 -3 -43
11 -40 10 2 18 14 20 28 1 14 9 53 18 88 l16 62 47 0 c53 0 121 17 121 30 0 4
-34 6 -75 3 -88 -5 -90 -3 -46 80 27 51 29 67 10 67 -4 0 -17 -15 -28 -34z"/>
<path d="M7544 7593 c-3 -16 -21 -84 -39 -153 -18 -69 -36 -141 -40 -160 -4
-19 -14 -47 -23 -62 -18 -31 -17 -34 21 -43 24 -6 28 -5 27 11 -8 76 -2 88 66
138 61 46 68 48 114 44 71 -7 84 -21 77 -85 -4 -40 -2 -53 8 -53 17 0 25 23
25 76 0 54 -24 81 -78 90 -37 6 -38 8 -28 29 6 13 14 19 17 13 4 -5 24 7 47
29 23 21 47 39 54 41 20 5 48 34 48 49 0 7 -2 13 -5 13 -6 0 -277 -199 -302
-223 -29 -26 -29 -22 5 98 42 144 46 175 28 175 -9 0 -18 -12 -22 -27z"/>
<path d="M7009 7603 c-2 -23 -11 -57 -37 -143 -49 -160 -72 -303 -50 -316 17
-11 25 14 31 94 4 47 22 129 46 210 23 72 41 139 41 147 0 15 -29 22 -31 8z"/>
<path d="M6271 7586 c-15 -18 -67 -222 -75 -296 -7 -57 3 -88 23 -75 7 3 9 15
6 26 -7 22 18 167 42 242 8 26 12 55 9 63 -3 8 -2 13 3 10 12 -8 24 25 13 36
-5 5 -14 3 -21 -6z"/>
<path d="M6366 7508 c-42 -140 -48 -169 -47 -235 0 -67 5 -83 24 -83 8 0 12
28 13 93 0 71 7 112 28 182 16 50 31 98 33 108 4 11 0 17 -11 17 -11 0 -23
-24 -40 -82z"/>
<path d="M8616 7526 c-18 -66 -28 -76 -73 -76 -33 0 -25 -24 10 -28 32 -4 31
3 12 -96 -8 -44 -13 -81 -11 -84 16 -15 34 12 39 60 4 29 12 70 17 91 10 34
14 37 49 37 27 0 46 7 65 25 14 13 26 27 26 30 0 10 -28 5 -56 -10 -27 -14
-64 -20 -64 -11 0 2 7 23 15 46 18 52 19 80 2 80 -7 0 -21 -29 -31 -64z"/>
<path d="M11907 7500 c-95 -18 -110 -53 -47 -111 22 -20 40 -41 40 -46 0 -6
-10 -25 -23 -44 -26 -39 -68 -50 -97 -24 -22 20 -36 4 -21 -24 13 -23 52 -34
83 -22 35 14 77 63 84 99 6 28 1 37 -35 74 -23 22 -38 45 -34 49 16 16 97 28
110 17 18 -14 26 -4 18 21 -7 22 -16 23 -78 11z"/>
<path d="M6126 7481 c-9 -14 12 -63 24 -56 16 10 12 65 -4 65 -8 0 -17 -4 -20
-9z"/>
<path d="M14145 7427 c-34 -33 -45 -51 -45 -75 0 -42 12 -46 60 -22 l40 20 0
-24 c0 -35 24 -52 55 -38 33 15 33 36 0 30 -32 -7 -34 21 -4 62 14 18 19 35
15 46 -6 16 -9 15 -29 -8 -24 -29 -107 -74 -107 -59 0 18 68 79 91 83 36 5 35
28 0 28 -23 0 -43 -11 -76 -43z"/>
<path d="M14386 7435 c-37 -48 -73 -152 -59 -166 8 -8 20 8 45 62 43 93 61
112 98 104 34 -7 48 10 21 24 -40 22 -77 13 -105 -24z"/>
<path d="M3428 7439 c-78 -35 -75 -60 12 -109 33 -19 60 -37 60 -42 0 -12 -36
-28 -64 -28 -42 0 -76 21 -76 47 0 29 -18 30 -29 1 -22 -57 96 -101 168 -64
26 14 32 22 29 44 -2 21 -16 35 -58 60 -30 18 -56 36 -58 41 -4 12 57 35 85
33 26 -2 32 22 7 32 -22 8 -23 8 -76 -15z"/>
<path d="M5735 7412 c-38 -21 -72 -38 -74 -40 -3 -1 1 -8 8 -15 9 -9 24 -5 71
19 33 17 60 29 60 26 0 -2 -15 -26 -34 -52 -19 -26 -42 -62 -51 -80 -15 -29
-15 -34 -2 -48 21 -20 52 -10 114 37 l52 40 18 -37 c22 -45 46 -52 68 -19 18
27 46 128 39 139 -11 18 -24 5 -35 -34 -6 -24 -15 -54 -21 -68 l-10 -25 -19
38 c-11 20 -27 37 -35 37 -9 0 -43 -20 -77 -45 -33 -25 -62 -44 -64 -41 -7 6
14 43 64 110 74 103 51 122 -72 58z"/>
<path d="M4980 7409 c-65 -72 -63 -67 -48 -112 10 -32 22 -46 48 -59 55 -28
190 -21 190 10 0 4 -38 7 -84 7 -69 0 -88 3 -105 19 l-21 19 36 13 c71 24 109
81 78 115 -25 28 -61 24 -94 -12z m68 -21 c-3 -21 -63 -66 -74 -55 -8 7 23 64
38 70 28 11 39 7 36 -15z"/>
<path d="M13104 7410 c-46 -33 -69 -77 -59 -109 8 -26 46 -37 74 -21 12 6 22
7 22 3 1 -4 2 -12 4 -18 1 -5 3 -16 3 -23 4 -28 25 -5 27 28 2 19 6 47 10 63
6 21 4 27 -8 27 -8 0 -17 -7 -20 -14 -8 -21 -61 -46 -76 -37 -10 6 -10 13 -2
29 16 30 70 72 93 72 11 0 18 5 16 13 -8 23 -43 18 -84 -13z"/>
<path d="M7315 7419 c-4 -5 0 -18 8 -27 31 -34 38 -71 22 -106 -14 -30 -60
-66 -84 -66 -26 0 -10 61 26 100 25 29 33 44 25 52 -14 14 -75 -49 -89 -94
l-11 -33 -1 33 c-1 42 -25 88 -53 103 -19 10 -26 7 -59 -31 -21 -24 -36 -47
-33 -51 2 -4 0 -10 -6 -14 -17 -11 -11 -71 9 -89 15 -14 26 -15 62 -7 24 6 51
19 60 30 17 21 17 21 33 -4 9 -14 26 -25 37 -25 48 0 106 51 124 108 14 48
-49 157 -70 121z m-147 -94 c25 -56 7 -96 -49 -110 -33 -8 -43 6 -35 48 7 34
44 86 62 87 6 0 16 -11 22 -25z"/>
<path d="M8332 7413 c-41 -20 -72 -76 -55 -101 7 -12 24 -17 57 -16 41 0 46
-2 46 -22 0 -13 8 -24 19 -27 16 -4 18 1 18 37 0 22 3 51 7 64 6 17 5 22 -7
22 -9 0 -20 -6 -24 -14 -17 -28 -93 -50 -93 -27 0 6 11 22 24 38 19 22 32 28
65 27 27 -1 41 3 41 11 0 28 -50 32 -98 8z"/>
<path d="M14563 7392 c-34 -30 -63 -80 -63 -111 0 -11 11 -33 24 -48 22 -25
31 -28 91 -29 80 -2 105 4 105 22 0 11 -12 13 -54 8 -30 -4 -66 -4 -80 0 -49
12 -74 60 -38 73 9 3 33 13 52 21 37 16 45 19 59 21 15 2 21 32 11 52 -16 29
-68 24 -107 -9z m75 -13 c-2 -6 -7 -10 -11 -10 -4 1 -22 -6 -40 -15 l-32 -17
24 27 c24 25 66 37 59 15z"/>
<path d="M2700 7384 c-34 -30 -70 -92 -70 -124 0 -37 44 -70 92 -70 47 0 61 7
71 32 5 15 2 16 -19 8 -40 -16 -79 -12 -99 10 -22 25 -14 46 22 54 62 16 96
83 54 106 -16 8 -26 5 -51 -16z m40 -24 c0 -9 -32 -30 -46 -30 -4 0 1 9 11 20
19 21 35 26 35 10z"/>
<path d="M3055 7388 c-2 -7 -15 -45 -28 -85 -14 -40 -22 -74 -19 -78 12 -12
21 -3 50 48 16 28 41 63 55 75 l25 24 -1 -40 c-1 -22 -6 -39 -11 -39 -14 3
-20 -33 -8 -45 5 -5 30 14 65 52 l56 61 -2 -83 c-1 -64 1 -83 12 -83 10 0 14
25 17 103 5 96 4 102 -15 102 -10 0 -33 -16 -50 -35 -17 -19 -32 -35 -35 -35
-2 0 -3 15 -2 33 1 25 -3 33 -20 35 -11 2 -27 -4 -34 -13 -16 -19 -30 -19 -30
0 0 18 -19 20 -25 3z"/>
<path d="M2883 7358 c-47 -51 -58 -77 -39 -96 12 -13 22 -14 50 -5 32 10 34 9
42 -19 12 -41 29 -31 30 17 0 22 6 50 12 62 29 52 0 59 -40 9 -24 -30 -68 -54
-68 -37 0 16 34 53 57 62 13 5 23 15 20 22 -7 23 -33 17 -64 -15z"/>
<path d="M6073 7374 c-10 -27 -9 -133 2 -136 6 -2 13 20 16 47 4 28 10 62 14
78 6 21 4 27 -9 27 -9 0 -19 -7 -23 -16z"/>
<path d="M3592 7218 c-15 -15 -16 -38 -1 -38 16 0 41 29 34 40 -8 13 -18 13
-33 -2z"/>
<path d="M3986 7128 c-3 -13 -7 -57 -10 -99 -7 -114 -45 -176 -120 -195 -17
-4 -26 -2 -26 5 0 21 32 76 54 93 17 13 18 20 9 29 -17 17 -50 -12 -74 -66
-35 -76 -21 -109 39 -92 108 31 153 116 156 291 1 52 -19 76 -28 34z"/>
<path d="M3315 7081 c-3 -5 -1 -12 5 -16 12 -7 30 2 30 16 0 12 -27 12 -35 0z"/>
<path d="M3526 7083 c-3 -3 -6 -31 -6 -62 0 -81 -17 -130 -60 -173 -41 -41
-55 -46 -64 -23 -7 19 22 94 38 96 6 1 20 2 30 3 27 1 31 23 7 31 -36 11 -74
-16 -95 -68 -18 -44 -19 -51 -5 -75 52 -94 179 47 179 200 0 62 -8 87 -24 71z"/>
<path d="M5017 7083 c-3 -5 -8 -33 -11 -64 -8 -60 -28 -135 -46 -169 -9 -17
-7 -24 14 -45 45 -45 138 -29 185 31 23 30 27 74 9 92 -21 21 -81 14 -122 -14
-34 -23 -38 -24 -32 -8 12 29 35 168 29 177 -2 4 -8 7 -13 7 -5 0 -11 -3 -13
-7z m133 -189 c0 -58 -99 -107 -150 -74 -13 9 -11 13 10 31 70 58 140 79 140
43z"/>
<path d="M7983 6969 c-38 -35 -42 -43 -38 -76 6 -50 30 -73 76 -73 44 0 89 15
89 30 0 6 -25 9 -62 7 -54 -2 -63 0 -63 15 0 11 18 27 45 40 47 24 63 56 40
84 -20 23 -42 16 -87 -27z m67 -4 c0 -16 -38 -40 -48 -30 -4 4 4 15 17 26 28
23 31 23 31 4z"/>
<path d="M8236 6969 c-20 -23 -40 -58 -45 -78 -25 -93 -25 -93 -6 -89 11 2 23
20 31 48 21 69 56 125 82 128 12 2 34 -6 50 -18 25 -20 27 -20 31 -4 4 24 -37
54 -75 54 -25 0 -40 -9 -68 -41z"/>
<path d="M2465 6981 c-63 -38 -112 -116 -120 -188 -1 -10 -4 -25 -8 -33 -15
-36 -29 -172 -18 -183 13 -13 45 54 62 130 8 36 18 55 31 59 73 23 155 175
118 219 -16 20 -29 19 -65 -4z m39 -48 c-12 -48 -42 -99 -68 -116 -35 -23 -36
-22 -36 23 0 32 7 47 38 80 47 48 76 54 66 13z"/>
<path d="M7404 6986 c-17 -8 -40 -26 -52 -41 -63 -80 31 -122 144 -65 l37 19
-7 -64 c-9 -87 -12 -93 -58 -107 -72 -21 -91 -87 -39 -139 16 -16 35 -29 41
-29 22 0 60 49 60 79 0 53 8 61 62 61 66 0 61 24 -6 28 -38 3 -46 6 -42 18 3
9 9 52 12 97 6 73 4 85 -14 107 -22 27 -20 28 -37 -25 -2 -8 -29 -21 -60 -30
-84 -25 -110 -7 -59 40 28 26 58 32 69 15 10 -17 25 -11 25 10 0 10 -9 24 -19
30 -23 12 -19 12 -57 -4z m100 -308 c-12 -71 -15 -78 -33 -78 -23 0 -45 41
-36 69 3 12 20 25 38 30 18 5 33 10 34 10 1 1 0 -14 -3 -31z"/>
<path d="M6533 6980 c-68 -16 -80 -48 -34 -93 36 -35 43 -60 24 -86 -23 -33
-93 -26 -93 10 0 23 -28 25 -37 2 -10 -26 41 -63 87 -63 31 0 43 6 65 32 31
36 28 64 -12 116 -32 43 -21 56 47 55 34 0 50 3 50 12 0 24 -36 30 -97 15z"/>
<path d="M7712 6939 c-35 -34 -39 -50 -18 -68 11 -9 25 -7 64 7 l50 19 6 -51
c3 -28 6 -66 6 -83 0 -31 -2 -33 -32 -33 -43 0 -96 -33 -103 -63 -11 -43 12
-105 46 -122 29 -15 31 -15 58 12 16 17 33 50 41 81 8 28 19 52 26 52 21 0 27
20 11 33 -9 8 -17 39 -21 82 -4 39 -8 82 -10 97 -3 31 -41 67 -72 68 -11 0
-35 -14 -52 -31z m72 -8 c3 -4 -6 -13 -20 -20 -38 -17 -49 -13 -29 9 19 21 40
26 49 11z m23 -260 c-22 -109 -73 -135 -91 -46 -3 17 -3 35 2 41 12 17 45 33
71 34 21 0 23 -3 18 -29z"/>
<path d="M2604 6941 c-31 -19 -66 -78 -79 -133 -6 -24 -4 -28 13 -28 23 0 48
25 33 34 -27 17 46 116 85 116 8 0 14 7 14 15 0 21 -29 19 -66 -4z"/>
<path d="M3078 6943 c-9 -10 -26 -43 -37 -73 -34 -89 -35 -90 -70 -35 -17 27
-33 57 -37 67 -6 20 -19 24 -29 8 -10 -16 63 -138 86 -145 29 -10 45 9 78 91
21 53 33 70 50 72 12 2 20 9 18 15 -6 19 -42 19 -59 0z"/>
<path d="M3632 6925 c-55 -46 -78 -127 -46 -159 18 -19 75 -21 92 -4 17 17 15
38 -3 38 -8 0 -15 -5 -15 -11 0 -6 -12 -9 -27 -7 -22 2 -28 8 -28 27 0 19 7
26 29 32 56 15 85 66 54 97 -17 17 -22 15 -56 -13z m38 -25 c0 -5 -9 -14 -20
-20 -22 -12 -27 -1 -8 18 14 14 28 16 28 2z"/>
<path d="M5375 6889 c-28 -36 -53 -59 -63 -57 -9 2 -20 21 -26 48 -6 25 -15
44 -21 42 -16 -5 -6 -85 13 -111 18 -24 18 -26 -16 -75 -78 -115 -130 -261
-92 -261 9 0 17 15 22 41 10 65 103 231 165 299 54 59 93 110 93 122 0 29 -31
10 -75 -48z"/>
<path d="M6938 6933 c0 -10 0 -28 1 -40 2 -30 -14 -60 -40 -74 -19 -10 -20 -8
-17 27 4 54 -14 53 -78 -5 -48 -44 -84 -64 -84 -45 0 3 10 27 21 54 12 27 18
57 15 66 -9 22 -17 11 -45 -58 -43 -108 -12 -135 81 -69 51 35 57 37 61 20 7
-27 31 -33 64 -17 33 16 48 46 57 111 5 42 4 47 -14 47 -12 0 -21 -7 -22 -17z"/>
<path d="M2720 6888 c-49 -107 1 -178 79 -112 38 32 40 67 8 115 -34 51 -63
50 -87 -3z m75 -68 c-7 -23 -41 -44 -55 -35 -14 9 -12 40 5 83 l16 37 20 -32
c13 -20 18 -40 14 -53z"/>
<path d="M3226 6921 c-4 -5 -3 -17 1 -28 3 -10 2 -15 -2 -10 -12 10 -37 -52
-30 -75 10 -31 32 -20 39 20 3 20 9 52 12 70 6 30 -7 45 -20 23z"/>
<path d="M7105 6918 c-11 -6 -35 -24 -52 -41 -36 -34 -45 -83 -18 -93 26 -10
83 6 115 32 l30 26 0 -36 c0 -25 4 -36 15 -36 11 0 15 11 15 38 0 20 3 47 6
60 5 17 2 22 -14 22 -12 0 -24 -5 -27 -11 -13 -20 -88 -69 -107 -69 -27 0 -22
18 14 52 23 21 38 28 55 23 18 -4 23 -1 23 14 0 10 -7 22 -16 25 -19 7 -15 8
-39 -6z"/>
<path d="M8426 6804 c-9 -24 -7 -34 8 -34 16 0 29 27 20 41 -8 14 -21 11 -28
-7z"/>
<path d="M5387 5893 c-4 -3 -7 -15 -7 -25 0 -16 -28 -99 -105 -315 -28 -80
-24 -116 17 -126 13 -4 67 -7 121 -7 74 0 98 3 95 12 -6 17 -73 28 -125 21
-87 -11 -110 12 -82 84 40 102 119 331 119 345 0 18 -20 24 -33 11z"/>
<path d="M5940 5864 c-9 -23 -40 -160 -40 -175 0 -4 -21 -12 -47 -19 -56 -15
-71 -26 -57 -40 7 -7 24 -6 53 5 l43 15 -6 -38 c-18 -122 -19 -135 -5 -130 16
5 26 36 34 110 5 48 9 57 30 62 17 4 22 11 18 22 -3 8 -12 13 -20 9 -12 -4
-14 0 -8 22 4 16 9 42 10 58 2 17 8 43 14 58 14 35 14 67 1 67 -6 0 -15 -12
-20 -26z"/>
<path d="M7415 5833 c-3 -16 -16 -61 -28 -102 l-23 -74 -49 -14 c-28 -8 -54
-19 -59 -24 -16 -15 20 -21 59 -10 l36 10 -7 -60 c-5 -49 -4 -59 9 -59 10 0
17 15 21 53 8 61 12 68 49 84 35 16 36 37 1 30 -20 -3 -24 -1 -19 12 11 29 45
155 45 168 0 25 -30 13 -35 -14z"/>
<path d="M9120 5796 c-16 -35 -32 -74 -35 -87 -14 -54 -30 -64 -113 -65 -58
-1 -77 -5 -77 -15 0 -11 18 -14 73 -14 39 0 72 -1 72 -1 0 -1 -14 -43 -31 -94
-21 -64 -27 -96 -20 -103 14 -14 21 -6 31 35 12 50 50 151 62 166 6 6 27 12
47 12 20 0 42 4 50 9 24 16 2 29 -39 24 -22 -3 -40 -4 -40 -1 0 11 52 134 65
155 16 23 13 43 -6 43 -6 0 -23 -29 -39 -64z"/>
<path d="M8360 5783 c-1 -16 -13 -59 -28 -98 -25 -65 -30 -70 -65 -78 -43 -10
-45 -33 -3 -30 19 2 26 -2 23 -10 -3 -7 -17 -37 -30 -68 -24 -53 -25 -69 -6
-69 5 0 25 36 45 80 l36 79 54 3 c68 4 71 22 5 26 l-50 3 25 65 c28 75 32 124
9 124 -10 0 -15 -10 -15 -27z"/>
<path d="M9642 5763 c-5 -10 -17 -43 -27 -73 -30 -94 -65 -152 -130 -217 -65
-64 -105 -81 -105 -44 0 41 81 111 130 111 11 0 20 7 20 15 0 19 -42 20 -79 1
-15 -8 -44 -33 -65 -56 -29 -33 -36 -48 -33 -72 4 -41 27 -56 64 -42 15 6 27
16 26 22 -2 6 3 9 10 6 13 -4 75 52 111 101 15 19 15 19 16 -12 0 -70 36 -107
80 -83 28 15 26 34 -5 26 -56 -14 -58 68 -6 224 17 50 31 95 31 101 0 16 -29
10 -38 -8z"/>
<path d="M6070 5693 c-33 -13 -70 -45 -70 -62 0 -10 9 -26 20 -36 11 -10 20
-14 20 -9 0 8 18 -19 36 -55 8 -14 -8 -28 -45 -38 -15 -4 -26 -2 -29 5 -4 14
-28 16 -36 3 -4 -5 -3 -16 0 -25 9 -23 72 -20 112 4 44 27 43 61 -4 104 -44
40 -41 59 11 80 48 21 34 47 -15 29z"/>
<path d="M8072 5671 c-29 -10 -56 -21 -59 -25 -4 -4 3 -27 15 -51 27 -55 27
-67 4 -88 -26 -24 -42 -21 -42 6 0 29 -34 64 -45 47 -4 -7 -2 -17 4 -23 6 -6
11 -20 11 -32 0 -65 91 -55 120 14 9 24 8 33 -10 64 -12 20 -19 41 -16 46 4 5
31 15 61 22 33 7 55 18 55 26 0 18 -34 15 -98 -6z"/>
<path d="M7081 5625 c-17 -20 -31 -40 -31 -45 0 -6 -9 -5 -20 2 -29 18 -37 1
-12 -25 12 -13 22 -32 22 -44 0 -34 34 -56 78 -50 79 9 86 37 10 34 -51 -2
-53 -1 -56 26 -3 21 1 27 15 27 38 1 85 57 76 91 -8 31 -48 23 -82 -16z m30
-31 c-11 -15 -21 -21 -21 -14 0 15 31 52 38 46 2 -3 -5 -17 -17 -32z"/>
<path d="M5570 5592 c-34 -33 -40 -46 -40 -81 0 -31 6 -48 25 -66 13 -14 30
-25 37 -25 47 0 148 49 148 72 0 14 -30 9 -58 -11 -41 -29 -86 -35 -107 -15
-16 16 -14 18 31 43 82 44 98 111 30 119 -20 3 -36 -6 -66 -36z m74 -1 c6 -9
-28 -43 -61 -60 -32 -16 -29 1 6 38 29 31 46 38 55 22z"/>
<path d="M6801 5604 c-28 -36 -36 -71 -21 -89 18 -21 50 -18 77 7 l23 21 0
-74 c0 -41 -4 -80 -9 -87 -5 -9 -26 -12 -62 -10 l-53 3 -10 -42 c-13 -60 3
-147 27 -151 27 -5 72 42 97 99 17 40 25 49 45 49 30 0 33 20 5 27 -14 4 -19
11 -15 24 6 17 7 119 2 203 -2 42 -23 60 -33 29 -13 -39 -29 -65 -47 -75 -10
-5 -21 -7 -24 -5 -9 10 28 67 43 67 9 0 14 6 12 13 -8 22 -36 18 -57 -9z m57
-269 c6 -5 -46 -101 -61 -114 -13 -10 -16 -4 -22 38 -10 75 -2 91 43 84 20 -3
38 -7 40 -8z"/>
<path d="M8709 5583 c-78 -83 -115 -153 -79 -153 5 0 25 27 45 60 46 75 79
103 116 95 33 -7 47 10 20 24 -36 20 -66 12 -102 -26z"/>
<path d="M9205 5563 c-47 -48 -64 -103 -42 -136 8 -13 30 -30 47 -37 27 -11
34 -11 47 3 14 14 12 16 -26 27 -57 15 -54 39 9 68 61 28 86 61 70 91 -18 34
-63 27 -105 -16z m75 -2 c0 -14 -50 -51 -68 -51 -11 0 -8 9 13 30 28 29 55 39
55 21z"/>
<path d="M8503 5582 c-35 -5 -84 -71 -81 -107 2 -25 8 -31 31 -33 16 -2 40 4
55 14 18 12 27 14 30 5 2 -6 11 -18 19 -27 22 -22 39 -3 22 24 -11 17 -11 28
-1 55 15 43 15 47 -3 47 -9 0 -21 -11 -27 -25 -6 -14 -26 -34 -43 -45 -57 -35
-72 -21 -34 31 14 21 29 29 50 29 18 0 29 5 29 14 0 17 -17 23 -47 18z"/>
<path d="M10273 5473 c-7 -2 -13 -12 -13 -20 0 -12 7 -14 31 -9 17 3 40 6 50
6 11 0 19 7 19 15 0 11 -10 15 -37 14 -21 0 -44 -3 -50 -6z"/>
<path d="M10766 5458 c-9 -34 -8 -38 12 -38 32 0 45 15 33 39 -15 27 -37 27
-45 -1z"/>
<path d="M10577 5444 c-55 -14 -65 -20 -51 -34 10 -10 92 6 109 21 20 19 -11
26 -58 13z"/>
<path d="M11007 5453 c-4 -3 -7 -12 -7 -20 0 -15 26 -18 34 -4 7 11 -18 33
-27 24z"/>
<path d="M4836 5391 c-4 -6 -16 -52 -27 -103 -11 -51 -34 -131 -50 -178 -17
-47 -31 -92 -32 -100 -4 -28 20 -15 63 35 23 28 46 51 51 53 4 2 9 -18 11 -45
2 -34 8 -49 19 -51 13 -2 15 7 14 56 -1 32 -5 64 -9 70 -11 18 -37 14 -63 -9
l-22 -22 10 34 c11 36 58 224 62 248 2 17 -19 26 -27 12z"/>
<path d="M4667 5354 c-8 -16 -22 -62 -32 -101 l-17 -73 -69 0 c-55 0 -69 -3
-69 -15 0 -12 13 -15 60 -15 33 0 60 -3 60 -7 0 -5 -7 -30 -15 -57 -20 -64
-20 -106 0 -106 8 0 15 9 15 20 0 12 7 50 16 85 l16 63 46 9 c60 11 68 33 12
33 -35 0 -41 3 -36 17 4 9 11 36 16 59 5 23 15 54 22 69 18 39 -5 57 -25 19z"/>
<path d="M3450 5358 c0 -7 -14 -60 -32 -118 -30 -98 -52 -142 -60 -121 -5 12
-87 21 -94 9 -11 -17 11 -28 59 -30 26 -1 47 -2 47 -3 0 0 -7 -31 -14 -69 -15
-68 -14 -86 4 -86 10 0 13 10 30 98 11 55 16 63 39 68 61 13 91 26 91 39 0 8
-8 12 -17 10 -70 -15 -83 -17 -83 -14 0 2 14 47 30 99 34 106 37 130 15 130
-8 0 -15 -6 -15 -12z"/>
<path d="M7755 5299 c-56 -82 -207 -244 -248 -265 -27 -15 -29 -34 -3 -34 8 0
38 20 68 45 47 38 62 45 99 45 l44 0 0 -45 c0 -44 17 -59 23 -19 7 50 13 62
32 67 11 3 20 13 20 22 0 11 -5 15 -14 12 -9 -4 -2 23 21 80 34 84 41 152 17
160 -5 2 -32 -29 -59 -68z m24 -51 c-57 -140 -48 -128 -91 -128 l-39 0 55 64
c30 36 62 76 72 90 25 39 26 31 3 -26z"/>
<path d="M10377 5332 c-9 -10 -17 -24 -17 -31 0 -6 -11 -23 -24 -36 -20 -19
-30 -23 -65 -18 -32 4 -41 2 -41 -10 0 -10 14 -17 43 -21 l44 -7 -14 -52 c-17
-66 -10 -110 24 -137 35 -27 106 -27 133 0 11 11 23 20 27 19 4 0 9 4 11 10 5
15 -18 13 -48 -4 -31 -18 -81 -19 -104 -2 -21 15 -24 87 -6 142 l12 35 65 -2
c88 -4 98 17 13 27 l-60 7 22 39 c25 45 14 74 -15 41z"/>
<path d="M3587 5318 c-2 -7 -28 -84 -57 -171 -66 -197 -61 -212 38 -114 45 44
75 67 91 67 21 0 23 -3 17 -32 -19 -103 -19 -108 -2 -108 10 0 16 8 16 23 0
12 7 41 15 64 16 47 12 69 -17 84 -26 14 -55 3 -110 -43 l-47 -39 39 111 c22
61 40 122 40 135 0 26 -18 44 -23 23z"/>
<path d="M7956 5288 c-2 -7 -7 -38 -9 -69 -3 -31 -17 -89 -32 -130 -32 -90
-34 -104 -15 -104 9 0 24 22 36 54 19 47 25 54 52 56 67 5 162 83 162 131 0
26 -24 54 -47 54 -23 0 -100 -47 -112 -68 -8 -13 -10 -5 -8 32 1 32 -2 51 -10
53 -7 3 -15 -1 -17 -9z m164 -60 c0 -22 -23 -49 -64 -73 -76 -44 -95 -29 -43
35 36 46 107 71 107 38z"/>
<path d="M3145 5261 c-8 -15 3 -31 21 -31 9 0 14 7 12 17 -4 20 -24 28 -33 14z"/>
<path d="M8305 5248 c-2 -7 -20 -57 -39 -110 -35 -95 -46 -168 -26 -168 6 0
12 6 14 13 2 6 9 34 15 62 7 27 25 83 42 123 16 41 27 78 23 83 -8 13 -24 11
-29 -3z"/>
<path d="M10634 5182 c-61 -53 -72 -119 -29 -166 22 -24 31 -27 67 -22 44 6
74 24 61 37 -5 5 -25 3 -46 -3 -32 -10 -40 -9 -57 7 -11 10 -20 30 -20 45 0
24 3 27 25 23 36 -7 88 46 76 79 -12 32 -41 32 -77 0z m31 -32 c-10 -11 -20
-18 -23 -15 -7 6 18 35 31 35 5 0 2 -9 -8 -20z"/>
<path d="M10895 5168 c-33 -39 -36 -41 -30 -15 7 28 -5 37 -22 15 -11 -14 -43
-110 -43 -127 0 -17 18 -13 39 8 10 10 38 44 61 76 23 31 44 55 46 52 3 -2 -7
-34 -22 -71 -47 -112 5 -111 90 3 l41 56 3 -80 c4 -105 23 -129 86 -105 17 6
24 15 20 24 -4 11 -12 13 -31 5 -13 -5 -29 -7 -34 -3 -5 3 -9 48 -9 100 0 84
-2 94 -18 94 -18 0 -57 -36 -102 -95 -12 -16 -20 -23 -17 -15 21 54 29 91 24
104 -11 28 -44 17 -82 -26z"/>
<path d="M5008 5183 c-75 -85 -79 -233 -7 -233 60 0 176 56 156 76 -4 4 -28
-2 -55 -14 -26 -12 -63 -23 -82 -25 -34 -2 -35 -1 -38 39 -3 39 -1 42 26 47
41 8 92 54 92 83 0 41 -63 59 -92 27z m56 -22 c5 -8 -25 -40 -51 -55 -20 -11
-15 8 8 38 21 27 34 32 43 17z"/>
<path d="M10074 5175 c-68 -41 -68 -66 3 -120 l45 -34 -27 -7 c-14 -4 -38 -1
-51 5 -33 15 -34 14 -34 -9 0 -36 112 -39 141 -4 14 17 -5 43 -58 75 -18 11
-33 27 -33 35 0 21 61 55 92 51 23 -3 38 8 38 27 0 1 -17 3 -37 4 -26 1 -52
-6 -79 -23z"/>
<path d="M8987 5160 c-115 -100 -61 -261 74 -221 22 7 39 18 39 26 0 18 -7 18
-49 4 -40 -14 -78 0 -90 33 -7 19 -1 25 43 47 28 14 58 38 66 54 13 24 13 30
0 54 -22 38 -42 39 -83 3z m57 -45 c-6 -15 -84 -62 -84 -50 0 16 33 66 52 79
19 14 23 14 30 2 4 -8 5 -22 2 -31z"/>
<path d="M9596 5155 c-10 -26 -8 -31 29 -75 50 -60 45 -100 -11 -86 -19 5 -24
13 -24 37 0 43 -24 32 -28 -13 -3 -31 1 -37 26 -47 43 -18 84 -10 98 18 15 30
4 61 -36 108 -36 40 -37 45 -7 41 14 -2 22 2 22 12 0 22 -61 26 -69 5z"/>
<path d="M9776 5123 c8 -56 31 -125 43 -133 5 -3 -10 -46 -34 -95 -28 -56 -44
-104 -44 -128 -1 -46 22 -47 27 -1 2 16 41 107 87 201 47 95 85 175 85 178 0
3 -7 5 -15 5 -9 0 -29 -28 -47 -65 -18 -36 -35 -65 -39 -65 -8 0 -29 71 -29
98 0 31 -11 52 -27 52 -11 0 -13 -9 -7 -47z"/>
<path d="M9188 5133 c-72 -78 -60 -163 25 -169 32 -3 37 0 37 18 0 16 -4 19
-24 14 -28 -7 -56 15 -56 43 0 32 44 86 73 89 37 4 36 32 -1 32 -18 0 -38 -10
-54 -27z"/>
<path d="M9374 5115 c-8 -13 -13 -29 -9 -35 4 -6 1 -9 -6 -8 -15 4 -34 -44
-26 -65 12 -31 50 -47 88 -37 76 21 97 67 54 118 -15 18 -33 32 -41 32 -8 0
-14 5 -14 10 0 19 -30 10 -46 -15z m83 -52 c13 -19 12 -24 -6 -42 -24 -24 -79
-28 -87 -7 -3 8 2 28 11 46 13 25 22 31 42 28 14 -2 32 -13 40 -25z"/>
<path d="M2937 5113 c-4 -3 1 -15 10 -25 22 -25 9 -62 -34 -95 l-31 -24 -25
27 c-29 31 -41 29 -126 -26 -67 -43 -67 -38 -2 49 37 50 52 91 34 91 -29 1
-173 -47 -173 -57 0 -18 40 -14 118 11 20 7 18 2 -17 -45 -58 -77 -67 -95 -52
-113 15 -18 31 -13 103 36 65 43 78 46 103 18 10 -11 25 -20 34 -20 23 0 88
56 106 90 17 33 7 73 -20 84 -20 7 -20 7 -28 -1z"/>
<path d="M3062 5072 c-27 -62 -32 -107 -12 -107 8 0 17 15 22 38 4 21 15 51
23 68 15 28 13 49 -4 49 -5 0 -18 -21 -29 -48z"/>
<path d="M11170 5020 c0 -5 5 -10 11 -10 5 0 7 5 4 10 -3 6 -8 10 -11 10 -2 0
-4 -4 -4 -10z"/>
<path d="M7865 4555 c-55 -7 -136 -18 -180 -24 -44 -6 -141 -11 -215 -10 -185
3 -180 5 -180 -89 1 -211 -10 -502 -24 -632 -27 -251 -26 -240 -11 -246 42
-16 374 -5 660 22 157 15 173 15 209 0 21 -9 45 -16 52 -16 18 0 18 30 -1 44
-12 9 -16 82 -22 446 -8 410 -9 435 -26 438 -14 3 -18 -1 -15 -19 2 -18 -10
-31 -61 -66 -36 -23 -66 -41 -68 -40 -2 2 0 39 4 81 6 77 6 78 32 73 14 -3 34
-9 45 -13 14 -5 17 -3 14 11 -2 12 -17 22 -38 28 -19 5 -39 13 -44 18 -6 5
-15 8 -20 8 -6 -1 -56 -7 -111 -14z m89 -98 c-4 -31 -11 -54 -15 -51 -19 12
-27 -7 -14 -33 11 -20 11 -30 3 -40 -8 -10 -8 -17 0 -25 8 -8 36 5 101 45 l91
56 0 -167 c0 -92 3 -264 7 -383 5 -194 4 -216 -10 -216 -9 0 -14 4 -11 9 6 9
-20 11 -29 1 -4 -3 0 -11 9 -18 13 -9 -24 -15 -172 -29 -204 -18 -505 -36
-516 -30 -3 2 -31 5 -61 5 l-55 2 4 86 c2 47 8 129 15 181 6 52 14 217 18 365
l6 270 215 7 c118 4 260 11 315 16 55 4 101 7 103 6 1 -1 0 -26 -4 -57z"/>
<path d="M7537 4359 l-46 -50 -17 31 c-17 28 -44 41 -44 20 0 -14 40 -89 52
-96 10 -7 117 104 118 123 1 28 -20 19 -63 -28z"/>
<path d="M7830 4319 c-19 -4 -64 -9 -98 -10 -44 -1 -65 -6 -69 -16 -3 -8 -4
-15 -2 -17 2 -2 48 0 102 5 92 8 127 19 127 40 0 10 -12 10 -60 -2z"/>
<path d="M7527 4208 c-15 -23 -27 -47 -27 -54 0 -13 -38 -64 -48 -64 -4 0 -16
16 -26 35 -20 37 -33 44 -42 21 -6 -15 34 -82 55 -91 25 -10 57 23 94 97 21
41 37 80 37 86 0 23 -16 12 -43 -30z"/>
<path d="M7634 4176 c-4 -9 -4 -19 -2 -22 3 -2 55 -7 116 -11 100 -5 112 -4
112 10 0 10 -3 17 -7 18 -5 0 -46 2 -93 4 -47 1 -93 6 -102 10 -12 5 -20 2
-24 -9z"/>
<path d="M7775 4030 c-11 -4 -50 -11 -87 -15 -48 -5 -68 -12 -68 -21 0 -19 67
-18 145 1 33 8 84 14 113 15 43 0 52 3 52 18 0 13 -2 14 -9 3 -6 -9 -11 -10
-15 -2 -8 13 -101 14 -131 1z"/>
<path d="M7493 3968 c-11 -13 -28 -35 -38 -50 -22 -36 -31 -35 -44 2 -5 17
-17 30 -25 30 -21 0 -20 -13 4 -60 24 -48 52 -52 77 -12 9 15 30 42 45 60 40
47 22 74 -19 30z"/>
<path d="M7730 3819 c-25 -5 -62 -7 -82 -3 -30 4 -38 3 -38 -9 0 -23 51 -30
135 -17 42 6 83 9 91 6 19 -7 57 12 49 25 -7 11 -94 10 -155 -2z"/>
<path d="M7354 3785 c-4 -9 -2 -21 5 -28 6 -6 11 -21 11 -32 0 -22 38 -65 56
-65 16 0 104 90 104 106 0 24 -24 15 -52 -20 -42 -53 -64 -53 -84 0 -19 51
-31 62 -40 39z"/>
<path d="M7775 3691 c-20 -11 -53 -15 -102 -14 -56 2 -73 -1 -73 -12 0 -34
181 -25 211 11 19 23 -3 32 -36 15z"/>
<path d="M12995 4485 c-103 -27 -135 -123 -72 -216 15 -23 35 -37 59 -43 33
-8 36 -12 42 -54 13 -99 16 -95 -68 -87 -46 4 -76 3 -80 -4 -10 -16 12 -24 83
-29 l66 -4 0 -92 c0 -80 -3 -97 -26 -136 -15 -25 -48 -88 -74 -140 -42 -84
-49 -92 -56 -72 -5 13 -13 20 -19 17 -16 -10 -12 -52 6 -59 40 -15 49 -6 102
107 29 61 61 123 71 135 l18 24 36 -76 c21 -41 43 -105 51 -141 15 -73 21 -84
37 -68 15 15 -23 150 -66 235 -19 37 -30 70 -26 73 10 6 1 48 -18 83 -6 12 -8
39 -5 66 6 43 9 46 43 51 20 3 72 15 116 26 44 10 92 19 108 19 17 0 27 5 27
15 0 20 -62 20 -121 0 -24 -8 -72 -19 -106 -23 l-63 -9 0 31 c0 17 -3 47 -6
68 -6 33 -4 38 25 52 39 20 61 63 61 116 0 45 -11 72 -44 108 -33 37 -47 41
-101 27z m84 -60 c74 -85 1 -206 -99 -165 -26 11 -60 72 -60 107 0 27 25 63
54 77 48 24 71 19 105 -19z"/>
<path d="M11975 4470 c-11 -11 -39 -34 -63 -51 -46 -32 -62 -61 -62 -112 0
-46 40 -98 89 -118 9 -3 20 -30 27 -62 l11 -56 -101 -3 c-78 -2 -101 -6 -101
-17 0 -11 21 -13 103 -12 l102 2 0 -87 c0 -75 -4 -94 -27 -141 -16 -30 -51
-83 -79 -117 -72 -87 -91 -126 -61 -126 8 0 18 10 24 23 6 12 27 42 48 67 21
25 54 69 73 99 33 51 36 53 49 35 34 -46 85 -141 101 -188 19 -57 45 -69 50
-23 2 18 -2 29 -12 33 -9 3 -16 14 -16 24 0 9 -25 57 -56 106 -45 72 -54 92
-45 106 8 13 7 19 -5 26 -12 7 -14 25 -12 88 l3 79 45 1 c108 3 123 39 17 39
-36 0 -67 2 -70 5 -2 3 -7 21 -11 41 -6 36 -6 36 35 43 31 5 52 18 90 56 46
46 50 54 44 83 -25 122 -137 214 -190 157z m141 -107 c8 -18 14 -43 14 -56 0
-33 -82 -107 -118 -107 -5 0 -13 10 -16 23 -6 20 -8 20 -19 6 -16 -21 -47 -10
-76 27 -39 49 -23 105 42 148 31 19 49 25 69 20 22 -4 28 -2 28 12 0 25 58
-30 76 -73z"/>
<path d="M6584 4448 c4 -13 9 -61 12 -108 6 -70 4 -83 -7 -72 -22 20 -57 14
-76 -14 -24 -37 -21 -173 4 -192 27 -19 63 -10 87 21 19 26 21 42 21 180 0
164 -6 207 -31 207 -12 0 -15 -6 -10 -22z m-1 -218 c31 -37 10 -145 -28 -145
-17 0 -20 8 -23 60 -5 100 13 130 51 85z"/>
<path d="M3319 4434 c-13 -7 -37 -13 -53 -14 -68 0 -178 -95 -229 -196 -55
-109 -17 -239 90 -303 l45 -26 -7 -50 c-3 -27 -15 -65 -27 -83 -11 -18 -18
-38 -15 -45 2 -7 43 -25 90 -40 48 -15 89 -32 92 -38 4 -5 15 -9 26 -9 17 0
19 5 14 33 -4 23 1 48 19 89 25 56 25 56 83 68 32 7 86 23 121 37 60 24 63 28
94 92 30 61 32 73 33 171 0 94 -3 112 -29 172 -23 55 -35 70 -65 84 -20 9 -52
28 -71 43 -30 22 -45 26 -111 27 -46 1 -86 -4 -100 -12z m193 -41 c13 -12 40
-29 61 -38 30 -12 43 -27 64 -73 56 -120 27 -338 -52 -383 -16 -10 -52 -23
-80 -30 -152 -37 -151 -37 -164 -78 -6 -22 -18 -55 -26 -75 l-15 -35 -47 24
c-25 14 -52 25 -59 25 -21 0 -24 14 -9 56 8 21 14 63 15 92 0 48 -2 53 -27 62
-56 20 -79 40 -106 92 -45 83 -29 160 55 260 47 57 90 84 143 93 l40 6 -38
-15 c-65 -24 -87 -52 -87 -108 0 -82 56 -118 137 -87 43 16 93 69 93 99 0 28
-62 100 -86 100 -8 0 -14 4 -14 8 0 17 41 27 109 27 58 0 73 -4 93 -22z m-182
-54 c0 -7 12 -23 26 -36 24 -22 25 -27 14 -48 -13 -24 -74 -55 -109 -55 -63 0
-69 115 -8 140 32 13 77 12 77 -1z"/>
<path d="M3180 4126 c0 -7 -7 -19 -15 -26 -8 -7 -15 -21 -15 -31 0 -23 34 -59
55 -59 22 0 55 37 55 60 0 23 -45 70 -66 70 -8 0 -14 -6 -14 -14z m40 -71
c-19 -23 -44 0 -29 27 10 18 12 19 27 5 13 -13 13 -19 2 -32z"/>
<path d="M4046 4375 c-21 -8 -42 -17 -46 -22 -14 -16 -29 -139 -21 -179 9 -50
18 -64 38 -64 11 0 13 5 8 18 -16 38 -22 95 -13 130 5 20 11 45 12 55 1 10 9
23 17 28 15 10 59 12 59 4 0 -13 -30 -62 -44 -74 -24 -20 -19 -38 12 -46 34
-8 72 -43 72 -65 0 -26 -36 -67 -65 -74 -31 -8 -95 18 -95 38 0 18 -16 21 -25
6 -12 -19 5 -46 40 -63 71 -34 136 -11 166 58 26 59 21 69 -69 131 -2 1 7 18
18 37 40 68 9 107 -64 82z"/>
<path d="M4562 4368 c-21 -21 -15 -40 11 -33 34 11 44 24 27 35 -20 13 -24 12
-38 -2z"/>
<path d="M12460 4363 c-8 -3 -37 -19 -63 -35 -102 -65 -102 -143 0 -221 26
-20 54 -41 61 -47 7 -6 12 -35 12 -69 0 -58 -1 -59 -31 -65 -17 -3 -51 -6 -76
-6 -48 0 -87 -15 -78 -31 4 -5 23 -7 43 -4 20 2 60 7 88 10 l51 5 13 -104 c7
-58 10 -121 7 -141 -3 -20 -30 -69 -61 -113 -57 -81 -126 -207 -126 -230 0
-30 26 -2 64 70 23 42 55 97 72 121 27 38 36 44 59 40 27 -6 69 -50 133 -142
37 -55 62 -74 62 -49 -1 22 -46 88 -110 160 l-62 69 -2 102 c-2 56 -6 128 -11
160 -7 52 -6 57 11 57 43 -1 174 35 174 47 0 23 -47 25 -119 5 l-71 -19 0 63
0 63 31 3 c44 4 90 70 97 136 4 44 0 56 -27 96 -43 63 -92 87 -141 69z m101
-86 c44 -36 50 -67 23 -122 -28 -59 -44 -67 -100 -53 -86 23 -146 86 -129 137
7 24 71 77 100 83 29 6 61 -7 106 -45z"/>
<path d="M5111 4273 c-21 -17 -21 -19 -4 -45 10 -14 30 -41 45 -60 35 -44 39
-72 12 -76 -26 -4 -55 23 -48 42 8 21 -12 28 -26 11 -31 -38 54 -110 100 -85
42 23 33 74 -25 143 -42 48 -34 66 20 50 39 -12 53 -3 29 21 -21 21 -77 20
-103 -1z"/>
<path d="M5855 4253 c-20 -31 -25 -34 -25 -17 0 12 -7 27 -15 34 -18 15 -40 3
-26 -14 5 -6 11 -42 13 -79 2 -38 7 -66 13 -65 6 2 20 27 31 56 25 60 44 86
55 75 4 -4 10 -50 13 -102 4 -52 11 -100 17 -108 15 -18 39 -17 39 2 0 8 -4
15 -9 15 -4 0 -11 43 -14 96 -8 141 -42 180 -92 107z"/>
<path d="M6234 4265 c-34 -52 -30 -164 7 -203 32 -35 73 -29 124 21 30 28 42
46 36 55 -6 9 -18 2 -48 -28 -57 -57 -92 -53 -108 13 -6 22 -3 31 14 43 53 38
64 124 15 124 -14 0 -30 -10 -40 -25z m30 -46 c-8 -17 -18 -28 -21 -25 -9 8
18 66 28 60 5 -3 2 -19 -7 -35z"/>
<path d="M4406 4249 c-36 -29 -33 -52 14 -89 32 -26 38 -35 29 -46 -15 -19
-49 -18 -49 1 0 21 -26 19 -34 -2 -16 -40 68 -59 104 -23 31 31 25 57 -20 88
-45 31 -46 43 -2 57 18 5 32 15 32 22 0 20 -44 15 -74 -8z"/>
<path d="M4695 4244 c-30 -32 -42 -88 -25 -109 17 -21 30 -9 30 29 0 37 22 72
38 62 15 -9 32 -72 32 -119 0 -41 22 -60 43 -37 9 10 9 14 0 17 -7 3 -13 19
-13 36 0 69 -38 147 -70 147 -6 0 -22 -12 -35 -26z"/>
<path d="M4897 4259 c-23 -13 -47 -62 -47 -94 0 -63 70 -112 135 -94 41 11 79
44 70 60 -4 6 -20 2 -39 -11 -44 -26 -79 -25 -112 3 l-27 24 29 7 c46 12 74
34 74 60 0 38 -49 64 -83 45z m46 -44 c1 -10 -51 -40 -59 -33 -2 2 4 14 12 27
16 22 43 26 47 6z"/>
<path d="M5297 4252 c-25 -28 -21 -40 28 -93 51 -55 57 -79 20 -79 -18 0 -25
5 -25 20 0 27 -27 26 -36 -2 -9 -30 21 -50 71 -46 37 3 40 6 43 35 3 25 -6 41
-43 83 -25 28 -43 56 -39 61 3 6 20 9 37 7 24 -2 33 1 35 15 5 25 -68 24 -91
-1z"/>
<path d="M6059 4253 c-45 -56 -61 -85 -50 -96 6 -6 11 -26 11 -45 0 -38 45
-92 77 -92 37 0 63 13 63 30 0 10 7 23 15 30 25 21 1 35 -26 16 -13 -9 -20
-16 -15 -16 5 0 3 -7 -4 -15 -7 -8 -19 -15 -26 -15 -23 0 -54 38 -54 65 0 20
5 25 24 25 33 0 56 25 56 61 0 62 -40 90 -71 52z m41 -49 c0 -25 -21 -41 -39
-29 -7 4 -6 16 4 36 18 34 35 30 35 -7z"/>
<path d="M4197 4253 c-13 -13 -7 -89 11 -123 19 -39 63 -61 90 -44 9 6 25 27
36 48 16 32 17 44 7 77 -13 42 -27 57 -43 41 -6 -6 -4 -20 6 -41 15 -27 15
-35 2 -66 -28 -65 -76 -30 -84 60 -4 52 -10 63 -25 48z"/>
<path d="M4577 4233 c-9 -8 -9 -90 -1 -120 4 -13 13 -23 21 -23 12 0 14 8 9
38 -3 20 -6 54 -6 75 0 35 -8 46 -23 30z"/>
<path d="M3110 3667 c0 -7 20 -33 44 -57 44 -44 90 -68 134 -69 40 -2 19 23
-33 40 -33 10 -60 29 -85 57 -38 42 -60 53 -60 29z"/>
<path d="M3091 3616 c-17 -20 14 -53 81 -87 44 -22 57 -34 50 -41 -15 -15 -86
6 -113 33 -21 21 -54 19 -47 -4 7 -19 100 -67 133 -67 39 0 50 9 59 42 6 26 3
30 -59 60 -41 21 -65 38 -65 49 0 22 -25 32 -39 15z"/>
<path d="M15510 3559 c-60 -47 -95 -98 -79 -114 8 -7 15 -4 23 10 15 27 84 95
96 95 15 0 12 -56 -4 -94 -15 -35 -71 -95 -170 -179 -53 -47 -63 -67 -30 -67
8 0 37 20 63 45 26 25 50 45 53 45 3 0 8 -13 11 -30 7 -33 56 -70 94 -70 28 0
68 49 53 64 -8 8 -16 4 -29 -13 -17 -23 -21 -23 -50 -12 -23 10 -33 23 -42 54
-10 38 -9 41 25 76 47 48 66 98 66 171 0 73 -9 76 -80 19z"/>
<path d="M15006 3541 c-4 -5 -2 -20 3 -34 10 -25 8 -80 -5 -111 -5 -14 -3 -17
12 -14 38 7 42 168 5 168 -5 0 -12 -4 -15 -9z"/>
<path d="M13792 3415 c-24 -47 -64 -115 -88 -151 -24 -36 -44 -70 -44 -75 0
-18 24 -9 45 17 18 22 26 25 74 22 52 -3 54 -4 37 -21 -10 -10 -15 -24 -12
-32 9 -23 44 3 51 37 4 15 10 28 13 28 4 0 7 53 7 118 0 173 -18 185 -83 57z
m53 -37 c-10 -120 -9 -118 -59 -118 l-44 0 52 95 c28 52 52 95 54 95 2 0 0
-33 -3 -72z"/>
<path d="M3030 3432 c0 -5 10 -21 23 -35 35 -41 117 -32 117 13 0 21 -16 35
-24 21 -4 -6 -19 -6 -39 0 -40 11 -77 12 -77 1z"/>
<path d="M6927 3418 c-2 -7 -2 -39 1 -70 l5 -58 -32 0 c-21 0 -31 -5 -31 -15
0 -10 10 -15 30 -15 25 0 31 -5 41 -40 12 -40 34 -68 45 -57 4 3 -1 27 -10 53
-9 26 -16 49 -16 50 0 1 18 0 40 -3 26 -4 40 -2 40 5 0 6 -18 17 -40 23 -39
12 -40 13 -40 60 0 51 -7 79 -20 79 -5 0 -10 -6 -13 -12z"/>
<path d="M7377 3414 c-3 -4 3 -24 14 -46 11 -22 19 -41 17 -43 -2 -1 -13 -8
-26 -14 -28 -15 -18 -35 14 -27 20 5 24 3 24 -17 0 -54 23 -137 38 -137 11 0
13 8 9 38 -4 20 -9 56 -13 80 -7 42 -6 43 19 37 38 -10 44 13 6 29 -21 9 -39
28 -53 57 -21 42 -36 56 -49 43z"/>
<path d="M6751 3390 c-42 -6 -71 -29 -71 -56 0 -20 41 -65 87 -93 41 -26 43
-29 28 -44 -20 -21 -55 -22 -102 -2 -44 18 -53 19 -53 2 0 -18 44 -37 100 -44
36 -4 50 -1 73 17 41 33 35 54 -32 99 -92 63 -88 91 11 91 43 0 58 4 58 14 0
14 -22 27 -43 25 -7 -1 -32 -5 -56 -9z"/>
<path d="M13971 3343 c-22 -27 -50 -57 -61 -69 -11 -12 -20 -34 -20 -50 -1
-16 -7 -58 -15 -94 -19 -84 -19 -120 -1 -120 16 0 58 113 50 134 -3 8 5 15 23
19 63 13 114 82 115 157 0 41 -15 70 -37 70 -7 0 -31 -21 -54 -47z m43 -88
c-16 -34 -69 -73 -82 -61 -12 12 19 84 55 126 l38 44 3 -37 c2 -20 -4 -53 -14
-72z"/>
<path d="M14142 3353 c-11 -16 -26 -48 -33 -73 -7 -25 -19 -53 -28 -63 -11
-14 -12 -22 -4 -36 7 -11 8 -35 2 -71 -15 -89 -15 -94 2 -98 12 -2 20 14 33
72 13 54 23 77 36 81 10 3 34 23 53 45 l35 38 -5 -32 c-3 -22 0 -36 11 -45 9
-7 16 -12 17 -10 0 2 2 22 4 44 4 58 31 116 55 122 31 8 25 35 -7 31 -20 -2
-32 -14 -50 -47 l-23 -44 0 34 c0 74 -60 105 -98 52z m68 -59 c0 -24 -9 -43
-31 -66 -29 -32 -30 -32 -25 -8 3 14 9 43 12 65 9 64 12 69 29 55 8 -7 15 -28
15 -46z"/>
<path d="M14613 3370 c-31 -13 -77 -94 -69 -125 9 -34 42 -50 73 -36 33 15 43
14 43 -7 0 -17 18 -42 30 -42 3 0 6 28 7 63 0 34 4 76 8 94 6 28 4 33 -23 47
-35 18 -38 18 -69 6z m51 -64 c-13 -45 -66 -81 -87 -60 -10 11 15 64 40 84 31
24 57 11 47 -24z"/>
<path d="M7985 3361 c-3 -5 3 -17 12 -27 11 -11 18 -13 21 -5 9 28 -18 55 -33
32z"/>
<path d="M14423 3345 c-13 -15 -28 -44 -35 -66 -27 -91 35 -131 106 -69 31 27
36 38 36 74 0 47 -18 70 -60 80 -19 5 -30 0 -47 -19z m75 -57 c3 -30 -2 -39
-28 -58 -50 -36 -72 -15 -50 47 24 62 73 69 78 11z"/>
<path d="M14978 3323 c-11 -27 -21 -54 -21 -60 0 -7 -4 -13 -9 -13 -4 0 -8 -9
-8 -20 0 -29 25 -25 49 8 19 25 20 25 21 6 0 -24 29 -54 53 -54 23 0 21 12 -4
34 -16 14 -20 25 -16 50 6 35 -5 62 -20 53 -6 -4 -8 4 -5 18 8 43 -17 28 -40
-22z"/>
<path d="M7583 3323 c-29 -71 2 -153 59 -153 32 0 88 39 88 61 0 25 -5 24 -44
-6 -40 -31 -51 -31 -70 -3 -19 26 -20 46 -6 84 8 20 14 24 22 16 9 -9 7 -16
-5 -30 -20 -22 -22 -42 -4 -42 20 0 47 33 47 58 0 26 -25 52 -51 52 -14 0 -25
-12 -36 -37z"/>
<path d="M14814 3350 c-31 -12 -84 -78 -84 -105 0 -34 10 -55 26 -55 8 0 14
-4 14 -10 0 -5 12 -10 26 -10 14 0 23 4 20 9 -3 4 6 6 19 3 17 -3 27 1 31 12
9 24 2 27 -39 14 -41 -12 -67 0 -67 32 0 23 47 80 65 80 18 0 30 19 19 30 -5
4 -18 4 -30 0z"/>
<path d="M7104 3305 c-27 -41 -18 -135 13 -135 13 0 15 9 10 53 -7 59 6 95 24
65 12 -21 39 -24 39 -5 0 18 -33 47 -53 47 -9 0 -24 -11 -33 -25z"/>
<path d="M7785 3306 c-17 -25 -23 -95 -11 -115 10 -16 48 -14 73 4 21 14 21
13 28 -28 3 -23 9 -57 12 -74 5 -33 5 -33 -36 -33 -53 0 -67 -23 -50 -81 14
-46 62 -103 81 -97 21 7 38 50 38 96 0 23 5 42 10 42 6 0 10 7 10 15 0 8 -4
15 -9 15 -5 0 -12 26 -16 58 -3 31 -13 87 -22 125 -12 57 -19 70 -43 82 -39
20 -47 19 -65 -9z m53 -45 c4 -22 -13 -51 -29 -51 -11 0 -12 63 -2 74 12 12
28 0 31 -23z m52 -273 c0 -57 -11 -74 -32 -51 -18 22 -39 79 -31 87 4 3 19 6
35 6 26 0 28 -2 28 -42z"/>
<path d="M7240 3278 c-39 -65 -16 -112 41 -84 30 15 32 15 51 -9 11 -14 29
-25 40 -25 18 0 17 3 -11 42 -17 23 -31 52 -31 65 0 23 -26 43 -54 43 -9 0
-25 -15 -36 -32z m50 -22 c0 -15 -28 -41 -36 -34 -2 3 1 17 7 31 12 26 29 28
29 3z"/>
<path d="M8141 3294 c-25 -18 -51 -65 -51 -94 0 -11 9 -29 20 -40 18 -18 31
-20 97 -18 101 4 109 24 11 27 -90 3 -107 15 -88 61 7 18 24 36 37 41 12 4 23
13 23 18 0 17 -28 20 -49 5z"/>
<path d="M7980 3250 c0 -17 7 -47 15 -67 12 -28 18 -34 27 -25 9 9 9 20 0 45
-7 18 -12 43 -12 55 0 13 -6 22 -15 22 -10 0 -15 -10 -15 -30z"/>
<path d="M11645 2990 c-73 -113 -129 -184 -225 -288 -205 -220 -386 -399 -520
-517 -68 -61 -157 -141 -197 -179 -59 -55 -76 -66 -87 -57 -8 7 -12 20 -9 30
5 21 -28 34 -65 24 -22 -5 -30 -27 -13 -38 6 -3 6 -17 1 -34 -8 -29 -58 -122
-71 -131 -3 -3 -13 -19 -22 -36 -9 -17 -30 -37 -47 -44 -16 -7 -30 -19 -30
-27 0 -22 100 -7 117 17 19 27 96 67 173 90 37 11 70 27 74 35 3 9 -10 27 -35
48 l-39 34 63 59 c34 32 119 109 187 169 340 300 629 611 771 828 89 137 104
167 80 167 -5 0 -52 -68 -106 -150z"/>
<path d="M7096 3101 c-4 -6 -2 -47 4 -93 13 -109 14 -106 -14 -101 -36 7 -96
-50 -96 -92 0 -60 64 -110 110 -85 38 20 51 146 30 295 -11 70 -22 96 -34 76z
m3 -230 c10 -7 12 -20 7 -52 -8 -51 -21 -70 -44 -62 -47 16 -55 71 -16 102 30
24 33 24 53 12z"/>
<path d="M8370 3080 c-12 -7 -12 -12 -2 -22 13 -13 15 -52 6 -122 -6 -40 -11
-47 -33 -52 -53 -12 -61 -16 -61 -30 0 -16 13 -18 57 -5 l32 9 7 -69 c5 -52
10 -69 22 -69 12 0 14 11 8 71 l-6 71 37 -4 c32 -2 38 0 38 17 0 17 -6 20 -35
17 l-35 -3 0 90 c0 92 -9 117 -35 101z"/>
<path d="M7239 2915 c-1 -5 -1 -14 0 -18 1 -5 -10 -22 -24 -39 -33 -38 -34
-91 -3 -112 32 -22 61 -20 86 7 35 37 29 80 -18 130 -22 23 -40 38 -41 32z
m47 -92 c8 -31 -6 -58 -31 -58 -28 0 -41 29 -27 59 16 35 49 35 58 -1z"/>
<path d="M7386 2859 c-38 -45 -36 -99 5 -133 34 -29 84 -34 114 -13 28 21 11
38 -25 24 -64 -24 -113 41 -75 99 9 15 25 24 40 24 16 0 25 6 25 15 0 28 -56
18 -84 -16z"/>
<path d="M8201 2863 c-11 -15 -25 -33 -30 -39 -5 -7 -13 -27 -16 -46 -5 -25
-16 -39 -45 -56 -48 -27 -76 -28 -90 -2 -9 17 -8 20 8 20 24 0 72 57 72 86 0
61 -71 55 -100 -9 -23 -49 -25 -76 -9 -111 22 -48 99 -50 138 -3 7 9 17 15 21
12 11 -7 24 13 44 68 10 26 22 45 27 41 5 -3 9 -32 9 -65 0 -45 4 -61 15 -66
9 -3 17 -4 19 -2 9 12 -14 173 -27 186 -12 13 -17 11 -36 -14z m-146 -67 c-10
-14 -21 -26 -26 -26 -14 0 -11 23 7 49 23 33 41 11 19 -23z"/>
<path d="M7564 2835 c-7 -19 -14 -47 -14 -63 0 -65 101 -103 141 -53 21 25 25
81 8 112 -16 31 -31 11 -24 -32 8 -48 -6 -69 -45 -69 -43 0 -56 23 -42 76 15
54 15 64 1 64 -5 0 -17 -16 -25 -35z"/>
<path d="M7840 2849 c-9 -17 -19 -20 -53 -17 l-42 3 1 -65 c0 -49 4 -65 15
-65 8 0 16 15 20 38 6 39 19 62 19 34 0 -30 28 -18 46 18 9 19 20 32 25 29 13
-8 30 -79 27 -116 -3 -27 0 -33 17 -33 17 0 20 6 17 40 -5 63 -21 114 -43 136
-24 24 -36 24 -49 -2z"/>
<path d="M14525 2824 c-49 -7 -125 -15 -168 -18 -43 -2 -81 -6 -84 -9 -2 -3
-1 -14 4 -24 13 -25 -1 -247 -23 -362 -13 -70 -15 -96 -6 -99 7 -2 5 -10 -8
-24 -10 -11 -22 -18 -27 -15 -5 3 -15 2 -23 -3 -11 -7 -12 -12 -3 -21 8 -8 84
-11 249 -11 132 1 247 -2 256 -6 9 -4 51 -6 92 -4 58 3 76 7 76 18 0 11 -15
14 -65 14 l-65 0 0 33 c0 17 7 82 15 142 8 61 15 143 15 183 0 65 2 74 20 79
26 7 26 33 -1 33 -18 0 -20 5 -18 46 2 31 -1 48 -11 54 -21 13 -118 10 -225
-6z m100 -51 c-4 -21 -21 -70 -38 -110 -26 -61 -34 -72 -51 -68 -65 14 -186 8
-186 -9 0 -11 25 -15 108 -18 103 -5 108 -4 128 19 13 15 26 21 37 18 10 -4
26 3 44 20 65 62 67 60 59 -61 -4 -60 -12 -149 -19 -199 l-13 -90 -212 -3
-212 -2 0 32 c0 18 7 65 15 103 8 39 17 120 20 180 10 186 11 192 43 188 20
-2 250 27 281 36 2 1 0 -16 -4 -36z m103 -18 l2 -50 -53 -37 c-59 -40 -74 -40
-53 1 8 14 20 52 27 84 13 56 15 58 44 55 29 -3 30 -5 33 -53z"/>
<path d="M14460 2689 c-19 -4 -52 -5 -72 -2 -30 4 -38 2 -38 -10 0 -22 62 -30
126 -17 35 7 54 16 54 26 0 15 -17 16 -70 3z"/>
<path d="M14347 2484 c-16 -16 10 -24 77 -24 41 0 93 -7 116 -15 51 -18 83
-19 78 -3 -8 22 -101 46 -184 47 -44 1 -84 -2 -87 -5z"/>
<path d="M14400 2359 c-13 -5 -36 -9 -50 -7 -17 2 -25 -2 -25 -12 0 -12 10
-14 45 -12 25 1 71 3 103 4 36 2 57 7 57 14 0 24 -81 32 -130 13z"/>
<path d="M14729 2141 c-27 -16 -51 -42 -58 -60 -13 -30 -10 -85 6 -127 5 -15
1 -16 -40 -10 -30 5 -47 4 -47 -3 0 -16 35 -31 70 -31 26 0 33 -6 46 -36 20
-47 15 -79 -11 -79 -12 -1 -19 -7 -17 -15 6 -24 25 -30 47 -16 25 17 31 72 12
119 l-15 34 37 11 c45 14 79 38 68 48 -4 5 -30 1 -56 -9 -27 -9 -51 -17 -54
-17 -8 0 -27 60 -27 85 0 29 34 71 72 91 27 14 32 14 53 0 30 -20 45 -20 45
-2 0 19 -39 46 -65 46 -12 0 -41 -13 -66 -29z"/>
<path d="M15501 2133 c-6 -21 -11 -57 -11 -80 l0 -43 -41 0 c-51 0 -49 -24 2
-28 l35 -3 -4 -62 c-2 -34 -9 -67 -14 -74 -12 -15 18 -76 35 -70 8 3 11 26 8
74 -1 39 0 85 4 102 6 29 10 31 48 31 47 0 73 12 63 29 -5 8 -24 9 -57 5 l-49
-7 0 49 c0 29 7 59 16 72 16 24 12 42 -11 42 -8 0 -19 -17 -24 -37z"/>
<path d="M14073 2143 c-4 -9 -1 -41 6 -72 21 -92 24 -153 8 -195 -21 -61 -37
-57 -37 9 0 48 3 58 20 62 29 8 25 33 -5 33 -36 0 -49 -35 -46 -126 4 -123
110 -36 111 91 0 28 -7 75 -15 105 -8 30 -15 67 -15 83 0 30 -17 37 -27 10z"/>
<path d="M13668 2044 c-64 -34 -80 -136 -32 -193 33 -39 96 -44 114 -10 16 29
7 33 -35 18 -35 -13 -38 -12 -56 10 -48 59 2 171 70 156 35 -7 50 10 22 24
-26 15 -51 13 -83 -5z"/>
<path d="M14865 2051 c-9 -16 3 -31 26 -31 14 0 19 6 17 17 -4 20 -33 29 -43
14z"/>
<path d="M14225 2017 c-41 -64 -36 -144 11 -186 22 -18 35 -22 66 -18 42 6 71
24 62 38 -3 5 -13 5 -24 -1 -30 -16 -68 -12 -90 10 -23 23 -27 70 -6 70 7 0
25 10 40 21 21 16 26 28 24 53 -3 27 -7 31 -35 34 -25 2 -35 -2 -48 -21z m55
-16 c0 -13 -29 -35 -37 -28 -7 8 15 37 28 37 5 0 9 -4 9 -9z"/>
<path d="M15012 2011 c-17 -10 -29 -57 -37 -145 -6 -65 -5 -77 9 -82 9 -3 24
-3 34 1 15 6 15 8 1 18 -13 10 -14 25 -8 90 4 44 10 81 13 84 3 3 13 -3 23
-12 11 -12 18 -14 21 -6 10 29 -32 67 -56 52z"/>
<path d="M13866 1967 c-24 -59 -27 -74 -17 -100 6 -14 19 -31 30 -37 42 -22
111 41 111 100 0 29 -47 70 -81 70 -23 0 -32 -7 -43 -33z m76 -14 c24 -21 23
-42 -4 -70 -32 -35 -58 -30 -58 10 0 30 23 77 37 77 4 0 15 -7 25 -17z"/>
<path d="M15228 1979 c-62 -28 -68 -47 -27 -81 18 -16 37 -28 42 -28 5 0 7
-10 5 -22 -2 -17 -9 -22 -23 -20 -11 2 -24 10 -28 18 -12 22 -29 16 -25 -8 4
-27 50 -52 78 -43 12 4 22 19 26 42 6 31 3 40 -19 59 -14 12 -32 24 -39 27
-16 7 5 24 42 34 27 7 42 22 34 35 -7 11 -13 10 -66 -13z"/>
<path d="M14844 1916 c-3 -7 -6 -35 -7 -62 -2 -38 2 -49 14 -52 13 -2 16 8 17
63 1 59 -11 85 -24 51z"/>
<path d="M9082 1713 c-11 -27 -26 -65 -33 -85 -9 -26 -19 -38 -32 -38 -15 0
-18 -5 -14 -21 6 -23 -41 -109 -59 -109 -14 0 -26 -28 -18 -41 13 -22 36 -4
75 61 41 69 42 70 85 70 l43 0 5 -42 c4 -24 5 -52 4 -63 -2 -12 3 -20 12 -20
12 0 15 14 16 60 2 79 3 83 14 65 6 -9 10 -10 10 -3 0 7 -7 16 -15 21 -9 5
-19 34 -25 73 -17 104 -21 119 -35 119 -7 0 -22 -21 -33 -47z m37 -95 c1 -35
-1 -38 -28 -38 l-29 0 21 55 c24 59 35 54 36 -17z"/>
<path d="M11043 1696 c-12 -24 -36 -60 -54 -80 -25 -29 -29 -40 -20 -49 10 -9
19 -4 42 23 l29 34 0 -90 c0 -58 4 -95 13 -103 10 -11 1 -12 -48 -8 -33 3 -73
9 -88 13 -25 6 -28 4 -25 -12 4 -25 65 -37 163 -31 91 6 115 13 115 34 0 14
-22 13 -81 -3 -26 -7 -24 181 3 295 1 8 -4 16 -12 18 -10 2 -23 -12 -37 -41z"/>
<path d="M10224 1676 c-3 -8 -1 -31 5 -53 6 -21 11 -79 11 -130 0 -103 11
-123 44 -77 12 16 31 40 42 53 l22 25 26 -51 c24 -49 54 -72 76 -58 16 10 11
33 -7 31 -11 0 -28 19 -47 53 -17 30 -37 56 -44 59 -7 2 -28 -13 -46 -33 l-34
-37 -1 62 c0 110 -29 204 -47 156z"/>
<path d="M9276 1595 c-8 -8 -20 -30 -27 -49 -9 -26 -16 -32 -32 -28 -17 4 -19
2 -13 -14 17 -41 17 -93 1 -178 -9 -49 -14 -91 -11 -93 23 -23 56 68 56 155 0
30 3 34 21 29 15 -4 30 3 50 23 24 23 29 37 29 77 0 75 -37 114 -74 78z m42
-65 c4 -38 -15 -80 -35 -80 -17 0 -18 59 -1 95 15 34 32 27 36 -15z"/>
<path d="M9402 1573 c-29 -42 -33 -63 -37 -198 -3 -101 -2 -125 10 -125 14 0
35 77 35 130 0 25 4 30 23 30 37 0 60 34 65 93 3 43 0 56 -18 75 -28 30 -55
28 -78 -5z m68 -54 c0 -40 -20 -79 -42 -79 -15 0 -18 8 -18 43 0 52 25 94 46
76 8 -6 14 -24 14 -40z"/>
<path d="M9569 1578 c-36 -30 -50 -68 -47 -126 2 -43 7 -57 18 -57 12 0 14 11
12 52 -5 72 18 107 65 98 44 -8 46 19 2 34 -38 13 -32 13 -50 -1z"/>
<path d="M14560 1568 c0 -2 -2 -89 -4 -195 -3 -106 -7 -197 -11 -203 -4 -6
-13 -9 -21 -6 -7 3 -16 1 -19 -4 -3 -6 -32 -7 -65 -3 -57 5 -60 5 -60 -16 0
-11 4 -21 10 -21 12 0 120 -166 120 -185 0 -16 18 -24 40 -17 8 2 41 40 73 84
32 44 71 87 87 96 39 22 40 46 3 39 -16 -3 -43 1 -62 9 -18 8 -43 14 -55 14
-21 0 -22 2 -14 87 5 61 4 91 -4 101 -8 9 -8 16 -1 20 5 4 11 43 12 86 0 44 3
88 7 98 4 13 0 18 -15 18 -12 0 -21 -1 -21 -2z m-88 -470 c-5 -20 -6 -20 -19
-3 -18 26 -16 34 6 28 13 -3 17 -11 13 -25z m157 21 c32 -11 39 -23 21 -34 -5
-3 -10 -1 -10 4 0 6 -14 11 -31 11 -17 0 -37 7 -45 15 -14 13 -13 15 9 15 13
0 38 -5 56 -11z m-91 -16 c-2 -9 -8 -18 -15 -20 -7 -3 -9 3 -6 16 6 25 26 28
21 4z m82 -37 c0 -2 -7 -7 -16 -10 -8 -3 -12 -2 -9 4 6 10 25 14 25 6z m-80
-30 c0 -7 -6 -19 -14 -25 -11 -9 -15 -8 -20 5 -4 10 -1 21 6 26 19 12 28 10
28 -6z"/>
<path d="M9693 1537 c-30 -30 -31 -89 -2 -118 39 -39 119 -1 119 56 0 28 -52
85 -77 84 -10 0 -28 -10 -40 -22z m76 -44 c11 -24 10 -29 -9 -45 -17 -13 -26
-15 -41 -8 -27 15 -25 58 4 70 32 13 33 13 46 -17z"/>
<path d="M10123 1548 c-33 -16 -57 -74 -46 -111 13 -46 52 -70 94 -60 19 5 35
17 37 26 3 13 -2 15 -25 8 -15 -5 -38 -4 -51 0 -18 7 -22 16 -22 47 0 42 13
59 54 70 14 4 26 12 26 17 1 14 -41 16 -67 3z"/>
<path d="M9840 1498 c-52 -86 13 -161 78 -90 l25 28 25 -23 c23 -21 62 -32 62
-16 0 3 -14 18 -32 33 -27 23 -34 38 -37 88 -1 6 -8 12 -16 12 -10 0 -15 -10
-15 -30 0 -34 -50 -97 -68 -86 -31 19 4 88 39 79 17 -5 20 -2 17 13 -2 12 -13
20 -30 22 -22 3 -32 -3 -48 -30z"/>
<path d="M9504 1115 c-41 -43 -42 -68 -9 -126 25 -44 31 -84 17 -105 -11 -17
-50 -35 -79 -37 -40 -3 -39 -25 1 -42 43 -18 47 -45 15 -106 -47 -93 28 -202
118 -172 20 7 29 17 31 36 4 32 -7 34 -31 6 -13 -14 -24 -18 -40 -13 -58 17
-75 66 -46 133 21 49 25 111 7 129 -9 9 -9 12 0 12 7 0 24 11 37 25 33 32 32
80 -2 150 l-27 55 27 28 c21 21 37 27 70 27 30 0 42 4 42 14 0 10 -15 16 -48
18 -45 4 -51 2 -83 -32z"/>
<path d="M10170 1105 c0 -10 10 -15 29 -15 31 0 71 -39 71 -68 0 -9 -18 -53
-40 -98 -34 -68 -39 -85 -31 -108 6 -14 16 -26 22 -26 6 0 -3 -13 -20 -29 -34
-32 -38 -47 -17 -76 16 -24 28 -96 18 -111 -17 -27 -113 -51 -97 -24 3 6 -1
10 -9 10 -17 0 -20 -9 -10 -34 9 -25 75 -20 115 7 32 22 34 27 33 75 -1 29 -8
67 -15 84 -12 28 -11 32 10 49 13 11 34 19 48 19 18 0 23 5 21 18 -2 9 -9 16
-15 15 -6 -1 -23 9 -38 23 l-27 25 22 32 c33 49 52 98 58 144 4 38 1 46 -28
73 -36 33 -100 43 -100 15z"/>
<path d="M9694 865 c-15 -39 26 -62 46 -25 8 15 6 21 -9 30 -26 13 -31 13 -37
-5z"/>
<path d="M9883 843 c-3 -10 -8 -21 -10 -25 -2 -4 1 -9 6 -12 12 -8 41 21 41
40 0 20 -29 17 -37 -3z"/>
<path d="M10035 830 c-7 -12 12 -40 27 -40 13 0 6 43 -9 47 -6 2 -14 -1 -18
-7z"/>
</g>
</svg>
